<?xml version="1.0" encoding="utf-8"?>
<!-- Generator: Adobe Illustrator 16.0.4, SVG Export Plug-In . SVG Version: 6.00 Build 0)  -->
<!DOCTYPE svg PUBLIC "-//W3C//DTD SVG 1.1//EN" "http://www.w3.org/Graphics/SVG/1.1/DTD/svg11.dtd">
<svg version="1.1" class="icon-addBook"  xmlns="http://www.w3.org/2000/svg" xmlns:xlink="http://www.w3.org/1999/xlink" x="0px" y="0px"
	 width="512px" height="512px" viewBox="0 0 512 512" enable-background="new 0 0 512 512" xml:space="preserve">
<path d="M328.582,46.458c-3.097,6.022-10.325,7.46-16.164,3.194l-0.366-0.256c-5.852-4.267-8.144-12.581-5.022-18.579l3.95-7.777
	c3.071-6.022,10.325-7.436,16.177-3.206l0.378,0.305c5.863,4.242,8.118,12.556,5.022,18.566L328.582,46.458z"/>
<path fill="#666666" d="M328.582,46.458l-1.463-0.756c-1.646,3.145-4.462,4.718-7.582,4.718c-1.976,0-4.108-0.658-6.12-2.133
	l-0.049-0.012l-0.39-0.256l-0.927,1.377l1-1.354c-3.633-2.584-5.767-7.095-5.767-11.288c0-1.841,0.402-3.596,1.231-5.157l3.949-7.79
	c1.634-3.133,4.426-4.718,7.534-4.742c2.023,0,4.145,0.683,6.168,2.133l0.976-1.341l-1.048,1.316l0.365,0.292l0.024,0.024
	l0.049,0.024c3.584,2.584,5.729,7.071,5.729,11.289c0,1.816-0.391,3.584-1.194,5.156l-3.975,7.753L328.582,46.458l1.512,0.78
	l3.949-7.778c1.073-2.072,1.561-4.376,1.561-6.68c0-5.315-2.56-10.703-7.095-14.019l-0.999,1.377l1.036-1.316l-0.378-0.293
	l-0.024-0.024l-0.024-0.024c-2.536-1.816-5.364-2.743-8.119-2.743c-4.304-0.012-8.387,2.341-10.508,6.571l-3.975,7.765
	c-1.072,2.084-1.561,4.364-1.561,6.693c0,5.291,2.561,10.667,7.095,13.995l0.024,0.024l0.391,0.256l0.951-1.377l-0.988,1.353
	c2.548,1.853,5.364,2.779,8.107,2.779c4.315,0.024,8.411-2.34,10.557-6.546L328.582,46.458z"/>
<path fill="#B3B3B3" stroke="#666666" stroke-width="0.28" d="M395.728,342.979c9.045,12.361,20.992,17.299,35.218,20.103
	c4.706,0.878,16.884,6.022,21.285,4.364c4.645-1.779,5.778-15.055,2.998-18.371c-4.485-5.376-22.442-2.975-28.817-3.584
	c-10.472-1.036-20.578-1.098-30.806-3.926L395.728,342.979z"/>
<path fill="#E6E6E6" stroke="#4D4D4D" stroke-width="0.28" d="M177.444,307.956c0.902,9.655,8.131,21.882,18.115,26.429
	c-1.183-0.561-1.926-4.145-2.389-5.303c-1.89-4.718-1.183-10.154-5.132-14.117c-2.718-2.767-6.51-5.814-10.594-6.533V307.956z"/>
<path fill="#4D4D4D" d="M115.749,349.014l1.682-0.073v-0.866c-0.024-6.033,2.097-13.056,4.815-18.48
	c1.682-3.34,3.718-6.192,6.046-9.326l1.219-1.682l0.926-0.463l0.329-0.025c1.036-0.036,3.072,0.646,4.267,1.109
	c1.853,0.671,5.925,3.926,6.498,5.486l-0.012-0.061l0.037,0.061l0.244,1.268c0.049,1.779-1.438,4.389-2.67,6.352
	c-3.121,5.059-8.558,9.947-13.117,14.263c-2.365,2.268-3.804,3.779-6.144,3.755l-0.488-0.024c-1.402-0.122-2.011-0.438-2.28-0.731
	l-0.427-1.293c0-0.938,0.378-2.34,0.89-3.742l-1.573-0.572l-1.682-0.073l-0.244,5.034L115.749,349.014l1.682-0.073L115.749,349.014
	l1.682,0.072l0.244-5.047l-3.255-0.646c-0.549,1.536-1.085,3.157-1.085,4.876c-0.012,1.219,0.329,2.621,1.402,3.657
	c1.036,1.048,2.548,1.597,4.376,1.719l0.756,0.049c4.022-0.024,6.327-2.657,8.448-4.681c4.511-4.304,10.155-9.289,13.666-14.945
	c1.195-2.024,3.108-4.84,3.182-8.107l-0.597-2.657l-1.524,0.694l1.524-0.67c-1.524-3.121-5.51-6.022-8.314-7.241
	c-1.377-0.5-3.499-1.305-5.486-1.329l-0.865,0.061c-1.17,0.172-2.219,0.756-2.853,1.451l-1.475,2.012
	c-2.329,3.17-4.499,6.181-6.327,9.801c-2.926,5.84-5.181,13.215-5.181,20.005v0.987l3.364,0.024L115.749,349.014z"/>
<path fill="#FFFFFF" stroke="#666666" d="M459.374,352.67c-7.997-4.681-24.418-3.363-33.914-4.278
	c-14.263-1.353-27.246-4.34-40.887-8.155c-11.423-3.182-19.322-4.364-22.735-16.396c-3.023-10.679-5.632-21.943-7.352-33.279
	c-3.376-22.09-0.463-48.958,5.133-70.23c2.864-10.898,7.448-20.772,14.482-29.708c8.496-10.74,14.799-10.874,28.074-10.874
	c11.923,0,23.82,0.463,35.194,1.463c7.606,0.658,30.257-1.78,35.291,4.45c-4.254,8.96-12.958,13.666-16.213,23.613
	c-3.499,10.654-5.985,21.443-6.62,33.268c-1.219,23.285,1.463,48.36,5.9,70.205c2.329,11.618,9.875,29.551,5.84,41.399"/>
<g>
	<path class="icon-addBook__finger" fill="#A0A0A0" d="M212.699,301.324c1.158,2.975,3.792,6.01,5.693,8.558c2.194,2.901,4.559,5.4,7.667,7.217
		c7.57,4.425,15.738,2.219,23.564,4.182c7.107,1.78,14.226,3.755,21.796,4.12c3.39,0.195,7.327,0.683,9.776-2.292
		c2.646-3.243,1.086-6.241,2.146-9.655c1.012-3.218,5.412-2.352,8.094-3.34c1.5-0.585,3.121-1.133,4.718-1.45
		c2.999-0.61,5.852,0.194,7.96-2.329c1.987-2.364,1.609-7.496,1.22-10.264c-0.829-6.547-4.34-12.642-6.437-18.762
		c-2.975-8.618-8.168-15.811-13.775-23.076c-6.692-8.655-13.008-17.347-20.102-25.856c-7.656-9.204-16.299-28.197-31.232-26.795
		c-4.157,0.402-7.729,3.755-11.642,5.181c-4.23,1.524-8.497,2.487-12.836,3.353c-3.157,0.658-20.639,6.473-20.614,0.024l0.22,2.986
		c-1.609,2.536-5.022,4.828-7.107,7.156c-2.279,2.584-3.718,5.596-5.875,8.265c-4.34,5.267-9.667,11.569-11.996,18.018
		c-3.023,8.302-5.022,17.506-5.022,26.624l0.476,0.707c0.109,1.524,0.524,3.206,0.975,4.767c0.866,3.145,2.548,6.254,4.145,9.204
		c1.987,3.791,3.316,7.473,5.73,10.959c2.218,3.315,3.864,7.046,7.277,9.387c3.06,2.085,5.449,4.035,7.814,6.925
		c2.767,3.34,3.56,5.412,3.84,9.837c0.207,3.377,1.036,7.681,4.62,8.899c3.133,1.085,8.277-0.537,10.886-2.512
		c3.011-2.255,4.291-6.631,5.376-10.057c1.061-3.401,1.17-7.326,1.609-10.984c0.378-3.559,0.915-7.302,0.695-10.995"/>
</g>
<path fill="#4D4D4D" d="M212.504,301.41l-1.573,0.609c1.329,3.461,4.096,6.533,5.888,8.984c2.28,3.071,4.864,5.766,8.277,7.752
	c4.157,2.439,8.448,3.012,12.495,3.268c4.047,0.232,7.948,0.22,11.544,1.109c7.095,1.779,14.299,3.816,22.139,4.193
	c1.048,0.049,2.193,0.171,3.438,0.171c1.316-0.024,2.718-0.146,4.096-0.585c1.377-0.427,2.73-1.268,3.815-2.584
	c1.657-1.976,2.048-4.146,2.121-5.889c0.036-1.756-0.049-3.133,0.378-4.425l-1.598-0.5l1.317,0.987l1.219-1.609l-1.341-1.012
	l0.902,1.402c0.378-0.256,1.39-0.512,2.596-0.671l-0.256-1.646l0.232,1.646c1.121-0.146,2.511-0.231,3.889-0.755l-0.635-1.549
	l0.61,1.572c1.499-0.561,2.986-1.061,4.364-1.341c1.268-0.256,2.693-0.231,4.267-0.464c1.597-0.207,3.413-0.828,4.815-2.535
	c0.914-1.036,1.377-2.328,1.646-3.584l-1.671-0.329l1.671,0.354c0.243-1.268,0.354-2.56,0.354-3.815c0-1.634-0.183-3.193-0.28-4.315
	v-0.049c-0.927-7.07-4.56-13.263-6.521-19.14l-0.025-0.048l0.025,0.048c-3.121-8.972-8.449-16.322-14.044-23.6
	c-6.705-8.631-13.056-17.347-20.2-25.905c-3.535-4.242-7.496-10.996-12.361-16.75c-2.462-2.901-5.156-5.571-8.229-7.534
	c-3.096-1.987-6.631-3.255-10.533-3.255h-0.012l-1.658,0.061h-0.061h-0.049c-2.499,0.256-4.645,1.329-6.607,2.451
	c-1.951,1.097-3.755,2.206-5.461,2.816c-4.072,1.487-8.229,2.426-12.544,3.304l0,0h-0.024c-1.195,0.256-3.645,0.987-6.571,1.694
	c-2.877,0.683-6.193,1.292-8.631,1.292c-1.255,0-2.255-0.231-2.718-0.463l-0.768,1.499l1.134-1.255l-0.598-0.524l-0.219-0.804
	l-0.329-1.219h-1.304v3.365h0.012v-3.365h-0.012v3.365h0.012l0.085-3.365h-0.219l-0.085-0.012l-0.305,0.012l-1.731,0.085
	l0.378,4.693l0.134,1.646l1.841-0.11l5.083-0.244l-4.425-2.962l-1.414-0.938l-0.926,1.426c-0.622,0.963-1.792,2.121-3.072,3.279
	c-1.268,1.146-2.682,2.328-3.877,3.645c-2.475,2.84-3.913,5.875-5.924,8.29c-4.34,5.266-9.777,11.69-12.325,18.615
	c-3.047,8.448-5.108,17.846-5.108,27.246v0.073v0.512l0.768,1.17l0.927,1.391l1.621-1.121l-1.195-3.023l-0.231,0.023l-1.561,0.22
	l0.134,1.585c0.122,1.768,0.597,3.535,1.036,5.133l-0.024-0.098l0.024,0.098c0.951,3.449,2.694,6.631,4.267,9.594
	c1.951,3.62,3.279,7.387,5.864,11.178c2.121,3.048,3.84,7.119,7.765,9.862c3.011,2.012,5.206,3.815,7.437,6.546
	c1.329,1.609,2.084,2.768,2.56,4.023c0.475,1.207,0.731,2.621,0.865,4.73v-0.025c0.11,1.805,0.378,3.914,1.17,5.889
	c0.792,1.926,2.28,3.877,4.693,4.729l0.158,0.062l2.633,0.365l0.11,0.037h0.134c3.523-0.062,7.253-1.414,9.667-3.268
	c1.865-1.39,3.072-3.364,4.011-5.303c0.902-1.987,1.524-4.023,2.048-5.729c1.17-3.755,1.28-7.765,1.682-11.325v-0.049
	c0.28-2.913,0.731-6.059,0.731-9.325v-0.036l-0.037-1.878l-0.061-1.743l-2.194,0.183l-1.609,0.11l0.085,3.425l1.682-0.049h-1.682
	c0,2.913-0.378,5.962-0.708,8.948c-0.39,3.767-0.573,7.559-1.523,10.63c-0.549,1.731-1.134,3.608-1.902,5.241
	c-0.756,1.658-1.658,3.012-2.828,3.865l0,0c-1.548,1.256-4.961,2.499-7.351,2.45v1.683l0.232-1.658l-2.304-0.316l-0.219,1.657
	l0.524-1.608c-1.146-0.391-1.829-1.22-2.426-2.585l-1.548,0.683l1.573-0.658c-0.549-1.316-0.792-3.061-0.915-4.62
	c-0.146-2.292-0.414-4.157-1.121-5.888c-0.671-1.78-1.707-3.316-3.17-5.072c-2.523-3.035-5.083-5.156-8.229-7.289
	c-2.804-1.842-4.413-5.328-6.79-8.838c-2.243-3.268-3.547-6.876-5.62-10.85c-1.597-2.926-3.194-5.925-3.986-8.79
	c-0.415-1.511-0.792-3.097-0.902-4.388l-1.658,0.121h1.682v-0.098v-0.5l-0.805-1.182l-0.951-1.342l-1.572,1.049l-4.45,3.072h5.62
	h1.683v-1.695c0-8.825,1.975-17.834,4.913-25.953c2.146-5.961,7.327-12.227,11.666-17.444l0.024-0.024
	c2.341-2.914,3.779-5.9,5.839-8.204c0.89-1.012,2.207-2.146,3.56-3.365c1.329-1.207,2.682-2.523,3.694-4.011l0.061-0.097
	l0.085-0.171l0.219-0.427l-0.268-3.523l-0.134-1.573l-2.048,0.049l-1.646,0.037v1.646v0.231l0.488,1.743l0.159,0.585l2.414,1.682
	l0.219,0.134l0.244,0.098c1.084,0.317,2.243,0.427,3.45,0.451c3.011-0.024,6.485-0.719,9.484-1.414
	c2.986-0.707,5.644-1.487,6.461-1.646c4.4-0.902,8.728-1.902,13.092-3.462c2.231-0.792,4.182-2.097,6.01-3.096
	c1.865-1.036,3.535-1.816,5.132-1.963l-0.158-1.67l0.073,1.67l1.585-0.073l-0.085-1.658v1.682c3.072,0,5.839,0.976,8.448,2.646
	c3.986,2.511,7.521,6.632,10.728,11.032c3.255,4.364,6.156,9.009,9.021,12.471c7.059,8.448,13.361,17.103,20.078,25.819
	c5.596,7.229,10.643,14.25,13.471,22.516c2.206,6.352,5.596,12.373,6.363,18.407l1.633-0.243l-1.633,0.219
	c0.134,1.085,0.244,2.475,0.244,3.877c0,1.084-0.086,2.133-0.244,3.047v-0.023l-0.816,1.901c-0.744,0.804-1.293,1.024-2.451,1.219
	c-1.109,0.183-2.657,0.134-4.449,0.487c-1.743,0.366-3.438,0.951-4.949,1.524c-0.829,0.341-2.609,0.415-4.364,0.743l-0.171,0.025
	l-2.291,0.84l-0.464,0.159l-1.706,2.255l-0.207,0.244l-0.11,0.28c-0.646,2.121-0.464,3.999-0.536,5.376v0.024
	c-0.086,1.45-0.232,2.365-1.244,3.597l-2.084,1.377c-0.854,0.269-1.805,0.365-2.926,0.365c-1.023,0-2.109-0.097-3.242-0.121
	c-7.278-0.354-14.275-2.292-21.358-4.084c-4.242-1.061-8.399-0.987-12.227-1.243c-3.913-0.231-7.473-0.731-10.837-2.731
	c-2.828-1.657-4.998-3.9-7.119-6.717c-1.975-2.608-4.486-5.596-5.425-8.094l-0.634-1.683l-2.06,0.976l-1.414,0.621l0.524,1.475
	L212.504,301.41l0.707,1.547l0.427-0.207l-0.707-1.535l-1.573,0.609c1.305,3.34,4.035,6.4,5.864,8.898
	c2.255,2.999,4.779,5.633,8.119,7.596c4.06,2.4,8.277,2.949,12.349,3.182c3.999,0.243,7.887,0.23,11.593,1.146
	c7.07,1.768,14.263,3.804,22.053,4.169c1.072,0.049,2.193,0.171,3.389,0.171c1.292,0,2.633-0.122,3.949-0.549
	c1.305-0.39,2.609-1.171,3.633-2.413c1.609-1.891,1.938-3.926,2-5.621v0.025c0.098-1.731-0.037-3.17,0.402-4.572l-1.598-0.5
	l1.329,1.037l1.134-1.463l1.73-0.635l-0.584-1.584l0.305,1.646c1.414-0.292,3.218-0.269,4.924-0.89
	c1.463-0.549,3.023-1.085,4.486-1.402c1.293-0.256,2.707-0.207,4.242-0.426c1.5-0.208,3.256-0.793,4.56-2.365
	c0.756-0.951,1.256-2.134,1.523-3.389c0.22-1.207,0.305-2.463,0.305-3.694c0-1.621-0.146-3.133-0.256-4.304v-0.023
	c-0.927-6.912-4.511-13.105-6.534-19.042c-3.047-8.887-8.375-16.226-14.019-23.479c-6.681-8.679-12.971-17.347-20.114-25.905
	c-2.67-3.206-5.584-7.814-8.898-12.324c-3.304-4.523-7.071-8.936-11.63-11.874c-3.011-1.951-6.437-3.169-10.24-3.169h-0.037
	l-1.597,0.061h-0.037h-0.037c-2.438,0.244-4.51,1.292-6.461,2.39c-1.975,1.085-3.779,2.243-5.51,2.853
	c-4.132,1.5-8.302,2.462-12.629,3.328c-1.195,0.244-3.645,0.987-6.571,1.67c-2.901,0.683-6.266,1.304-8.741,1.304l-2.45-0.268
	l-0.488,1.597l0.951-1.378l-1.414-0.987l-0.256-0.926l-1.621,0.427h1.682v-0.024h-1.682l0.049,1.682l0.438-0.012l-0.024-1.67
	l-1.683,0.134l0.244,3.036l1.633-0.122l-1.512-0.756l-0.037,0.098l1.5,0.731l-1.39-0.939c-0.683,1.073-1.877,2.255-3.169,3.401
	c-1.256,1.183-2.67,2.353-3.816,3.608c-2.462,2.779-3.901,5.815-5.912,8.302l-0.037,0.037l0.037-0.037
	c-4.352,5.242-9.752,11.642-12.227,18.457c-3.072,8.399-5.132,17.761-5.132,27.099h1.682v-1.682h-0.244v1.682l0.951,1.365
	l0.208-0.121l-0.951-1.391l-1.39,0.963l0.512,0.707l1.365-0.95h-1.707v0.097v0.074v0.049c0.11,1.719,0.561,3.461,1,5.059
	c0.951,3.328,2.67,6.521,4.242,9.473c1.975,3.62,3.292,7.398,5.815,11.105c2.17,3.133,3.852,7.131,7.68,9.752
	c2.962,2.023,5.217,3.889,7.521,6.668c1.341,1.598,2.121,2.791,2.609,4.108c0.512,1.268,0.756,2.743,0.877,4.876
	c0.11,1.792,0.402,3.828,1.158,5.717l0.012,0.037c0.756,1.828,2.146,3.657,4.425,4.426l0.158,0.061l2.45,0.342l0.134,0.023h0.11
	c3.413-0.049,7.058-1.377,9.423-3.145l-1.012-1.329l0.988,1.353c1.792-1.353,2.962-3.218,3.876-5.131
	c0.877-1.963,1.487-3.963,2.036-5.67c1.122-3.681,1.268-7.667,1.658-11.275c0.305-2.926,0.731-6.083,0.731-9.301l-0.073-1.878
	l-1.658,0.062l0.134,1.67l0.463-0.049l-0.134-1.646l-1.682,0.049l0.061,1.877l1.683-0.084h-1.658c0,2.949-0.402,5.984-0.707,8.996
	l1.658,0.183l-1.658-0.207c-0.451,3.767-0.585,7.582-1.572,10.703c-0.524,1.755-1.109,3.633-1.902,5.303
	c-0.792,1.719-1.768,3.182-2.987,4.084c-1.658,1.304-5.107,2.56-7.631,2.536v1.67l0.244-1.646l-2.475-0.341l-0.22,1.646l0.524-1.598
	c-1.28-0.463-2.097-1.414-2.67-2.803c-0.597-1.414-0.841-3.194-0.926-4.791v-0.086v0.062c-0.134-2.292-0.451-4.108-1.109-5.79
	c-0.67-1.671-1.658-3.194-3.072-4.926c-2.487-3.011-4.998-5.096-8.144-7.205c-2.938-1.986-4.559-5.521-6.851-8.972
	c-2.304-3.34-3.584-6.937-5.668-10.874c-1.585-2.949-3.23-5.961-4.023-8.887l0.049,0.073l-0.049-0.098
	c-0.415-1.511-0.817-3.12-0.926-4.485l-1.634,0.121l0.22,1.67l0.244-0.023l-0.244-1.67l-0.951-1.391l-0.207,0.158l0.951,1.378
	l1.402-0.927l-0.512-0.743l-1.39,0.938h1.658v-0.073c0-8.887,2.011-17.944,4.974-26.112c2.17-6.095,7.388-12.374,11.715-17.615
	c2.353-2.865,3.791-5.852,5.912-8.241c0.927-1.024,2.255-2.182,3.584-3.377c1.329-1.182,2.67-2.487,3.621-3.925l-1.414-0.914
	l-0.926,1.39l0.219,0.134l0.926-1.39l-0.085-1.67l-0.244,0.012l0.085,1.658l1.658-0.134l-0.244-2.987l-1.633,0.146l0.061,1.646
	h0.158h0.159l0.061-1.646v-1.683h-0.012v3.353h0.012v-3.353h-0.012v3.353h0.012v-1.67l-1.609,0.438l0.354,1.28l0.134,0.476
	l1.329,1.182l0.17,0.134l0.183,0.109c1.244,0.622,2.67,0.805,4.291,0.829c2.938-0.024,6.363-0.707,9.387-1.39
	c3.011-0.731,5.595-1.5,6.522-1.694l-0.378-1.634l0.329,1.646c4.389-0.902,8.692-1.841,13.056-3.45
	c2.17-0.78,4.083-2.011,5.949-3.047c1.829-1.048,3.608-1.853,5.327-2.036l-0.17-1.658l0.061,1.658l1.609-0.073l-0.061-1.646v1.67
	c3.157,0,6.01,1.012,8.716,2.706c2.646,1.707,5.145,4.121,7.473,6.875c4.632,5.486,8.534,12.142,12.337,16.75
	c7.058,8.448,13.396,17.14,20.113,25.82c5.571,7.229,10.631,14.274,13.531,22.662l0.025,0.048l-0.025-0.072
	c2.17,6.303,5.596,12.324,6.389,18.492l1.633-0.23l-1.633,0.207c0.134,1.084,0.244,2.547,0.244,3.961
	c0,1.109-0.086,2.146-0.256,3.098v-0.049v0.072l-0.879,2.085c-0.792,0.914-1.608,1.194-2.779,1.39
	c-1.194,0.195-2.67,0.146-4.412,0.5c-1.707,0.316-3.365,0.914-4.9,1.486l0,0h-0.025c-0.719,0.281-1.877,0.415-3.096,0.574h-0.025
	l0,0c-1.268,0.194-2.62,0.354-3.925,1.158l-0.22,0.194l-1.414,1.841l-0.183,0.231l-0.109,0.28c-0.622,2.061-0.464,3.816-0.524,5.279
	c-0.073,1.523-0.256,2.596-1.328,3.9l-2.256,1.536c-0.89,0.256-1.975,0.378-3.084,0.378c-1.061,0-2.146-0.098-3.279-0.135
	c-7.326-0.341-14.348-2.291-21.479-4.096c-4.157-1.036-8.253-0.963-12.142-1.194c-3.938-0.244-7.57-0.756-11.032-2.828
	c-2.901-1.671-5.132-3.986-7.278-6.839c-1.926-2.597-4.486-5.571-5.437-8.18L212.504,301.41l0.707,1.547L212.504,301.41z"/>
<path fill="#4D4D4D" d="M212.48,299.264l1.682-0.109c-0.244-3.547-1-7.777-2.34-11.788c-1.377-4.06-3.292-7.899-5.998-10.739
	l-0.976-1l-1.523,1l-1.122,0.719l1.17,3.206l0.573,1.657l2.036-0.792l1.5-0.561l-1.207-3.522l-0.561-1.598l-1.816,0.646
	l-0.305,0.109l-0.415,0.378l-1.292,1.146l1.182,1.268c2.121,2.207,3.889,5.633,5.12,9.338c1.219,3.67,1.951,7.619,2.133,10.801
	l0.11,1.719l2.219-0.219l1.609-0.158l-0.085-1.621L212.48,299.264l-0.146-1.67l-0.463,0.049l0.146,1.67l1.683-0.121
	c-0.244-3.486-0.976-7.681-2.316-11.654c-1.353-3.999-3.279-7.826-5.912-10.582l-1.195,1.171l1.109,1.255l0.195-0.17l-1.122-1.268
	l0.573,1.597l0.219-0.073l-0.573-1.598l-1.573,0.562l0.683,1.962l1.597-0.548l-0.622-1.561l-0.426,0.171l0.622,1.572l1.597-0.561
	l-0.708-1.975l-1.597,0.536l0.914,1.438l0.378-0.256l-0.914-1.427l-1.195,1.194c2.17,2.256,3.962,5.73,5.218,9.448
	c1.243,3.742,1.975,7.716,2.17,10.923L212.48,299.264l-0.146-1.67L212.48,299.264z"/>
<g>
	<path class="icon-addBook__hand" fill="#D0D0D0" stroke="#4D4D4D" stroke-width="0.28" d="M151.284,277.504c-1.134,2.45-4.535,4.669-6.351,6.717
		c-2.853,3.304-7.692,3.998-11.947,2.609c-6.814-2.17-3.535-14.909-2.792-20.09c0.573-3.791,1.414-7.193,1.633-11.228
		c0.22-3.876,0.598-7.948,1.414-11.642c0.427-1.877-0.085-3.365,0.195-5.315c0.292-2.061,1.183-3.365,2.133-5.291
		c1.768-3.706,2.048-7.583,3.535-11.228c3.048-7.424,3.73-16.067,6.059-23.759c2.255-7.498,4.998-14.738,9.362-21.285
		c2.475-3.694,5.62-7.059,9.07-9.838c13.385-10.63,31.391-14.604,47.384-19.553c16.079-4.986,32.451-11.386,49.335-12.715
		c16.823-1.329,32.609,4.06,47.519,11.435c15.519,7.668,30.415,16.737,45.52,25.234c2.815,1.597,5.473,3.06,8.094,5.071
		c4.511,3.499,9.424,6.412,14.287,9.521l0.122,1.219c-1.048,1.061-2.084,2.255-3.12,3.608c-7.047,8.936-11.667,18.822-14.507,29.72
		c-5.632,21.272-8.509,48.165-5.12,70.205c1.268,8.302,2.975,16.579,4.974,24.563l-1.194,0.391
		c-2.426-0.098-4.828-0.317-7.107-1.121c-4.047-1.342-7.375-2.695-11.679-3.341c-3.706-0.536-7.375-1.22-10.971-1.804
		c-8.095-1.329-15.738-3.901-23.309-6.584c-7.632-2.754-13.422-8.74-20.505-12.458c-9.959-5.193-18.688-12.653-29.805-15.36
		c-10.911-2.633-23.71-0.719-34.67,0.244c-4.583,0.414-8.96,0.938-13.251,2.535c-4.132,1.573-8.314,1.805-12.654,2.475
		c-17.14,2.572-34.792,1.658-49.676-8.143c-5.839-3.828-9.045-9.752-8.034-16.774c1.134-7.558,4.828-12.093,12.593-14.165
		c3.803-1.012,7.814-3.34,11.3-5.474c1.707-1.048,3.23-2.499,4.974-3.462c2.036-1.122,4.474-1.597,6.595-2.646
		c3.682-1.841,7.705-3.036,11.35-4.986c2.853-1.536,5.376-3.523,8.362-4.901c2.17-0.975,4.157-2.121,6.388-2.926
		c2.694-0.963,5.327-1.219,8.229-1.39c6.741-0.378,13.458-2.084,20.078-2.986c7.302-0.988,14.628-1.695,21.943-2.45
		c5.132-0.5,9.972-2.402,14.933-3.45c2.098-0.439,4.889-0.378,6.803-1.146c1.89-0.756,3.535-2.243,5.279-3.279
		c4.193-2.426,7.058-6.071,11.482-8.18c1.865-0.877,3.816-1.633,5.779-2.292c3.193-1.024,6.119-1.244,9.361-2.097"/>
</g>
<path fill="#4D4D4D" d="M262.473,151.187c-1.463,3.742-1.828,7.802-2.23,11.69c-0.536,4.974-2.158,9.898-3.219,14.836
	c-0.95,4.547-1.499,9.24-1.986,13.824c-0.378,3.584-1.354,6.949-1.975,10.545c-0.28,1.926-0.841,4.279-0.707,6.205"/>
<path fill="#FFFFFF" d="M279.26,198.766l2.193-1.5l2.219-2.036c0.622-0.89,0.951-1.902,1.171-2.938l0.536-2.987
	c0.329-1.975,0.391-4.364,0.707-6.619c0.342-2.268,0.927-4.401,2.158-5.778l-0.72-0.609c-1.414,1.646-2.023,3.901-2.341,6.253
	c-0.328,2.329-0.414,4.73-0.73,6.595l-0.488,2.962l-1.072,2.584l-1.914,1.768l-2.341,1.572L279.26,198.766z"/>
<path fill="#4D4D4D" d="M278.491,169.545c0.073,7.205-1.987,14.434-3.681,21.272c-0.805,3.45-2,8.546-4.084,11.276"/>
<path fill="#4D4D4D" d="M242.505,276.821l-0.792,1.476c0.415,0.243,1.658,0.854,2.718,1.597l1.305,0.987l0.244,0.28l0.597-0.366
	h-0.683l0.085,0.366l0.597-0.366h-0.683h1.122l-1.061-0.402l-0.061,0.402h1.122l-1.061-0.402l1.597,0.574l-0.219-1.646l-4.827,0.634
	h-0.049l-0.061,0.024c-3.938,0.805-7.278,2.986-10.24,3.219l0.159,1.658l0.622,1.572c3.475-1.354,7.887-3.035,11.52-3.012
	c1.39,0,2.584,0.232,3.621,0.732c3.669,1.804,6.729,3.145,10.728,4.145c4.315,1.109,8.106,2.584,11.837,4.876
	c3.072,1.901,4.315,4.278,6.473,7.667c1.293,2,2.475,4.072,3.256,6.242c0.098,0.158,0.365,1.779,0.694,3.157l0.622,2.06l0.549,0.988
	l1.657,0.828h1.853l-0.414-4.083v-0.024v-0.049c-0.73-5.107-2.913-10.24-6.741-14.08c-3.304-3.304-6.753-6.766-11.483-8.74
	c-4.461-1.793-9.045-2.854-13.178-4.4c-1.816-0.684-3.182-2.073-4.84-3.792l-0.073-0.073l-2.426-1.986l-0.109-0.098l-0.11-0.074
	c-1.487-0.828-2.901-1.097-3.657-1.463l-0.683,1.561v1.67h0.463v-1.67h-1.683v0.013v0.987l0.915,0.488L242.505,276.821h1.658v-0.024
	v-1.682h-2.121l-0.707,3.205c1.329,0.573,2.56,0.817,3.364,1.268l0.817-1.426l-1.061,1.293l2.341,1.926l1.061-1.268l-1.195,1.17
	c1.633,1.682,3.389,3.547,6.059,4.571c4.438,1.646,8.996,2.683,13.093,4.364c3.925,1.621,7.106,4.682,10.386,7.973
	c3.207,3.23,5.156,7.691,5.791,12.203l1.67-0.244l-1.67,0.195l0.256,2.23l1.658-0.184v-1.682v1.195l0.951-0.756l-0.951-0.439v1.195
	l0.951-0.756l-0.086,0.072l0.109-0.072h-0.023l-0.086,0.072l0.109-0.072c-0.134-0.195-0.463-1.317-0.683-2.414
	c-0.256-1.122-0.378-2.098-0.671-2.854c-0.901-2.486-2.193-4.777-3.584-6.911c-2.035-3.134-3.633-6.278-7.533-8.667
	c-4.035-2.512-8.191-4.121-12.775-5.291c-3.767-0.951-6.473-2.109-10.057-3.901c-1.634-0.792-3.389-1.097-5.132-1.097
	c-4.559,0.023-9.24,1.914-12.715,3.242l0.756,3.268c4.121-0.464,7.497-2.756,10.582-3.292L242.7,281.6l0.244,1.646l4.828-0.622
	l1.012-0.134l0.329-0.963l0.134-0.744c-0.061-1.256-0.683-1.768-1.17-2.316c-1.585-1.486-4.132-2.768-4.827-3.133L242.505,276.821
	h1.658H242.505z"/>
<path fill="#FFFFFF" d="M180.846,224.11c1.377-3.743,3.23-5.827,5.51-8.96c2.072-2.865,3.206-6.242,0.415-9.082
	c5.693,8.826,17.749,3.913,26.526,5.546c-7.692-1.182-14.019,0.061-20.529,3.962c-2.121,1.268-4.596,2.402-6.705,3.913
	c-1.768,1.28-3.243,3.048-4.999,4.413L180.846,224.11z"/>
<g>
	<path class="icon-addBook__handPen" fill="#929292" stroke="#000000" stroke-width="0.28" d="M215.296,214.211l72.569-107.435l0.232-0.439
		c2.377-3.096,5.01-6.095,7.046-9.472c1.804-3.06,4.864-5.974,6.278-9.216c0.779-1.865,0.707-3.353,2.121-5.059
		c1.39-1.682,2.84-3.206,4.022-5.083c2.023-3.389,3.584-7.083,5.656-10.423c3.682-6.071,7.948-12.604,8.692-19.761
		c0.378-4.083-2.158-5.193-3.853-8.302c-1.755-3.182-4.705-4.096-7.509-5.937c-1.195-0.78-2.975-3.876-4.315-4.011
		c-1.415-0.122-2.085,2.182-2.792,3.169c-2.609,3.401-4.328,7.107-6.705,10.679c-2.584,3.864-4.645,8.07-7.363,11.751
		c-2.511,3.376-4.596,6.753-6.326,10.398c-1.487,3.145-4.315,5.51-5.9,8.704c-1.841,3.572-4.779,6.583-6.314,10.179
		c-2.938,6.839-8.192,13.056-11.983,19.432c-4.023,6.79-7.716,13.543-12.044,20.139c-3.499,5.266-5.974,12.653-10.667,16.944
		l-0.695,1.158c-3.621,10.289-11.812,19.029-17.518,28.282c-6.949,11.337-14.556,22.235-20.37,34.109
		c-3.255,6.57-7.96,12.434-12.788,18.237l-0.158-0.098l1.548-0.451c4.596-1.548,9.289-2.584,14.068-3.645
		c2.584-0.61,4.718-2.231,7.278-2.792c1.975-0.427,4.669-0.39,6.461-1.268"/>
	<path class="icon-addBook__handPen" fill="#929292" stroke="#000000" stroke-width="0.28" d="M172.958,282.002c-5.254,8.961-9.838,17.871-15.762,26.941
		c-3.389,5.217-6.278,11.117-13.471,9.923c-4.108-0.694-8.387-4.657-10.215-8.277c-2.658-5.241,1.085-7.546,4.047-11.897
		c3.536-5.035,6.632-10.362,9.777-15.665c0.768-1.341,1.585-2.694,2.39-4.035c1.061-1.768,0.975-2.316,2.913-1.621
		c2.901,1.108,5.888,1.804,8.899,2.45c1.78,0.391,3.535,0.865,5.352,1.268c1.804,0.378,4.083,0.354,5.839,0.902h0.231V282.002z"/>
</g>
<g>
	<path class="icon-addBook__penCap" fill="#C8C8C8" stroke="#000000" stroke-width="0.28" d="M334.836,25.527c1.816,2.658,3.401,6.339,3.401,9.618
		c0,2.975-1.927,4.84-3.243,7.302c-1.097,2.023-2.146,3.999-3.23,6.01c-2.097,3.828-4.169,7.631-6.352,11.386
		c-3.962,6.985-8.204,13.836-12.568,20.553c-10.032,15.47-20.162,31.147-31.78,45.483c-1.987,2.462-8.362,11.947-12.471,11.264
		c-3.925-0.694-0.256-9.545,0.427-11.52c6.705-18.505,19.103-34.499,31.146-49.774c10.618-13.422,18.14-26.868,23.138-43.276
		c0.549-1.804,2.072-3.925,1.779-5.851c-0.365-2.67-3.206-4.572-3.535-7.363c-0.365-2.914,2.963-3.693,5.169-2.597
		C329.631,18.212,333.044,22.881,334.836,25.527z"/>
</g>
<path fill="#F2F2F2" stroke="#4D4D4D" stroke-width="0.28" d="M147.846,241.75c3.767-0.683,7.521-1,11.24-1.78
	c3.669-0.78,7.936-0.281,9.911,3.328c0.841,1.524,0.902,3.938,1.255,5.608c0.427,1.962,1.548,3.547,2.146,5.425
	c1.109,3.303,1.731,7.863-0.683,10.789c-2.657,3.12-7.058,3.62-10.801,4.534c-3.742,0.878-7.363,1.67-11.239,1.865
	c-7.119,0.329-13.666-4.729-14.446-11.923c-0.415-3.632-0.354-8.521,1.658-11.642c2.194-3.352,8.765-6.132,12.544-6.461
	L147.846,241.75z"/>
<path fill="none" stroke="#666666" stroke-width="16" d="M42.935,144.03v346.722h346.721"/>
<g>
	<path fill="#E6E6E6" stroke="#4D4D4D" stroke-width="0.28" d="M245.711,318.964c5.912,4.596,12.336,5.254,19.712,5.961
		c1.853,0.208,3.876,0.257,5.729,0.341c1.902,0.086,4.768,0.598,4.45-1.268l-2.548-3.438c-1-1.486-1.731-3.047-2.548-4.535
		c-1.499-2.949-2.157-4.254-5.304-5.339c-2.877-1.024-5.766-1.061-8.947-0.878c-5.668,0.281-12.8,1.828-10.082,9.143h-0.463V318.964
		z"/>
</g>
</svg>
