<?xml version="1.0" encoding="utf-8"?>
<!-- Generator: Adobe Illustrator 16.0.4, SVG Export Plug-In . SVG Version: 6.00 Build 0)  -->
<!DOCTYPE svg PUBLIC "-//W3C//DTD SVG 1.1//EN" "http://www.w3.org/Graphics/SVG/1.1/DTD/svg11.dtd">
<svg version="1.1" id="图层_1" xmlns="http://www.w3.org/2000/svg" xmlns:xlink="http://www.w3.org/1999/xlink" x="0px" y="0px"
	 width="32px" height="32px" viewBox="0 0 32 32" enable-background="new 0 0 32 32" xml:space="preserve">
<g>
	<path d="M5.541,17.629l-1.4,4.241H2.339L6.92,8.387h2.101l4.601,13.483h-1.86l-1.44-4.241H5.541z M9.961,16.269l-1.341-3.881
		c-0.28-0.88-0.479-1.681-0.68-2.46H7.88c-0.18,0.78-0.399,1.62-0.66,2.44L5.9,16.269H9.961z"/>
	<path d="M26.963,15.949c-0.1-1.88-0.221-4.161-0.221-5.821h-0.039c-0.48,1.561-1.021,3.261-1.701,5.121l-2.381,6.542h-1.32
		l-2.199-6.421c-0.641-1.92-1.162-3.641-1.541-5.241H17.52c-0.039,1.681-0.139,3.921-0.26,5.961L16.9,21.87h-1.66l0.94-13.483h2.22
		l2.301,6.521c0.561,1.66,1,3.14,1.359,4.541h0.041c0.359-1.359,0.84-2.84,1.439-4.541l2.4-6.521h2.221l0.84,13.483h-1.719
		L26.963,15.949z"/>
</g>
</svg>
