<?xml version="1.0" encoding="UTF-8"?>
<svg width="24px" height="24px" viewBox="0 0 24 24" version="1.1" xmlns="http://www.w3.org/2000/svg" xmlns:xlink="http://www.w3.org/1999/xlink">
    <g stroke="none" stroke-width="1" fill="none" fill-rule="evenodd">
        <path d="M5.72617879,18.029208 C5.55923221,17.8760302 5.36819025,17.7589955 5.15477401,17.6849882 C4.93791557,17.610981 4.71073053,17.5748379 4.4818244,17.5748379 C4.38716397,17.5748379 4.30283013,17.5782801 4.22710178,17.5903278 C4.14793124,17.5972122 4.04638641,17.6264709 3.91730401,17.6729405 C3.91730401,17.2478291 3.96549477,16.8072279 4.07220289,16.3545789 C4.17374772,15.9002088 4.29938793,15.4613286 4.45084462,15.0534282 C4.60058021,14.6438067 4.76752679,14.2668861 4.94307886,13.9278297 C5.12207313,13.5870521 5.27180872,13.3202818 5.41293882,13.1223554 L4.40093276,12.3186023 C3.57308426,13.4235477 2.9672575,14.5147243 2.58173138,15.58869 C2.19448416,16.6626556 2,17.6712194 2,18.6057761 C2,19.0274453 2.04646967,19.4250191 2.14801449,19.7967764 C2.24611712,20.1685337 2.39241051,20.4955425 2.58173138,20.765755 C2.77449444,21.0428519 3.01716936,21.2579892 3.30631395,21.411167 C3.59890074,21.567787 3.93967829,21.6452365 4.33036771,21.6452365 C4.63328109,21.6452365 4.90177249,21.5918824 5.13756302,21.4696844 C5.37679575,21.3543708 5.5816065,21.1925875 5.74855308,20.99294 C5.92066295,20.7984559 6.05662975,20.5661075 6.14440579,20.3045005 C6.23734512,20.0463357 6.28725698,19.7657966 6.28725698,19.4749309 C6.28725698,19.1375956 6.23734512,18.8518932 6.1340792,18.6057761 C6.02564997,18.3820332 5.89312537,18.185828 5.72617879,18.029208 M10.9720878,18.029208 C10.8034201,17.8760302 10.6123781,17.7589955 10.3989619,17.6849882 C10.1821035,17.610981 9.95663952,17.5748379 9.72601229,17.5748379 C9.63135185,17.5748379 9.54701802,17.5782801 9.46956857,17.5903278 C9.39039803,17.5972122 9.2905743,17.6264709 9.1597708,17.6729405 C9.1597708,17.2478291 9.20968266,16.8072279 9.31294859,16.3545789 C9.41449341,15.9002088 9.54357582,15.4613286 9.69331141,15.0534282 C9.8482103,14.6438067 10.0117147,14.2668861 10.1872668,13.9278297 C10.3645399,13.5870521 10.5159966,13.3202818 10.6554056,13.1223554 L9.64512064,12.3186023 C8.82071434,13.4235477 8.21316649,14.5147243 7.82591927,15.58869 C7.43350875,16.6626556 7.24246679,17.6712194 7.24246679,18.6057761 C7.24246679,19.0274453 7.29409975,19.4250191 7.38876018,19.7967764 C7.49202611,20.1685337 7.6383195,20.4955425 7.82936146,20.765755 C8.01868233,21.0428519 8.26307835,21.2579892 8.55222294,21.411167 C8.83964643,21.567787 9.18558728,21.6452365 9.57627669,21.6452365 C9.87746898,21.6452365 10.1442393,21.5918824 10.3800298,21.4696844 C10.6209836,21.3543708 10.8240733,21.1925875 10.9944621,20.99294 C11.1648508,20.7984559 11.2939332,20.5661075 11.3885937,20.3045005 C11.4849752,20.0463357 11.5348871,19.7657966 11.5348871,19.4749309 C11.5348871,19.1375956 11.4832541,18.8518932 11.3782671,18.6057761 C11.2698379,18.3820332 11.1390344,18.185828 10.9720878,18.029208 M16.1860839,3.88292366 C15.9984841,3.60582676 15.752367,3.38724722 15.4632224,3.23751163 C15.1740778,3.07917054 14.8350214,3 14.4374476,3 C14.1414186,3 13.8746483,3.06195955 13.6354156,3.17899427 C13.3961828,3.29947118 13.1930932,3.45609117 13.0209833,3.65229643 C12.8505945,3.85194388 12.7180699,4.08085001 12.6251306,4.34417812 C12.5321913,4.60406403 12.4874427,4.88288203 12.4874427,5.17374772 C12.4874427,5.51624637 12.5356335,5.80194876 12.6388994,6.04290259 C12.7404442,6.28213532 12.8746899,6.48006167 13.0381943,6.63151836 C13.206862,6.78813835 13.3979039,6.90345196 13.6147624,6.97918031 C13.8281786,7.05318755 14.0536426,7.08933063 14.2859909,7.08933063 C14.3772091,7.08933063 14.4667063,7.08588843 14.5372713,7.07728294 C14.6181629,7.06351415 14.7214289,7.03941876 14.8505113,6.9929491 C14.8505113,7.41461829 14.8005994,7.85521957 14.6956124,8.30958964 C14.5906254,8.76395971 14.4684274,9.20283989 14.3169707,9.6107403 C14.165514,10.0220829 14.0002885,10.3972824 13.8230153,10.73806 C13.6474632,11.0788375 13.4925644,11.34905 13.3514343,11.5418131 L14.3634403,12.3455662 C15.1930099,11.2388997 15.7988367,10.1477231 16.1860839,9.08064188 C16.5733311,8.00323406 16.7678153,6.9963913 16.7678153,6.05839248 C16.7678153,5.63672328 16.7179034,5.23742837 16.6198008,4.86739214 C16.5251404,4.47842383 16.3805681,4.15829946 16.1860839,3.88292366 M21.8571043,4.84846006 C21.7555595,4.47670273 21.6109872,4.15657836 21.4199452,3.88120256 C21.2289032,3.60582676 20.9862283,3.38724722 20.6970837,3.23751163 C20.4079391,3.07917054 20.0688827,3 19.6713089,3 C19.3752799,3 19.1033463,3.06195955 18.8675558,3.17899427 C18.6248808,3.29430789 18.4235123,3.45437007 18.2531235,3.65057533 C18.0810136,3.85022278 17.9502101,4.07912892 17.8572708,4.34245702 C17.7660526,4.60578513 17.7161407,4.88460313 17.7161407,5.17546882 C17.7161407,5.51452527 17.7660526,5.80366986 17.8710396,6.04462369 C17.9725844,6.28385641 18.1068301,6.48178277 18.2703345,6.63323946 C18.4390022,6.78985945 18.6334863,6.90345196 18.8451815,6.98090141 C19.063761,7.05490865 19.2892249,7.09105173 19.5181311,7.09105173 C19.6127915,7.09105173 19.6988465,7.08760953 19.7728537,7.07900404 C19.8537453,7.06523525 19.951848,7.04113986 20.0792093,6.9946702 C20.0792093,7.41633939 20.0361818,7.85694067 19.9277526,8.31131074 C19.8262078,8.76568081 19.6988465,9.20283989 19.550832,9.6107403 C19.3959331,10.0220829 19.2307076,10.3972824 19.0568766,10.73806 C18.8778823,11.0788375 18.7281468,11.3473289 18.5904589,11.5418131 L19.5990227,12.3455662 C20.4285923,11.2388997 21.0309769,10.1477231 21.4182241,9.08064188 C21.8054713,8.00323406 21.9999555,6.9963913 21.9999555,6.05839248 C22.0016766,5.6177912 21.9534858,5.22021739 21.8571043,4.84846006" fill="currentColor" fill-rule="nonzero"></path>
    </g>
</svg>
