<?xml version="1.0" encoding="UTF-8"?>
<svg width="24px" height="24px" viewBox="0 0 24 24" version="1.1" xmlns="http://www.w3.org/2000/svg" xmlns:xlink="http://www.w3.org/1999/xlink">
    <g stroke="none" stroke-width="1" fill="none" fill-rule="evenodd">
        <path d="M7.15871068,17.9827107 C6.95725825,18.1841631 6.64354175,18.1841631 6.44208932,17.9827107 L0.617289322,12.1579107 C0.415836893,11.9564582 0.415836893,11.6427418 0.617289322,11.4412893 L6.44208932,5.61648932 C6.64354175,5.41503689 6.95725825,5.41503689 7.15871068,5.61648932 L7.78351068,6.24128932 C7.98496311,6.44274175 7.98496311,6.75645825 7.78351068,6.95791068 L2.94142136,11.8 L7.78351068,16.6420893 C7.98496311,16.8435418 7.98496311,17.1572582 7.78351068,17.3587107 L7.15871068,17.9827107 Z" fill="currentColor" fill-rule="nonzero"></path>
        <path d="M16.2172893,6.95711068 C16.0158369,6.75565825 16.0158369,6.44194175 16.2172893,6.24048932 L16.8420893,5.61568932 C17.0435418,5.41423689 17.3572582,5.41423689 17.5587107,5.61568932 L23.3835107,11.4404893 C23.5849631,11.6419418 23.5849631,11.9556582 23.4128,12.0864 L23.3835107,12.1579107 L17.5587107,17.9827107 C17.3572582,18.1841631 17.0435418,18.1841631 16.8420893,17.9827107 L16.2172893,17.3579107 C16.0158369,17.1564582 16.0158369,16.8427418 16.2172893,16.6412893 L21.0593786,11.7992 L16.2172893,6.95711068 Z" fill="currentColor"></path>
        <path d="M10.7238535,21.1294476 C10.6195729,21.5265246 10.2237737,21.774803 9.85857738,21.6473532 L9.07794474,21.4080263 C8.70865165,21.2871147 8.5046017,20.8742775 8.60565808,20.4894855 L13.2683321,2.46975239 C13.3726127,2.07267542 13.7684119,1.82439702 14.1336082,1.95184684 L14.9142409,2.19117367 C15.2833464,2.31202394 15.4873766,2.72450327 15.3864076,3.11017787 L10.7238535,21.1294476 Z" fill="currentColor" fill-rule="nonzero"></path>
    </g>
</svg>
