<svg class="icon-contact" fill="#333333" viewBox="0 0 64 64">
                <path d="M62.727,50.869c0,2.295,0,11.131,0,11.131h-9.951c0,0,0-3.018,0-5.613c0-2.662-0.92-3.422-4.697-7.564
                    c-3.773-4.184-9.596-5.664-10.357-7.35c-0.76-1.736-1.33-8.68,1.131-10.412c2.453-1.691,3.562-7.154,3.764-14.144
                    c0.064-1.741-0.201-3.478-0.711-5.158c3.367-1.021,6.84-1.591,8.875-0.415c5.113,2.866,6.078,10.216,7.045,14.403
                    c0.965,4.143-0.967,5.724,2.201,5.724c3.211,0,2.662,2.703,2.662,3.923c0,1.176,0,1.176,0,1.176H52.621c0,0-0.305,3.982-0.15,4.492
                    c0.15,0.465,4.703,3.322,7.654,5.008C63.088,47.762,62.727,48.521,62.727,50.869z M32.198,41.477
                    c-0.76-1.734-1.32-8.674,1.126-10.416c2.457-1.681,3.566-7.149,3.777-14.139c0.049-1.07-0.051-2.196-0.26-3.271
                    c-0.967-5.104-4.284-9.856-8.876-11.232c-0.72-0.205-1.431-0.345-2.201-0.405c-6.784-0.36-14.339,6.634-14.339,13.983
                    c0,7.354,0.511,11.798,2.451,14.904c1.632,2.501,2.652,2.251,2.857,6.035c0.205,3.771-0.966,6.018-2.857,7.344
                    c-1.836,1.33-12.617,7.199-12.617,9.656s0,8.064,0,8.064h5.514h16.59h23.944c0,0,0-3.018,0-5.613c0-2.662-0.965-3.422-4.752-7.564
                    C38.781,44.639,32.968,43.158,32.198,41.477z"/>
            </svg>
