<svg class="icon-creditCard" fill="#333333" viewBox="0 0 64 64">
                <path d="M50.877,24.063l0.361-0.986h2.285l0.195,0.986h1.66l-1.416-6.88h-1.914l-2.993,6.88H50.877z M52.752,19.17
                    l0.503,2.593h-1.509L52.752,19.17z"/>
                <path d="M56.004,10.401H8.001C4.7,10.401,2,13.096,2,16.397v31.201C2,50.898,4.7,53.6,8.001,53.6h48.003
                    c3.301,0,5.996-2.701,5.996-6.002V16.397C62,13.096,59.305,10.401,56.004,10.401z M8.001,12.803h48.003
                    c1.997,0,3.594,1.597,3.594,3.604V36.51H4.402V16.407C4.402,14.4,6.004,12.803,8.001,12.803z M56.004,51.201H8.001
                    c-1.997,0-3.599-1.592-3.599-3.598v-3.76h55.195v3.76C59.598,49.605,58.001,51.201,56.004,51.201z"/>
                <path d="M46.062,22.828c-1.055,0-1.738-0.405-1.738-0.405l-0.327,1.465c0,0,0.684,0.391,1.987,0.391
                    c1.309,0,3.115-1.006,3.115-2.451c0-1.753-2.52-1.895-2.52-2.666c0-0.4,0.312-0.703,1.216-0.703c0.591,0,1.26,0.449,1.26,0.449
                    l0.308-1.509c0,0-0.869-0.347-1.719-0.347c-1.919,0-2.9,0.942-2.9,2.148c0,2.168,2.52,1.88,2.52,2.993
                    C47.264,22.378,47.117,22.828,46.062,22.828z"/>
                <path d="M37.581,21.006l-0.62-3.125c0,0-0.264-0.684-0.986-0.684h-2.812C33.157,17.203,36.741,18.311,37.581,21.006
                    z"/>
                <path d="M35.164,18.497l1.475,5.566h2.007l2.778-6.88h-1.948l-1.665,4.907c0,0-0.107-0.415-0.156-0.674
                    C36.707,19.288,35.164,18.497,35.164,18.497z"/>
                <polygon points="42.889,24.063 43.997,17.183 42.142,17.183 41.053,24.063 	"/>
            </svg>
