<?xml version="1.0" encoding="utf-8"?>
<!-- Generator: Adobe Illustrator 16.0.4, SVG Export Plug-In . SVG Version: 6.00 Build 0)  -->
<!DOCTYPE svg PUBLIC "-//W3C//DTD SVG 1.1//EN" "http://www.w3.org/Graphics/SVG/1.1/DTD/svg11.dtd">
<svg version="1.1" id="图层_1" xmlns="http://www.w3.org/2000/svg" xmlns:xlink="http://www.w3.org/1999/xlink" x="0px" y="0px"
	 width="512px" height="512px" viewBox="0 0 512 512" enable-background="new 0 0 512 512" xml:space="preserve">
<g id="stack">
	<polyline fill="none" stroke="#000000" stroke-width="12" stroke-miterlimit="10" points="319.122,458.897 458.586,322.796 
		458.586,323.454 192.921,323.454 192.921,322.796 52.489,458.438 52.489,459.098 320.026,459.098 	"/>
	<polyline fill="#FFFFFF" points="319.122,401.034 458.586,264.932 458.586,265.569 192.921,265.569 192.921,264.932 
		52.489,400.595 52.489,401.231 320.026,401.231 	"/>
	<polyline fill="none" stroke="#000000" stroke-width="12" stroke-miterlimit="10" points="319.122,343.188 458.586,207.086 
		458.586,207.725 192.921,207.725 192.921,207.086 52.489,342.689 52.489,343.327 320.026,343.327 	"/>
	<polyline fill="#FFFFFF" points="319.122,285.283 458.586,149.182 458.586,149.82 192.921,149.82 192.921,149.182 52.489,284.805 
		52.489,285.483 320.026,285.483 	"/>
	<polyline fill="none" stroke="#000000" stroke-width="12" stroke-miterlimit="10" points="319.122,227.418 458.586,91.317 
		458.586,91.936 192.921,91.936 192.921,91.317 52.489,226.959 52.489,227.618 320.026,227.618 	"/>
</g>
</svg>
