<?xml version="1.0" encoding="utf-8"?>
<!-- Generator: Adobe Illustrator 16.0.4, SVG Export Plug-In . SVG Version: 6.00 Build 0)  -->
<!DOCTYPE svg PUBLIC "-//W3C//DTD SVG 1.1//EN" "http://www.w3.org/Graphics/SVG/1.1/DTD/svg11.dtd">
<svg version="1.1" id="图层_1" xmlns="http://www.w3.org/2000/svg" xmlns:xlink="http://www.w3.org/1999/xlink" x="0px" y="0px"
	 width="1920px" height="900px" viewBox="0 0 1920 900" enable-background="new 0 0 1920 900" xml:space="preserve">
<g>
	<polygon points="1910,326.157 1910,272.375 1673.043,272.375 1673.043,326.157 1762.331,326.157 1762.331,651.432 
		1820.954,651.432 1820.954,326.157 	"/>
	<polygon points="203.947,272.375 10,272.375 10,651.432 68.606,651.432 68.606,470.984 199.159,470.984 199.159,417.227 
		68.606,417.227 68.606,326.157 203.947,326.157 	"/>
	<polygon points="775.647,272.375 561.343,272.375 561.343,651.432 775.647,651.432 775.647,597.664 619.922,597.664 
		619.922,470.984 771.112,470.984 771.112,417.227 619.922,417.227 619.922,326.157 775.647,326.157 	"/>
	<path d="M1172.007,505.602l60.385-128.89l57.599,128.89H1172.007z M1354.646,651.432h64.137l-185.379-402.864l-192.181,402.864
		h63.125l43.269-92.061h166.271L1354.646,651.432z"/>
</g>
</svg>
