<svg class="icon-feat" viewBox="0 0 433 41">
            <path class="multiply" fill="#FF0" d="M7,7 h27.5 c3.665-0.91,6.553-3.59,7.55-7 h-42.05 v38 h7 v-16 h21.5 c3.665-0.91,6.553-3.59,7.55-7 h-29.05z M134,7 h26.65 c3.665-0.91,6.553-3.59,7.55-7 h-41.2 v38 h35.65 c3.665-0.91,6.553-3.59,7.55-7 h-36.2 v-9 h20.05 c3.665-0.91,6.553-3.59,7.55-7 h-27.6 z M255.2,0 c1.014,3.407,3.957,6.09,7.691,7 h30 v31 h7 v-38 z M257,14 v24 h7 v-17 h20.5 c3.665-0.91,6.553-3.59,7.55-7z M402,7 v31 h7 v-31 h13.6 c3.665-0.91,6.553-3.59,7.55-7 h-48.7 c1.016,3.408,3.957,6.092,7.691,7z"></path>
            <path class="multiply" fill="#0FF" d="M8,8 h27.5 c3.665-0.91,6.553-3.59,7.55-7 h-42.05 v38 h7 v-16 h21.5 c3.665-0.91,6.553-3.59,7.55-7 h-29.05z M135,8 h26.65 c3.665-0.91,6.553-3.59,7.55-7 h-41.2 v38 h35.65 c3.665-0.91,6.553-3.59,7.55-7 h-36.2 v-9 h20.05 c3.665-0.91,6.553-3.59,7.55-7 h-27.6 z M256.2,1 c1.014,3.407,3.957,6.09,7.691,7 h30 v31 h7 v-38 z M258,15 v24 h7 v-17 h20.5 c3.665-0.91,6.553-3.59,7.55-7z M403,8 v31 h7 v-31 h13.6 c3.665-0.91,6.553-3.59,7.55-7 h-48.7 c1.016,3.408,3.957,6.092,7.691,7z"></path>
            <path class="multiply" fill="#F0F" d="M9,9 h27.5 c3.665-0.91,6.553-3.59,7.55-7 h-42.05 v38 h7 v-16 h21.5 c3.665-0.91,6.553-3.59,7.55-7 h-29.05z M136,9 h26.65 c3.665-0.91,6.553-3.59,7.55-7 h-41.2 v38 h35.65 c3.665-0.91,6.553-3.59,7.55-7 h-36.2 v-9 h20.05 c3.665-0.91,6.553-3.59,7.55-7 h-27.6 z M257.2,2 c1.014,3.407,3.957,6.09,7.691,7 h30 v31 h7 v-38 z M259,16 v24 h7 v-17 h20.5 c3.665-0.91,6.553-3.59,7.55-7z M404,9 v31 h7 v-31 h13.6 c3.665-0.91,6.553-3.59,7.55-7 h-48.7 c1.016,3.408,3.957,6.092,7.691,7z"></path>
            </svg>
