<svg class="icon-global" fill="#333333" viewBox="0 0 64 64" >
                <path d="M51.315,41.666c-2.812,0.24-6.891-4.143-8.756-5.163c-1.854-0.959-6.12-0.479-8.814-0.598
                    c-2.699-0.119-7.194-3.239-7.741-5.278c-1.259-4.798,3.056-6.663,4.686-9.362c1.562-2.693,3.534-5.279,6.122-7.257
                    c2.576-1.979-0.118-6.111-0.841-7.256c-0.664-1.081-5.281-0.361-9.118-0.601c-1.366-0.06-2.459-1.32-3.294-2.885
                    c2.7-0.834,5.521-1.259,8.454-1.259C48.562,2.007,62,15.442,62,31.996c0,9.776-4.681,18.417-11.874,23.815
                    c1.922-2.584,3.708-5.217,4.129-6.417C55.875,44.305,54.132,41.427,51.315,41.666z M26.248,42.448
                    c-1.502-3.481-4.081-7.918-11.342-9.237c-7.253-1.374-4.554-8.098-4.686-12.776c-0.108-4.683,6.55-11.694,7.613-13.92
                    c0.177-0.298,0.362-0.717,0.538-1.198C8.658,10.234,2,20.377,2,32.005c0,16.557,13.437,29.987,29.988,29.987
                    c5.339,0,10.376-1.373,14.69-3.838c-8.394,0.18-15.832-2.883-18.224-4.438C25.223,51.628,27.683,45.865,26.248,42.448z"/>
            </svg>
