<?xml version="1.0" encoding="utf-8"?>
<!-- Generator: Adobe Illustrator 16.0.4, SVG Export Plug-In . SVG Version: 6.00 Build 0)  -->
<!DOCTYPE svg PUBLIC "-//W3C//DTD SVG 1.1//EN" "http://www.w3.org/Graphics/SVG/1.1/DTD/svg11.dtd">
<svg version="1.1" id="Capa_1" xmlns="http://www.w3.org/2000/svg" xmlns:xlink="http://www.w3.org/1999/xlink" x="0px" y="0px"
	 width="512px" height="512px" viewBox="0 0 512 512" enable-background="new 0 0 512 512" xml:space="preserve">
<rect fill="#D34836" width="512" height="512"/>
<polygon fill="#FFFFFF" points="448,224.608 384,224.608 384,288.512 352.032,288.512 352.032,224.608 288,224.608 288,192 
	352.032,192 352.032,128 384,128 384,192 448,192 "/>
<path fill="#FFFFFF" d="M249.219,288.447c-9.215-6.559-26.88-22.432-26.88-31.775c0-10.945,3.103-16.32,19.583-29.216
	c16.864-13.183,28.801-31.744,28.801-53.28c0-25.665-11.425-50.688-32.896-58.944h32.354l22.91-16.512H191.01
	c-45.76,0-88.8,34.656-88.8,74.816c0,41.056,31.168,74.176,77.728,74.176l9.44-0.32c-3.009,5.791-5.185,12.288-5.185,19.071
	c0,11.424,6.144,20.671,13.888,28.191l-17.696,0.16c-56.673-0.031-100.288,36.098-100.288,73.506
	c0,36.863,47.808,59.936,104.479,59.936c64.608,0,100.287-36.641,100.29-73.504C284.866,325.216,276.195,307.52,249.219,288.447z
	 M194.721,237.279c-26.304-0.768-51.296-29.408-55.84-63.936c-4.545-34.559,13.087-60.96,39.359-60.191
	c26.272,0.8,51.264,28.512,55.808,63.008C238.624,210.72,220.959,238.08,194.721,237.279z M184.416,412.032
	c-39.168,0-67.456-24.769-67.456-54.593c0-29.215,35.072-53.504,74.24-53.088c9.12,0.097,17.663,1.601,25.408,4.097
	c21.247,14.752,36.512,23.104,40.8,40.001c0.769,3.423,1.249,6.943,1.249,10.527C258.657,388.736,239.488,412.032,184.416,412.032z"
	/>
</svg>
