<svg class="icon-invite" viewBox="3 3 20 20">
                <path fill="none" stroke="#020202" stroke-width="0.5" strokeMiterlimit="10" d="M16.496,16.015l-6.964,0.008c-0.025-0.226-0.038-0.401-0.038-0.526c0-0.377,0.116-0.843,0.35-1.399c0.233-0.557,0.522-1.058,0.869-1.504l0.526-0.678c0.291-0.376,0.529-0.854,0.715-1.437c-0.336,0.441-0.673,0.768-1.012,0.979c-0.338,0.21-0.771,0.36-1.297,0.451c-0.181,0.421-0.354,0.72-0.519,0.895c-0.166,0.176-0.356,0.264-0.572,0.264c-0.04,0-0.113-0.003-0.218-0.008c0.19-0.15,0.349-0.349,0.474-0.594c-0.381,0.351-0.645,0.526-0.79,0.526c-0.175,0-0.425-0.173-0.748-0.52c-0.324-0.346-0.485-0.611-0.485-0.797c0-0.206,0.086-0.53,0.26-0.974c0.173-0.444,0.367-0.844,0.583-1.2l0.444-0.722c0.125-0.206,0.246-0.464,0.361-0.775c0.155-0.431,0.295-0.718,0.421-0.86C8.98,7,9.238,6.828,9.629,6.628c-0.11-0.226-0.196-0.394-0.256-0.504L9.118,5.695c-0.04-0.075-0.06-0.153-0.06-0.233c0-0.115,0.078-0.173,0.233-0.173c0.13,0,0.324,0.096,0.583,0.286s0.523,0.431,0.794,0.722c0.07-0.296,0.105-0.494,0.105-0.594l-0.015-0.534c0-0.16,0.028-0.271,0.083-0.331c0.03-0.035,0.073-0.053,0.128-0.053c0.451,0,0.81,0.477,1.075,1.429c0.918,0.342,1.652,0.8,2.205,1.377c0.516,0.547,0.984,1.256,1.406,2.128c0.25,0.517,0.463,1.221,0.635,2.11c0.174,0.89,0.26,1.729,0.26,2.516l-0.029,0.79L16.496,16.015z M7.982,11.411c-0.21,0.021-0.361,0.128-0.451,0.324c0.07,0.02,0.13,0.029,0.181,0.029c0.18,0,0.271-0.1,0.271-0.301C7.982,11.459,7.982,11.441,7.982,11.411z M10.276,7.53C9.89,7.586,9.632,7.683,9.501,7.82s-0.196,0.385-0.196,0.74l0.098-0.09c0.255-0.075,0.398-0.143,0.429-0.203l0.271-0.489C10.133,7.719,10.191,7.636,10.276,7.53z M16.022,15.458l0.03-1.038c0-0.837-0.074-1.653-0.223-2.448c-0.147-0.795-0.35-1.471-0.605-2.026c-0.381-0.823-0.799-1.471-1.256-1.944c-0.456-0.475-1.062-0.895-1.82-1.261l0.075,0.444c1.098,0.592,1.948,1.507,2.549,2.745s0.903,2.692,0.903,4.362l-0.008,0.467l-0.015,0.699H16.022z"/>
                <circle fill="#2D2A2E" cx="16.045" cy="14.93" r="3.854"/>
                <path fill="#FFFFFF" d="M17.938,15.154c-0.018,0.057-0.043,0.094-0.071,0.096h-3.644c-0.059,0-0.104-0.139-0.104-0.32c0-0.18,0.047-0.322,0.104-0.322h3.644c0.059,0,0.104,0.144,0.104,0.322C17.971,15.018,17.959,15.094,17.938,15.154z"/>
                <path fill="#FFFFFF" d="M16.268,16.822c-0.059,0.021-0.137,0.031-0.223,0.031c-0.184,0-0.32-0.045-0.32-0.104v-3.645c0-0.057,0.146-0.105,0.32-0.105c0.176,0,0.32,0.049,0.32,0.105v3.645C16.365,16.779,16.326,16.803,16.268,16.822z"/>
            </svg>
