<svg class="icon-no" viewBox="0 0 64 64" >
                <circle class="icon-no__circle" fill="#f6f6f6" stroke="#c6c6c6" stroke-width="2" strokeMiterlimit="10" cx="32" cy="32" r="31"/>
                <g class="icon-no__char" fill="#575756">
                    <path d="M25.133,37.023h0.075v-18.4h4.968V45.49h-6.172l-6.622-18.814h-0.075V45.49h-4.968V18.623h6.247L25.133,37.023z"/>
                    <path d="M33.655,26.431c0.189-1.718,0.603-3.192,1.242-4.421c0.641-1.229,1.562-2.188,2.766-2.879
                        c1.205-0.689,2.822-1.035,4.854-1.035s3.649,0.346,4.854,1.035c1.203,0.69,2.126,1.649,2.766,2.879
                        c0.64,1.229,1.053,2.703,1.242,4.421c0.188,1.719,0.281,3.594,0.281,5.626c0,2.057-0.094,3.938-0.281,5.645
                        c-0.189,1.706-0.603,3.174-1.242,4.402c-0.64,1.229-1.562,2.17-2.766,2.822c-1.205,0.651-2.822,0.979-4.854,0.979
                        s-3.649-0.327-4.854-0.979c-1.203-0.652-2.125-1.593-2.766-2.822c-0.64-1.229-1.053-2.696-1.242-4.402
                        c-0.188-1.706-0.281-3.588-0.281-5.645C33.374,30.024,33.468,28.149,33.655,26.431z M38.924,36.666
                        c0.088,1.267,0.264,2.295,0.526,3.086c0.264,0.79,0.641,1.367,1.129,1.73c0.49,0.364,1.135,0.546,1.938,0.546
                        c0.803,0,1.448-0.182,1.938-0.546c0.488-0.363,0.865-0.94,1.129-1.73c0.263-0.791,0.438-1.819,0.526-3.086
                        c0.087-1.267,0.132-2.804,0.132-4.609c0-1.807-0.045-3.336-0.132-4.591c-0.089-1.254-0.264-2.283-0.526-3.086
                        c-0.264-0.803-0.641-1.386-1.129-1.75c-0.49-0.363-1.136-0.545-1.938-0.545c-0.804,0-1.448,0.182-1.938,0.545
                        c-0.488,0.364-0.865,0.947-1.129,1.75c-0.263,0.803-0.438,1.832-0.526,3.086c-0.088,1.255-0.132,2.784-0.132,4.591
                        C38.792,33.862,38.836,35.399,38.924,36.666z"/>
                </g>
            </svg>
