<svg class="icon-ok" viewBox="0 0 64 64" >
                <circle class="icon-ok__circle" fill="#f6f6f6" stroke="#c6c6c6" stroke-width="2" strokeMiterlimit="10" cx="32" cy="32" r="31"/>
                <g class="icon-ok__char" fill="#575756">
                    <path d="M12.019,27.326c0.188-1.718,0.603-3.192,1.242-4.421c0.64-1.229,1.562-2.188,2.766-2.878s2.822-1.035,4.854-1.035
                        s3.649,0.345,4.854,1.035c1.205,0.69,2.127,1.65,2.767,2.878c0.64,1.229,1.054,2.704,1.241,4.421
                        c0.188,1.719,0.282,3.594,0.282,5.625c0,2.058-0.094,3.939-0.282,5.645c-0.188,1.706-0.602,3.174-1.241,4.402
                        c-0.64,1.229-1.562,2.171-2.767,2.822c-1.204,0.652-2.821,0.979-4.854,0.979s-3.65-0.326-4.854-0.979
                        c-1.204-0.651-2.126-1.593-2.766-2.822c-0.64-1.229-1.054-2.696-1.242-4.402c-0.188-1.705-0.282-3.587-0.282-5.645
                        C11.736,30.919,11.831,29.044,12.019,27.326z M17.287,37.561c0.088,1.268,0.264,2.296,0.526,3.086
                        c0.264,0.79,0.64,1.368,1.129,1.731s1.135,0.545,1.938,0.545c0.803,0,1.448-0.182,1.938-0.545s0.865-0.941,1.129-1.731
                        s0.438-1.818,0.527-3.086c0.087-1.266,0.132-2.803,0.132-4.609c0-1.806-0.045-3.336-0.132-4.59
                        c-0.089-1.254-0.264-2.283-0.527-3.086c-0.264-0.802-0.64-1.386-1.129-1.75c-0.489-0.363-1.135-0.546-1.938-0.546
                        c-0.804,0-1.449,0.183-1.938,0.546c-0.489,0.364-0.865,0.947-1.129,1.75c-0.263,0.803-0.438,1.832-0.526,3.086
                        s-0.132,2.784-0.132,4.59C17.155,34.758,17.199,36.295,17.287,37.561z" />
                    <path d="M38.642,30.28h0.075l6.849-10.762h5.87l-7.3,11.515l8.128,15.353h-6.096l-5.531-11.025l-1.995,3.048v7.978h-5.418V19.518
                        h5.418V30.28z" />
                </g>
            </svg>
