<?xml version="1.0" encoding="utf-8"?>
<!-- Generator: Adobe Illustrator 16.0.4, SVG Export Plug-In . SVG Version: 6.00 Build 0)  -->
<!DOCTYPE svg PUBLIC "-//W3C//DTD SVG 1.1//EN" "http://www.w3.org/Graphics/SVG/1.1/DTD/svg11.dtd">
<svg version="1.1" id="图层_1" xmlns="http://www.w3.org/2000/svg" xmlns:xlink="http://www.w3.org/1999/xlink" x="0px" y="0px"
	 width="1920px" height="900px" viewBox="0 0 1920 900" enable-background="new 0 0 1920 900" xml:space="preserve">
<g>
	<path d="M141.126,316.106c19.357,0,36.718,3.63,52.088,10.889c15.364,7.26,28.369,17.06,39.021,29.402
		c10.646,12.341,18.812,26.741,24.501,43.194c5.683,16.459,8.53,33.882,8.53,52.27c0,18.637-2.847,36.179-8.53,52.632
		c-5.688,16.459-13.855,30.854-24.501,43.195c-10.651,12.341-23.656,22.085-39.021,29.22c-15.37,7.135-32.731,10.708-52.088,10.708
		c-19.363,0-36.723-3.573-52.088-10.708c-15.37-7.135-28.375-16.879-39.02-29.22c-10.651-12.342-18.818-26.736-24.501-43.195
		c-5.688-16.453-8.53-33.995-8.53-52.632c0-18.387,2.841-35.811,8.53-52.27c5.683-16.453,13.85-30.853,24.501-43.194
		c10.646-12.342,23.65-22.142,39.02-29.402C104.403,319.736,121.763,316.106,141.126,316.106z M141.126,353.13
		c-13.793,0-25.715,2.785-35.753,8.349c-10.044,5.569-18.211,13.011-24.501,22.323c-6.295,9.318-10.952,19.907-13.975,31.761
		c-3.029,11.859-4.537,23.957-4.537,36.298c0,12.341,1.508,24.444,4.537,36.298c3.023,11.859,7.679,22.448,13.975,31.761
		c6.29,9.318,14.457,16.76,24.501,22.323c10.039,5.569,21.96,8.349,35.753,8.349c13.793,0,25.709-2.779,35.754-8.349
		c10.039-5.563,18.206-13.005,24.501-22.323c6.29-9.312,10.946-19.901,13.975-31.761c3.023-11.854,4.538-23.957,4.538-36.298
		c0-12.341-1.515-24.439-4.538-36.298c-3.028-11.854-7.685-22.442-13.975-31.761c-6.295-9.312-14.462-16.754-24.501-22.323
		C166.835,355.915,154.919,353.13,141.126,353.13z"/>
	<path d="M301.924,393.784h39.202v25.409h0.726c5.808-10.889,13.912-18.693,24.319-23.412c10.402-4.719,21.654-7.078,33.757-7.078
		c14.757,0,27.643,2.603,38.658,7.804c11.008,5.206,20.145,12.341,27.405,21.416c7.26,9.075,12.705,19.664,16.334,31.761
		c3.63,12.103,5.445,25.045,5.445,38.839c0,12.585-1.633,24.808-4.9,36.661c-3.267,11.859-8.229,22.323-14.882,31.397
		c-6.659,9.074-15.064,16.334-25.228,21.779c-10.163,5.444-22.142,8.167-35.935,8.167c-6.051,0-12.103-0.545-18.149-1.634
		c-6.051-1.089-11.859-2.847-17.423-5.263c-5.57-2.417-10.708-5.502-15.427-9.257c-4.719-3.749-8.655-8.167-11.797-13.248h-0.726
		v93.648h-41.38V393.784z M446.391,487.796c0-8.468-1.089-16.696-3.267-24.683c-2.178-7.985-5.445-15.063-9.801-21.234
		c-4.355-6.171-9.8-11.128-16.334-14.882c-6.534-3.749-14.037-5.626-22.505-5.626c-17.423,0-30.553,6.052-39.383,18.149
		c-8.836,12.103-13.249,28.193-13.249,48.276c0,9.438,1.146,18.212,3.448,26.316c2.297,8.11,5.745,15.063,10.345,20.871
		c4.594,5.808,10.101,10.407,16.516,13.794c6.409,3.392,13.85,5.081,22.323,5.081c9.438,0,17.423-1.934,23.957-5.808
		c6.534-3.868,11.916-8.893,16.152-15.063c4.231-6.171,7.26-13.187,9.075-21.053C445.483,504.073,446.391,496.025,446.391,487.796z"
		/>
	<path d="M554.919,498.322c0,7.26,1.027,14.281,3.085,21.054c2.053,6.777,5.139,12.704,9.256,17.786
		c4.112,5.081,9.313,9.137,15.608,12.159c6.29,3.029,13.793,4.537,22.505,4.537c12.097,0,21.835-2.598,29.22-7.804
		c7.379-5.201,12.886-13.005,16.516-23.412h39.202c-2.178,10.163-5.933,19.238-11.252,27.224c-5.326,7.985-11.74,14.7-19.238,20.146
		c-7.503,5.444-15.914,9.562-25.227,12.341c-9.318,2.779-19.056,4.175-29.22,4.175c-14.763,0-27.831-2.422-39.202-7.26
		c-11.377-4.838-20.996-11.615-28.857-20.327c-7.866-8.712-13.793-19.113-17.786-31.216c-3.993-12.098-5.989-25.409-5.989-39.929
		c0-13.305,2.116-25.953,6.353-37.931c4.231-11.979,10.282-22.505,18.149-31.579c7.861-9.075,17.361-16.272,28.494-21.598
		c11.127-5.32,23.713-7.985,37.75-7.985c14.757,0,28.006,3.085,39.746,9.256c11.734,6.171,21.473,14.338,29.22,24.501
		c7.742,10.163,13.368,21.841,16.878,35.027c3.505,13.192,4.413,26.804,2.722,40.835H554.919z M651.473,471.1
		c-0.488-6.534-1.877-12.824-4.174-18.875c-2.303-6.046-5.445-11.31-9.438-15.79c-3.993-4.475-8.836-8.105-14.52-10.89
		c-5.688-2.779-12.041-4.174-19.056-4.174c-7.26,0-13.856,1.271-19.783,3.812c-5.933,2.541-11.014,6.052-15.245,10.526
		c-4.237,4.48-7.623,9.744-10.164,15.79c-2.541,6.052-3.936,12.585-4.174,19.602H651.473z"/>
	<path d="M724.431,393.784h39.202v27.586l0.726,0.726c6.29-10.401,14.52-18.569,24.683-24.501
		c10.163-5.927,21.416-8.893,33.757-8.893c20.565,0,36.78,5.326,48.64,15.971c11.854,10.651,17.786,26.622,17.786,47.913v128.858
		h-41.38V463.477c-0.488-14.757-3.63-25.465-9.438-32.124c-5.808-6.652-14.882-9.982-27.224-9.982
		c-7.021,0-13.311,1.271-18.875,3.812c-5.569,2.541-10.288,6.052-14.156,10.526c-3.874,4.48-6.896,9.744-9.075,15.79
		c-2.178,6.052-3.267,12.466-3.267,19.238v110.709h-41.38V393.784z"/>
	<path d="M913.178,322.277h46.099l46.824,198.188h0.727l52.269-198.188h46.462l50.817,198.188h0.726l48.276-198.188h46.099
		l-71.507,259.168h-46.099l-51.906-198.188h-0.726l-52.995,198.188h-46.825L913.178,322.277z"/>
	<path d="M1268.897,393.784h38.839v36.298h0.726c1.208-5.082,3.567-10.039,7.078-14.882c3.505-4.838,7.742-9.256,12.704-13.249
		c4.957-3.993,10.464-7.197,16.516-9.619c6.046-2.417,12.217-3.63,18.513-3.63c4.838,0,8.167,0.125,9.981,0.363
		c1.815,0.244,3.687,0.488,5.626,0.726v39.928c-2.903-0.482-5.87-0.907-8.893-1.271c-3.028-0.363-5.989-0.544-8.894-0.544
		c-7.021,0-13.611,1.396-19.782,4.174c-6.171,2.785-11.559,6.897-16.152,12.341c-4.6,5.445-8.229,12.16-10.89,20.146
		c-2.666,7.985-3.993,17.185-3.993,27.587v89.293h-41.379V393.784z"/>
	<path d="M1397.752,322.277h41.38v39.202h-41.38V322.277z M1397.752,393.784h41.38v187.661h-41.38V393.784z"/>
	<path d="M1465.266,393.784h31.216v-56.262h41.38v56.262h37.387v30.854h-37.387V524.82c0,4.355,0.182,8.11,0.545,11.252
		c0.362,3.148,1.208,5.809,2.54,7.986c1.327,2.178,3.324,3.811,5.989,4.9c2.66,1.089,6.29,1.633,10.89,1.633
		c2.904,0,5.808-0.057,8.712-0.182c2.903-0.119,5.808-0.544,8.711-1.271v31.942c-4.6,0.482-9.074,0.965-13.43,1.452
		c-4.356,0.482-8.837,0.726-13.431,0.726c-10.89,0-19.663-1.032-26.316-3.085c-6.658-2.053-11.858-5.082-15.607-9.074
		c-3.755-3.993-6.296-9.013-7.623-15.063c-1.333-6.046-2.121-12.943-2.359-20.69V424.638h-31.216V393.784z"/>
	<path d="M1637.314,498.322c0,7.26,1.026,14.281,3.086,21.054c2.053,6.777,5.138,12.704,9.256,17.786
		c4.111,5.081,9.312,9.137,15.607,12.159c6.29,3.029,13.794,4.537,22.505,4.537c12.098,0,21.836-2.598,29.221-7.804
		c7.378-5.201,12.886-13.005,16.516-23.412h39.201c-2.178,10.163-5.932,19.238-11.252,27.224c-5.325,7.985-11.74,14.7-19.238,20.146
		c-7.503,5.444-15.914,9.562-25.227,12.341c-9.318,2.779-19.057,4.175-29.221,4.175c-14.763,0-27.83-2.422-39.201-7.26
		c-11.378-4.838-20.996-11.615-28.857-20.327c-7.866-8.712-13.793-19.113-17.786-31.216c-3.992-12.098-5.989-25.409-5.989-39.929
		c0-13.305,2.116-25.953,6.353-37.931c4.23-11.979,10.282-22.505,18.148-31.579c7.861-9.075,17.361-16.272,28.494-21.598
		c11.128-5.32,23.713-7.985,37.75-7.985c14.758,0,28.007,3.085,39.747,9.256c11.734,6.171,21.473,14.338,29.22,24.501
		c7.741,10.163,13.368,21.841,16.879,35.027c3.505,13.192,4.412,26.804,2.722,40.835H1637.314z M1733.867,471.1
		c-0.487-6.534-1.877-12.824-4.174-18.875c-2.303-6.046-5.445-11.31-9.438-15.79c-3.993-4.475-8.837-8.105-14.52-10.89
		c-5.688-2.779-12.041-4.174-19.057-4.174c-7.26,0-13.855,1.271-19.782,3.812c-5.933,2.541-11.014,6.052-15.245,10.526
		c-4.236,4.48-7.623,9.744-10.163,15.79c-2.541,6.052-3.937,12.585-4.175,19.602H1733.867z"/>
	<path d="M1806.827,393.784h38.839v36.298h0.726c1.208-5.082,3.567-10.039,7.078-14.882c3.505-4.838,7.742-9.256,12.704-13.249
		c4.957-3.993,10.464-7.197,16.516-9.619c6.046-2.417,12.217-3.63,18.513-3.63c4.838,0,8.167,0.125,9.981,0.363
		c1.815,0.244,3.687,0.488,5.626,0.726v39.928c-2.903-0.482-5.87-0.907-8.893-1.271c-3.028-0.363-5.989-0.544-8.894-0.544
		c-7.021,0-13.611,1.396-19.782,4.174c-6.171,2.785-11.559,6.897-16.152,12.341c-4.6,5.445-8.229,12.16-10.89,20.146
		c-2.666,7.985-3.993,17.185-3.993,27.587v89.293h-41.379V393.784z"/>
</g>
</svg>
