<?xml version="1.0" encoding="UTF-8"?>
<svg width="24px" height="24px" viewBox="0 0 24 24" version="1.1" xmlns="http://www.w3.org/2000/svg" xmlns:xlink="http://www.w3.org/1999/xlink">
    <defs></defs>
    <g id="Icons/order-list/basic" stroke="none" stroke-width="1" fill="none" fill-rule="evenodd">
        <rect fill="currentColor" x="7.5" y="3" width="15" height="2"></rect>
        <rect fill="currentColor" x="7.5" y="11" width="15" height="2"></rect>
        <rect fill="currentColor" x="7.5" y="19" width="15" height="2"></rect>
        <polygon fill="currentColor" fill-rule="nonzero" points="2.01969578 2.2720412 1.9 2.174 1.9 1.612 1.95881248 1.52087597 3.354 0.9 3.86 0.9 3.96 1 3.96 6.408 3.86 6.508 2.896 6.508 2.796 6.408 2.796 2.11608722"></polygon>
        <path fill="currentColor" d="M4.79199998,13.572 L4.89199998,13.672 L4.89199998,14.422 L4.79199998,14.522 L1.39999998,14.522 L1.29999998,14.422 L1.32717209,13.7914719 L2.34717998,12.7074635 C3.30871899,11.6858283 3.64599998,11.1957499 3.64599998,10.658 C3.64599998,10.0876082 3.37023774,9.856 2.71999998,9.856 C2.40659456,9.856 2.00434227,9.9970495 1.66570277,10.2015969 L1.51627241,10.1371972 L1.36227241,9.42719725 L1.40904609,9.31995523 C1.84151147,9.06385842 2.40518443,8.9 2.97999998,8.9 C4.17984725,8.9 4.84199998,9.48914182 4.84199998,10.534 C4.84199998,11.3545832 4.41344703,11.9864531 3.35391724,13.0914831 L2.88966403,13.572 L4.79199998,13.572 Z" fill-rule="nonzero"></path>
        <path fill="currentColor" d="M5.03199998,20.898 C5.03199998,21.9448942 4.22643909,22.602 2.96399998,22.602 C2.35000531,22.602 1.69380894,22.4338985 1.34555973,22.2078824 L1.30246751,22.1019225 L1.46046751,21.4039225 L1.61188777,21.3417616 C1.85811746,21.4992762 2.40840612,21.632 2.79999998,21.632 C3.48411735,21.632 3.83599998,21.3619821 3.83599998,20.832 C3.83599998,20.3557367 3.49920396,20.1259436 2.82746456,20.1199679 L2.27546456,20.1059679 L2.17799998,20.006 L2.17799998,19.306 L2.27636754,19.2060133 L2.76572784,19.1980258 C3.35055685,19.1847342 3.69399998,18.9269127 3.69399998,18.502 C3.69399998,18.0578497 3.42351662,17.866 2.84599998,17.866 C2.50378742,17.866 2.10844116,17.9714596 1.75688233,18.1383388 L1.61522142,18.063582 L1.50322142,17.353582 L1.55187555,17.2514694 C1.89870529,17.0505619 2.56105393,16.9 3.09599998,16.9 C4.16343076,16.9 4.85199998,17.4318073 4.85199998,18.33 C4.85199998,18.8890449 4.58292623,19.3070165 4.09833253,19.5598597 C4.69882526,19.7654 5.03199998,20.207312 5.03199998,20.898 Z" fill-rule="nonzero"></path>
    </g>
</svg>
