<?xml version="1.0" encoding="utf-8"?>
<!-- Generator: Adobe Illustrator 16.0.4, SVG Export Plug-In . SVG Version: 6.00 Build 0)  -->
<!DOCTYPE svg PUBLIC "-//W3C//DTD SVG 1.1//EN" "http://www.w3.org/Graphics/SVG/1.1/DTD/svg11.dtd">
<svg version="1.1" id="图层_1" xmlns="http://www.w3.org/2000/svg" xmlns:xlink="http://www.w3.org/1999/xlink" x="0px" y="0px"
	 width="32px" height="32px" viewBox="0 0 32 32" enable-background="new 0 0 32 32" xml:space="preserve">
<g>
	<path d="M4.161,8.567c0.84-0.16,1.94-0.28,3.341-0.28c1.72,0,2.98,0.4,3.78,1.12c0.74,0.64,1.2,1.621,1.2,2.821
		c0,1.22-0.359,2.181-1.06,2.881c-0.921,0.98-2.421,1.48-4.121,1.48c-0.521,0-1-0.02-1.4-0.12v5.401h-1.74V8.567z M5.901,15.049
		c0.38,0.1,0.88,0.14,1.44,0.14c2.12,0,3.381-1.04,3.381-2.86c0-1.8-1.261-2.661-3.181-2.661c-0.761,0-1.341,0.08-1.641,0.14V15.049
		z"/>
	<path d="M26.162,15.949c-0.1-1.88-0.219-4.161-0.219-5.821h-0.041c-0.48,1.561-1.02,3.261-1.701,5.121l-2.379,6.542h-1.32
		l-2.201-6.421c-0.641-1.92-1.16-3.641-1.541-5.241h-0.04c-0.04,1.681-0.14,3.921-0.26,5.961L16.1,21.87h-1.66l0.94-13.483h2.221
		l2.299,6.521c0.561,1.66,1.002,3.14,1.361,4.541h0.039c0.361-1.359,0.842-2.84,1.441-4.541l2.4-6.521h2.221l0.84,13.483h-1.721
		L26.162,15.949z"/>
</g>
</svg>
