<?xml version="1.0" encoding="utf-8"?>
<!DOCTYPE svg PUBLIC "-//W3C//DTD SVG 1.1//EN" "http://www.w3.org/Graphics/SVG/1.1/DTD/svg11.dtd">
<svg class="icon-restore" viewBox="0 0 510 510">
<path class="icon-restore__circle" d="M255,0C114.8,0,0,114.8,0,255s114.8,255,255,255s255-114.8,255-255S395.2,0,255,0z"/>
<path class="icon-restore__graph" fill="#FFFFFF" d="M422.9,255c0,84.5-68.5,153-153,153c-31.4,0.1-62.1-9.6-87.7-27.7c-2-1.5-3.4-3.8-3.6-6.3
	c-0.2-2.5,0.7-4.9,2.4-6.6l12.2-12.4c2.9-2.8,7.4-3.3,10.7-1c19.5,13.1,42.5,20.1,66,20.1c65.7,0,119-53.3,119-119
	s-53.3-119-119-119s-119,53.3-119,119l0,0H191c2.3,0,4.5,0.9,6.1,2.5l3.4,3.4c3.3,3.3,3.4,8.7,0,12c0,0,0,0,0,0l-60,60.2
	c-3.4,3.3-8.7,3.3-12.1,0l-60-60.2c-3.3-3.3-3.4-8.7,0-12c0,0,0,0,0,0l3.4-3.4c1.6-1.7,3.8-2.6,6.1-2.6h39c0-84.5,68.5-153,153-153
	S422.9,170.5,422.9,255z"/>
</svg>
