<svg class="icon-search" viewBox="0 0 42 42" >
    <path fill="#3A413E" d="M40.817,36.663c0.327,0.328,0.203,0.98-0.279,1.463l-2.415,2.415c-0.479,0.479-1.133,0.604-1.461,0.276L26.405,30.561c-0.326-0.326-0.203-0.981,0.277-1.462l2.413-2.415c0.481-0.48,1.134-0.605,1.464-0.276L40.817,36.663z"/>
    <path class="icon-search__hilt" fill="#d3d3d3" d="M40.123,36.864c0.299,0.299,0.283,0.801-0.036,1.121c-0.321,0.319-0.823,0.337-1.123,0.036l-9.534-9.534c-0.299-0.298-0.281-0.798,0.038-1.12c0.319-0.318,0.821-0.337,1.119-0.038L40.123,36.864z"/>
    <circle class="icon-search__lens" fill="#e5e5e5" cx="15.219" cy="16.016" r="12.221"/>
    <path d="M25.926,25.925c-5.718,5.717-14.994,5.744-20.68,0.062c-5.686-5.686-5.657-14.963,0.062-20.679c5.717-5.72,14.994-5.746,20.68-0.062C31.673,10.931,31.643,20.207,25.926,25.925z M6.462,6.46c-5.083,5.084-5.111,13.325-0.061,18.375c5.046,5.049,13.291,5.021,18.372-0.061c5.085-5.083,5.109-13.326,0.061-18.373C19.786,1.351,11.543,1.378,6.462,6.46z"/>
    <path d="M24.834,24.833c-5.085,5.084-13.35,5.084-18.433,0C1.317,19.749,1.314,11.481,6.399,6.399c5.085-5.083,13.352-5.083,18.435,0C29.917,11.484,29.917,19.751,24.834,24.833z M7.431,7.429C2.911,11.946,2.91,19.295,7.424,23.81c4.512,4.514,11.86,4.51,16.377-0.008c4.52-4.519,4.521-11.866,0.008-16.377C19.296,2.911,11.947,2.913,7.431,7.429z"/>
    <path d="M29.07,26.519c0.563,0.563,0.501,1.538-0.132,2.171c-0.634,0.636-1.609,0.695-2.17,0.133l-1.422-1.42c-0.562-0.562-0.502-1.534,0.132-2.17c0.637-0.635,1.61-0.694,2.172-0.132L29.07,26.519z"/>
    <path class="icon-search__lensBorder" fill="#FFF" d="M24.834,24.833c-5.085,5.082-13.35,5.082-18.433,0C1.317,19.748,1.314,11.481,6.399,6.398c5.085-5.084,13.352-5.083,18.435,0S29.917,19.751,24.834,24.833z M7.431,7.428c-4.52,4.518-4.521,11.866-0.007,16.38c4.512,4.514,11.86,4.512,16.377-0.006c4.52-4.519,4.521-11.867,0.008-16.379C19.296,2.91,11.947,2.911,7.431,7.428z"/>
    <path fill="#FFFFFF" d="M6.862,18.641c1.888-5.446,6.314-9.982,12.143-12.658v0.004c-6.748,0-12.205,5.581-12.205,12.48"/>
</svg>
