<svg class="icon-setting" viewBox="0 0 42 42">
  <circle class="icon-setting__circle" fill="#C6C6C5" stroke="#1D1D1B" stroke-width="0.1267" cx="21" cy="21" r="20"/>
  <path class="icon-setting__bigGear" fill="#666666" d="M23.333,21.373c-0.122-0.191-0.356-0.278-0.574-0.211l-0.913,0.322c-0.229,0.067-0.476,0-0.64-0.172           l-0.659-0.658c-0.171-0.162-0.238-0.408-0.171-0.635l0.321-0.914c0.056-0.212-0.033-0.436-0.22-0.553l-1.805-0.744           c-0.219-0.053-0.443,0.047-0.554,0.24l-0.417,0.875c-0.112,0.207-0.333,0.333-0.568,0.326H16.2           c-0.238,0.005-0.457-0.124-0.569-0.332l-0.423-0.869c-0.106-0.203-0.335-0.308-0.558-0.256c-0.316,0.086-0.626,0.189-0.931,0.311           c-0.301,0.132-0.593,0.282-0.874,0.448c-0.195,0.122-0.281,0.36-0.212,0.577l0.322,0.915c0.068,0.228,0.005,0.474-0.166,0.639           l-0.664,0.639c-0.161,0.172-0.406,0.239-0.634,0.171l-0.914-0.322c-0.214-0.068-0.449,0.025-0.559,0.221l-0.743,1.807           c-0.053,0.217,0.047,0.442,0.24,0.553l0.87,0.417c0.209,0.112,0.337,0.331,0.331,0.569v0.934c0.004,0.237-0.122,0.455-0.331,0.568           l-0.87,0.418c-0.202,0.105-0.307,0.335-0.256,0.557c0.086,0.315,0.19,0.626,0.312,0.931c0.128,0.3,0.274,0.593,0.438,0.875           c0.121,0.191,0.356,0.278,0.573,0.211l0.914-0.322c0.229-0.069,0.475-0.005,0.641,0.166l0.658,0.659           c0.171,0.162,0.236,0.406,0.171,0.633l-0.321,0.921c-0.071,0.216,0.023,0.449,0.219,0.558l1.807,0.743           c0.218,0.052,0.441-0.047,0.554-0.241l0.417-0.869c0.112-0.208,0.33-0.337,0.567-0.33h0.935c0.236-0.005,0.456,0.123,0.568,0.33           l0.418,0.875c0.105,0.202,0.335,0.309,0.558,0.256c0.315-0.085,0.626-0.189,0.93-0.311c0.301-0.129,0.592-0.275,0.875-0.437           c0.194-0.123,0.281-0.36,0.211-0.578l-0.321-0.911c-0.068-0.227-0.004-0.473,0.166-0.639l0.663-0.664           c0.163-0.171,0.407-0.237,0.633-0.17l0.915,0.322c0.216,0.057,0.442-0.032,0.559-0.221l0.745-1.807           c0.062-0.219-0.04-0.449-0.241-0.553l-0.866-0.412c-0.208-0.113-0.336-0.331-0.331-0.567v-0.935           c-0.005-0.236,0.123-0.455,0.331-0.567l0.869-0.417c0.203-0.106,0.308-0.336,0.257-0.559c-0.085-0.316-0.189-0.626-0.312-0.931           C23.642,21.952,23.495,21.658,23.333,21.373z M17.953,28.231c-1.674,0.708-3.607-0.073-4.316-1.749           c-0.709-1.675,0.074-3.607,1.749-4.316s3.606,0.072,4.315,1.748c0.001,0.001,0.001,0.002,0.001,0.004           C20.409,25.592,19.628,27.522,17.953,28.231z"/>
  <path class="icon-setting__smallGear" fill="#666666" d="M32.046,14.793c-0.029-0.17-0.17-0.299-0.342-0.312L31,14.445c-0.176-0.021-0.325-0.135-0.397-0.297           L30.307,13.5c-0.079-0.164-0.056-0.361,0.06-0.502l0.504-0.544c0.107-0.132,0.107-0.321,0-0.452l-1.056-1.025           c-0.133-0.107-0.322-0.107-0.452,0l-0.539,0.503c-0.14,0.116-0.337,0.142-0.503,0.064l-0.652-0.265           c-0.163-0.07-0.278-0.22-0.303-0.393l-0.03-0.729c-0.018-0.172-0.147-0.311-0.316-0.336c-0.489-0.071-0.986-0.071-1.474,0           c-0.17,0.029-0.299,0.169-0.312,0.342l-0.035,0.733c-0.022,0.175-0.135,0.325-0.296,0.397l-0.649,0.271           c-0.165,0.078-0.361,0.054-0.502-0.061l-0.534-0.492c-0.132-0.107-0.319-0.107-0.451,0l-1.036,1.045           c-0.108,0.133-0.108,0.32,0,0.453l0.503,0.537c0.119,0.139,0.146,0.337,0.069,0.504l-0.266,0.653           c-0.069,0.162-0.218,0.276-0.392,0.302l-0.733,0.025c-0.173,0.016-0.312,0.146-0.338,0.316c-0.031,0.244-0.048,0.489-0.052,0.734           c0.006,0.245,0.024,0.49,0.057,0.733c0.029,0.17,0.171,0.3,0.342,0.312l0.729,0.034c0.175,0.022,0.325,0.136,0.396,0.297           l0.273,0.648c0.078,0.165,0.055,0.361-0.062,0.503l-0.503,0.543c-0.106,0.132-0.106,0.321,0,0.453l1.046,1.035           c0.132,0.108,0.32,0.108,0.453,0l0.538-0.503c0.141-0.117,0.336-0.143,0.502-0.064l0.675,0.266           c0.162,0.069,0.277,0.217,0.301,0.392l0.045,0.729c0.017,0.171,0.147,0.309,0.318,0.336c0.241,0.031,0.487,0.049,0.732,0.051           c0.246-0.004,0.491-0.022,0.735-0.055c0.169-0.029,0.297-0.17,0.311-0.342l0.035-0.729c0.023-0.177,0.136-0.326,0.297-0.397           l0.629-0.267c0.164-0.079,0.361-0.056,0.503,0.061l0.542,0.502c0.132,0.109,0.321,0.109,0.453,0l1.025-1.064           c0.107-0.133,0.107-0.321,0-0.453l-0.497-0.553c-0.117-0.142-0.144-0.338-0.066-0.503l0.268-0.654           c0.068-0.161,0.217-0.276,0.392-0.302l0.729-0.045c0.172-0.017,0.31-0.146,0.337-0.316c0.03-0.244,0.048-0.49,0.05-0.734           C32.1,15.261,32.08,15.025,32.046,14.793z M26.319,17.497c-1.068,0.003-1.938-0.861-1.939-1.931           c-0.003-1.069,0.862-1.938,1.931-1.941c1.062-0.002,1.926,0.851,1.939,1.911c0.015,1.069-0.841,1.946-1.91,1.961           C26.334,17.497,26.326,17.497,26.319,17.497z"/>
</svg>
