<?xml version="1.0" encoding="utf-8"?>
<!-- Generator: Adobe Illustrator 16.0.4, SVG Export Plug-In . SVG Version: 6.00 Build 0)  -->
<!DOCTYPE svg PUBLIC "-//W3C//DTD SVG 1.1//EN" "http://www.w3.org/Graphics/SVG/1.1/DTD/svg11.dtd">
<svg version="1.1" id="图层_1" xmlns="http://www.w3.org/2000/svg" xmlns:xlink="http://www.w3.org/1999/xlink" x="0px" y="0px"
	 width="512px" height="512px" viewBox="0 0 512 512" enable-background="new 0 0 512 512" xml:space="preserve">
<path d="M335.549,98.441l141.472,133.468l-142.472,132.47l-2-78.421c0-4.418-3.582-8-8-8c-65.512,0-122.523,14.249-170.039,28.767
	s-70.271,31.179-95.126,48.934c-10.468,7.478-18.812,14.994-25.449,22.113c6.278-21.634,17.619-52.285,37.185-82.886
	c23.395-36.588,53.599-65.723,89.776-86.594c45.354-26.165,100.414-31.432,163.653-31.432c4.418,0,8-3.582,8-8V95.441
	 M324.549,66.127l-8,94.733c-284.199,0-299.882,260.518-299.882,260.518s10.684-118.42,294.882-118.42l13,94.734l165.785-165.783
	L324.549,66.127L324.549,66.127z"/>
</svg>
