<svg class="icon-sortV2" viewBox="0 0 64 64" >
                <path fill="#E3272A" d="M42.867,30.504c-0.094,3.883-3.275,7.002-7.184,7.002c-3.969,0-7.188-3.217-7.188-7.186l-0.029-0.219
                    l-2.844,0.002c0,5.557,4.504,10.061,10.061,10.061s10.061-4.504,10.061-10.061v-0.137c0-3.055,0-23.25,0-23.25h-2.873V30.35
                    c0,0,0.035,0,0.096,0"/>
                <polygon fill="#E3272A" points="47.855,6.768 40.719,6.768 44.287,3.195 		"/>
                <path fill="#46AC4C" d="M19.6,32.643c0.098-3.885,3.281-7.006,7.188-7.006c3.971,0,7.188,3.219,7.188,7.188l0.029,0.221
        			l2.844-0.006c0-5.555-4.504-10.061-10.061-10.061s-10.064,4.506-10.064,10.061v0.143c0,3.053,0,23.248,0,23.248H19.6V32.797
        			c0,0-0.033,0-0.098,0"/>
        		<polygon fill="#46AC4C" points="21.703,56.348 14.566,56.348 18.135,59.918 		"/>
            </svg>
