<?xml version="1.0" encoding="utf-8"?>
<!-- Generator: Adobe Illustrator 23.1.1, SVG Export Plug-In . SVG Version: 6.00 Build 0)  -->
<svg version="1.1" id="图层_1" xmlns="http://www.w3.org/2000/svg" xmlns:xlink="http://www.w3.org/1999/xlink" x="0px" y="0px"
	 viewBox="0 0 24 24" style="enable-background:new 0 0 24 24;" xml:space="preserve">
<path d="M5.1,21.5v-0.2c2.4-0.1,2.7-0.7,2.7-3.1V6.8c0-2.3-0.3-2.9-2.8-3V3.6h6.9v0.2C9.3,3.9,9,4.5,9,6.8v11C9,21,9.9,21,12.9,21
	c1.8,0,3.5-0.3,4.2-1c0.7-0.9,1.2-1.8,1.5-2.8h0.3c-0.1,0.3-0.2,0.7-0.3,1.2v0.1c-0.2,0.9-0.5,2.1-0.7,2.9H5.1V21.5z"/>
</svg>
