<?xml version="1.0" encoding="UTF-8"?>
<svg width="24px" height="24px" viewBox="0 0 24 24" version="1.1" xmlns="http://www.w3.org/2000/svg" xmlns:xlink="http://www.w3.org/1999/xlink">
    <g stroke="none" stroke-width="1" fill="none" fill-rule="evenodd">
        <path d="M20.8399862,4.17568056 L20.8399862,5.38261145 L20.6108564,5.38673991 C20.4135913,5.39029424 20.1131102,5.4302089 19.717951,5.50852301 C19.3364163,5.57885198 19.0304946,5.68380014 18.8058194,5.8191432 C18.6108578,5.94397476 18.4653564,6.21517103 18.3789343,6.65706245 C18.2836905,7.14945527 18.2354029,7.75101914 18.2354029,8.45997222 L18.2354029,14.9178611 C18.2354029,15.7800833 18.0365637,16.5358677 17.6393916,17.1814567 C17.2627951,17.8168425 16.7473198,18.3435557 16.1062838,18.7520203 C15.4848886,19.1465872 14.8337001,19.4270331 14.1473449,19.5962187 C13.4646269,19.7645077 12.807529,19.8505278 12.1907084,19.8505278 C11.1965505,19.8505278 10.3108945,19.7309856 9.53635797,19.4912013 C8.74832848,19.250202 8.08538428,18.9194521 7.55570723,18.5014714 C7.01935592,18.0875481 6.6137181,17.6060673 6.34104513,17.058751 C6.06786163,16.518238 5.93173622,15.9451303 5.93173622,15.3445694 L5.93173622,6.56472222 C5.93173622,6.35752275 5.89566075,6.1889174 5.8280992,6.05952252 C5.7659843,5.94322228 5.6241904,5.8225861 5.3945902,5.7069394 C5.22576064,5.61755905 5.00374709,5.54369603 4.73280086,5.48916446 C4.45924901,5.43309483 4.22448046,5.3991739 4.034179,5.38624079 L3.81666678,5.3714584 L3.81666678,4.17568056 L10.9924446,4.17568056 L10.9924446,5.38090787 L10.7631686,5.38489528 C10.582301,5.3880408 10.3453453,5.41596626 10.0028512,5.47168076 C9.66941562,5.5323054 9.45143895,5.5810745 9.32133281,5.62495944 C9.12513681,5.68802244 9.00798623,5.78395927 8.94786126,5.91671778 C8.87477915,6.08154127 8.83858344,6.2597954 8.83858344,6.45758333 L8.83858344,14.6574028 C8.83858344,15.055367 8.88222979,15.4530337 8.97339344,15.8572538 C9.06553153,16.271006 9.23674013,16.6413238 9.49616365,16.9816074 C9.76956537,17.3387384 10.138418,17.6295563 10.6122564,17.8587242 C11.0851989,18.0849141 11.7459639,18.1997917 12.6007918,18.1997917 C13.4042332,18.1997917 14.06444,18.0850873 14.602275,17.8553397 C15.128821,17.6257311 15.5403735,17.3272803 15.8448046,16.9588574 C16.1377734,16.6090181 16.3434989,16.2410364 16.4642243,15.8547156 C16.5866338,15.4647539 16.6474723,15.0745183 16.6474723,14.6795694 L16.6474723,8.59297222 C16.6474723,7.85149666 16.5862966,7.23704037 16.4695193,6.75167064 C16.3619241,6.31476869 16.2096287,6.0404796 16.0372291,5.92310535 C15.7834474,5.76208521 15.4477782,5.63334722 15.035435,5.54618511 C14.5851338,5.4514789 14.2446566,5.39875409 14.0126437,5.38645038 L13.7916668,5.3747319 L13.7916668,4.17568056 L20.8399862,4.17568056 Z" fill="currentColor" fill-rule="nonzero"></path>
        <rect fill="currentColor" fill-rule="nonzero" x="3.86634722" y="22.3787917" width="16.442125" height="1.63333331"></rect>
    </g>
</svg>
