<?xml version="1.0" encoding="utf-8"?>
<!-- Generator: Adobe Illustrator 23.1.1, SVG Export Plug-In . SVG Version: 6.00 Build 0)  -->
<svg version="1.1" id="图层_1" xmlns="http://www.w3.org/2000/svg" xmlns:xlink="http://www.w3.org/1999/xlink" x="0px" y="0px"
	 viewBox="0 0 24 24" style="enable-background:new 0 0 24 24;" xml:space="preserve">
<g>
	<path fill="currentColor" d="M16.9,4.6C17,4.3,17.1,4.1,17.3,4c0.2-0.1,0.4-0.2,0.7-0.2c0.4,0,0.6,0.1,0.7,0.3C18.9,4.3,19,4.6,19,5.2
		c0,0.9,0,1.8,0,2.6c0,0.8,0,1.2,0,1.1c0,0.5-0.1,0.8-0.2,0.9C18.6,9.9,18.4,10,18,10c-0.6,0-1-0.5-1.2-1.4
		c-0.1-0.3-0.1-0.5-0.2-0.6c-0.2-0.7-0.6-1.3-1.3-1.8c-0.7-0.5-1.5-0.7-2.4-0.7c-1.7,0-3.1,0.6-4.1,1.9c-1,1.2-1.5,2.9-1.5,5
		c0,2.1,0.5,3.7,1.6,5c1,1.2,2.4,1.9,4.1,1.9c0.6,0,1.1-0.1,1.7-0.2c0.6-0.2,1.1-0.4,1.7-0.7c0.3-0.1,0.6-0.4,1.1-0.7s0.8-0.5,1-0.5
		c0.3,0,0.5,0.1,0.8,0.3c0.2,0.2,0.3,0.4,0.3,0.7S19.3,18.8,19,19c-0.2,0.3-0.6,0.6-1.3,1c-0.8,0.5-1.6,0.9-2.4,1.2
		c-0.8,0.2-1.7,0.4-2.6,0.4c-2.4,0-4.3-0.8-5.9-2.5s-2.3-3.8-2.3-6.4C4.6,10,5.4,7.9,7,6.2c1.6-1.7,3.5-2.6,5.9-2.6
		c0.6,0,1.3,0.1,1.9,0.2S16.1,4.3,16.9,4.6z"/>
</g>
</svg>
