<?xml version="1.0" encoding="UTF-8"?>
<svg width="24px" height="24px" viewBox="0 0 24 24" version="1.1" xmlns="http://www.w3.org/2000/svg" xmlns:xlink="http://www.w3.org/1999/xlink">
    <g stroke="none" stroke-width="1" fill="none" fill-rule="evenodd">
        <path d="M9.34800772,2 L18.2289572,2 L17.8792334,3.65868999 L17.600216,3.66899913 C17.3521512,3.67816463 17.0171024,3.71793462 16.6125134,3.78783527 C16.2211107,3.85191106 15.9127193,3.91801525 15.7228984,3.97509741 C15.4407509,4.06806324 15.2560184,4.19934553 15.1526191,4.36565538 C15.0234431,4.5686435 14.9287332,4.79631905 14.8692883,5.04075743 L11.8091936,19.0766494 L11.7767287,19.2451455 L11.764782,19.4365385 C11.764782,19.5754317 11.7902453,19.6823572 11.8342777,19.7561332 C11.8808714,19.8336027 11.9791432,19.9157659 12.1373457,19.9944329 C12.2280015,20.0385321 12.4918649,20.1087265 12.8902827,20.1888962 C13.3264374,20.2732804 13.6323896,20.3220013 13.8238289,20.3376714 L14.2399255,20.3717305 L13.8976915,22 L5,22 L5.36152966,20.3552994 L5.62757792,20.335548 C5.79961996,20.3227757 6.02913471,20.3048895 6.64043372,20.257076 C7.05346826,20.2207528 7.34158796,20.1709761 7.48854829,20.1153482 C7.76086134,20.0102671 7.95953018,19.8726264 8.0803853,19.7167713 C8.2119089,19.5403068 8.30273667,19.3263778 8.35296608,19.0615364 L11.4008757,5.02042381 L11.4349776,4.80913575 L11.4503241,4.59423077 C11.4503241,4.47639846 11.4293919,4.38391905 11.3924422,4.31212709 C11.3642801,4.26043341 11.2683276,4.18347719 11.1060815,4.10870903 C10.885252,4.00694375 10.5908763,3.91038602 10.2302573,3.82663036 C9.85472786,3.73412993 9.57623552,3.67928547 9.41103011,3.6639247 L8.99726494,3.62545288 L9.34800772,2 Z" fill="currentColor" fill-rule="nonzero"></path>
    </g>
</svg>
