<?xml version="1.0" encoding="utf-8"?>
<!-- Generator: Adobe Illustrator 23.1.1, SVG Export Plug-In . SVG Version: 6.00 Build 0)  -->
<svg version="1.1" id="图层_1" xmlns="http://www.w3.org/2000/svg" xmlns:xlink="http://www.w3.org/1999/xlink" x="0px" y="0px"
	 viewBox="0 0 24 24" style="enable-background:new 0 0 24 24;" xml:space="preserve">
<g>
	<path fill="currentColor" d="M20.9,7.1c-0.4-1.8-0.9-3-1.5-3.5c-0.5-0.7-1.5-0.9-3.5-0.9h-1.5V19c0,3,0.3,3.2,3.4,3.4v1.2H6.4v-1.2
		C9.3,22.2,9.7,22,9.7,19V2.7H8.5C5.6,2.7,5.1,3,4.5,3.6C4,4.2,3.6,5.4,3.1,7.1H1.9C2,4.6,2.2,2,2.4,0.3h0.9c0.5,0.8,1,0.9,2,0.9H19
		c0.9,0,1.4-0.2,2-0.9h0.9c0,1.4,0.2,4.5,0.3,6.7L20.9,7.1z"/>
</g>
</svg>
