<?xml version="1.0" encoding="UTF-8"?>
<svg width="24px" height="24px" viewBox="0 0 24 24" version="1.1" xmlns="http://www.w3.org/2000/svg" xmlns:xlink="http://www.w3.org/1999/xlink">
    <g stroke="none" stroke-width="1" fill="none" fill-rule="evenodd">
        <g transform="translate(3.000000, 3.000000)" fill="currentColor" fill-rule="nonzero">
            <path d="M11.9396709,15.8292 C11.2961609,16.5096 10.4661792,16.8462 9.44606947,16.8462 C8.8702011,16.8462 8.38025594,16.7382 7.976234,16.5204 C7.57038391,16.3044 7.3308958,16.0398 7.25228519,15.7284 L7.25228519,9.1332 C7.3820841,9.1278 7.58318099,9.1134 7.85191956,9.1008 C8.12431444,9.09 8.33820841,9.081 8.50091408,9.081 C9.91956124,9.081 11.0054845,9.4176 11.76234,10.0854 C12.5173675,10.7532 12.8957952,11.7144 12.8957952,12.969 C12.8994516,14.1984 12.5776965,15.1524 11.9396709,15.8292 Z M11.0036563,6.921 C10.3400366,7.5582 9.31627057,7.8786 7.92687386,7.8786 L7.25411335,7.8786 L7.25411335,1.206 C7.44424132,1.1988 7.67093236,1.188 7.93235832,1.1736 C8.19378428,1.1592 8.40585009,1.1538 8.57038391,1.1538 C9.71115174,1.1538 10.5667276,1.431 11.1407678,1.9926 C11.7111517,2.5524 11.9963437,3.3264 11.9963437,4.3272 C11.9963437,5.4198 11.6617916,6.2802 11.0036563,6.921 Z M14.2632541,8.874 C13.5411335,8.6526 12.8500914,8.505 12.1773309,8.4366 L12.1773309,8.1972 C12.8482633,8.046 13.4734918,7.8552 14.0548446,7.6248 C14.6398537,7.398 15.1444241,7.128 15.5648995,6.813 C16.0292505,6.4746 16.3857404,6.0768 16.6361974,5.6142 C16.8829982,5.1552 17.0073126,4.6206 17.0073126,4.0122 C17.0073126,2.6946 16.4533821,1.6938 15.3473492,1.017 C14.2413163,0.3402 12.4351005,0 9.93418647,0 L0,0 L8.11863272e-16,0.9918 C0.268738574,1.0332 0.575868373,1.0908 0.928702011,1.161 C1.28153565,1.2348 1.5904936,1.3248 1.85923218,1.4328 C2.21572212,1.5876 2.44424132,1.764 2.54113346,1.9674 C2.63254113,2.1708 2.68007313,2.4246 2.68007313,2.7306 L2.68007313,15.4152 C2.68007313,15.7428 2.62705667,16.0092 2.50639854,16.218 C2.39305302,16.425 2.17550274,16.5924 1.85923218,16.722 C1.6928702,16.7904 1.4095064,16.8462 1.00548446,16.8984 C0.599634369,16.9488 0.270566728,16.9866 0,17.01 L0,18 L9.49725777,18 C10.8592322,18 12.0493601,17.9208 13.0585009,17.7588 C14.0694698,17.6004 14.9616088,17.3232 15.7294333,16.9362 C16.4606947,16.5708 17.0255941,16.074 17.4113346,15.444 C17.8043876,14.814 18,14.0436 18,13.1292 C18,12.3678 17.8281536,11.7072 17.4862888,11.1438 C17.1407678,10.5804 16.6928702,10.1142 16.1444241,9.7434 C15.6087751,9.3852 14.9835466,9.099 14.2632541,8.874 Z"></path>
        </g>
    </g>
</svg>
