<svg class="icon-translateV2" viewBox="0 0 42 42">
              <circle class="icon-translateV2__circle" fill="#f6f6f6" stroke="#1D1D1B" stroke-width="0.1267" cx="21.1" cy="21.1" r="19.885"/>
              <path fill="#3C3835" d="M12.537,17.099l-7.5,8.749h5c0,6.876,5.805,11.25,11.875,11.25c-4.701-1.662-6.856-5-6.856-11.25h4.98        L12.537,17.099z"/>
              <path fill="#FFFFFF" stroke="#1D1D1B" stroke-width="0.9274" d="M31.901,25.187l6.592-7.723l-4.405,0.009        c-0.012-6.057-5.135-9.901-10.482-9.89c4.145,1.456,6.05,4.393,6.061,9.899l-4.388,0.009L31.901,25.187z"/>
              <path fill="#12110B" d="M16.428,10.868c0,3.046-1.079,4.281-2.614,4.281c-1.835,0-2.555-1.943-2.555-4.162        c0-2.207,0.875-4.114,2.663-4.114C15.877,6.874,16.428,9.021,16.428,10.868z M12.891,11.012c0,1.835,0.348,2.771,0.983,2.771        c0.66,0,0.911-1.199,0.911-2.842c0-1.415-0.216-2.699-0.923-2.699C13.238,8.241,12.891,9.273,12.891,11.012z"/>
              <path fill="#12110B" d="M17.427,6.97h1.571v3.634h0.024c0.132-0.335,0.264-0.695,0.396-1.043l1.08-2.59h1.727l-1.811,3.514        l1.835,4.569h-1.715l-1.175-3.346l-0.36,0.66v2.687h-1.571V6.97z"/>
              <path fill="#12110B" d="M23.779,28.871c-0.141,0.25-0.336,0.562-0.586,0.938v4.219c0,0.406,0.016,1.031,0.047,1.875h-0.984        c0.031-0.938,0.047-1.641,0.047-2.109v-3c-0.281,0.469-0.656,0.938-1.125,1.406c-0.219-0.312-0.422-0.578-0.609-0.797        c0.719-0.687,1.281-1.343,1.688-1.969c0.406-0.625,0.766-1.219,1.078-1.781c0.312,0.188,0.672,0.391,1.078,0.609        C24.131,28.418,23.92,28.621,23.779,28.871z M23.006,26.41c-0.406,0.641-0.969,1.352-1.688,2.133        c-0.188-0.25-0.391-0.484-0.609-0.703c0.5-0.5,0.953-1.039,1.359-1.617c0.406-0.578,0.703-1.085,0.891-1.523        c0.312,0.188,0.656,0.422,1.031,0.703C23.74,25.434,23.412,25.77,23.006,26.41z M30.037,28.824c0.593,0,1.141-0.016,1.641-0.047        v0.938c-0.5-0.031-1.031-0.047-1.594-0.047h-0.656v5.109c0.031,0.375-0.086,0.633-0.352,0.773c-0.266,0.141-0.79,0.258-1.57,0.352        c-0.063-0.375-0.234-0.75-0.516-1.125c0.531,0.062,0.906,0.086,1.125,0.07c0.218-0.016,0.344-0.18,0.375-0.492v-4.688h-1.875        c-0.594,0-1.156,0.016-1.688,0.047v-0.938c0.562,0.031,1.125,0.047,1.688,0.047H30.037z M29.24,25.637        c0.531,0,1.078-0.016,1.641-0.047v0.891c-0.562-0.031-1.141-0.047-1.734-0.047h-1.734c-0.688,0-1.282,0.016-1.781,0.047V25.59        c0.5,0.031,1.094,0.047,1.781,0.047H29.24z"/>
            </svg>
