<svg class="icon-translate" viewBox="0 0 34 34">
                <circle fill="#EFEEEE" stroke="#BBBBBB" cx="17.001" cy="17" r="16" />
                <g>
                	<path d="M6.839,9.366c0.055-0.497,0.174-0.924,0.359-1.28C7.384,7.731,7.65,7.453,7.999,7.253s0.816-0.299,1.404-0.299s1.057,0.1,1.405,0.299s0.615,0.478,0.801,0.833c0.185,0.356,0.305,0.783,0.359,1.28c0.054,0.498,0.081,1.04,0.081,1.628c0,0.596-0.027,1.14-0.081,1.634c-0.055,0.494-0.175,0.918-0.359,1.274c-0.186,0.355-0.452,0.628-0.801,0.816c-0.349,0.189-0.817,0.283-1.405,0.283s-1.056-0.094-1.404-0.283c-0.349-0.188-0.615-0.461-0.801-0.816c-0.186-0.356-0.305-0.781-0.359-1.274s-0.082-1.038-0.082-1.634C6.757,10.406,6.784,9.864,6.839,9.366z M8.363,12.329c0.025,0.367,0.076,0.664,0.152,0.893c0.076,0.229,0.186,0.396,0.327,0.501c0.142,0.105,0.328,0.158,0.561,0.158s0.42-0.053,0.562-0.158c0.142-0.105,0.25-0.272,0.326-0.501c0.076-0.229,0.127-0.526,0.152-0.893s0.038-0.812,0.038-1.334c0-0.522-0.013-0.965-0.038-1.329c-0.025-0.363-0.076-0.66-0.152-0.893c-0.076-0.232-0.185-0.401-0.326-0.506C9.823,8.161,9.636,8.108,9.403,8.108S8.984,8.161,8.843,8.266C8.701,8.372,8.592,8.541,8.516,8.772c-0.076,0.233-0.127,0.53-0.152,0.893c-0.025,0.363-0.038,0.806-0.038,1.329C8.325,11.517,8.338,11.962,8.363,12.329z"/>
                	<path d="M14.543,10.221h0.022l1.981-3.115h1.699l-2.112,3.333l2.352,4.443h-1.764l-1.601-3.191l-0.578,0.882v2.309 h-1.567V7.106h1.567V10.221z"/>
                </g>
                <g>
                	<path d="M19.821,21.925c-0.29,0.305-0.613,0.593-0.969,0.866c-0.356,0.272-0.708,0.474-1.057,0.604c-0.254,0.102-0.397,0.127-0.43,0.076c-0.033-0.051,0.056-0.16,0.267-0.327c0.312-0.254,0.615-0.528,0.909-0.822s0.615-0.666,0.964-1.116c0.254-0.327,0.446-0.615,0.577-0.866s0.192-0.427,0.186-0.528c-0.015-0.254,0.036-0.396,0.152-0.425c0.116-0.029,0.312,0.08,0.588,0.327c0.131,0.116,0.229,0.211,0.294,0.283c0.065,0.073,0.104,0.136,0.114,0.19c0.011,0.055-0.002,0.102-0.038,0.142c-0.036,0.04-0.095,0.082-0.174,0.125c-0.139,0.08-0.278,0.192-0.42,0.337c-0.142,0.146-0.328,0.363-0.561,0.654c0.146,0.181,0.243,0.365,0.294,0.55s0.062,0.423,0.033,0.713c-0.015,0.167-0.024,0.37-0.027,0.61c-0.004,0.24-0.006,0.544-0.006,0.915c0,0.16-0.004,0.3-0.011,0.419c-0.008,0.12-0.021,0.23-0.038,0.332c-0.019,0.102-0.042,0.2-0.071,0.294c-0.028,0.094-0.064,0.196-0.108,0.305c-0.059,0.145-0.14,0.218-0.245,0.218s-0.198-0.073-0.277-0.218c-0.095-0.16-0.168-0.294-0.218-0.403c-0.052-0.109-0.08-0.212-0.088-0.311c-0.007-0.098,0.006-0.2,0.038-0.305c0.033-0.105,0.089-0.234,0.169-0.387c0.044-0.087,0.08-0.212,0.109-0.376c0.028-0.163,0.053-0.348,0.07-0.555c0.019-0.207,0.025-0.425,0.022-0.653C19.867,22.366,19.851,22.143,19.821,21.925z M21.303,18.255c-0.102,0.058-0.207,0.141-0.315,0.25c-0.109,0.109-0.255,0.247-0.436,0.414c-0.306,0.298-0.608,0.557-0.91,0.779c-0.301,0.222-0.557,0.379-0.768,0.474c-0.319,0.138-0.499,0.182-0.539,0.131s0.045-0.16,0.256-0.327c0.226-0.189,0.436-0.381,0.632-0.578c0.196-0.196,0.399-0.442,0.61-0.74c0.203-0.276,0.345-0.501,0.424-0.675c0.08-0.174,0.113-0.316,0.099-0.425c-0.029-0.196,0.02-0.312,0.146-0.349c0.127-0.036,0.365,0.062,0.714,0.294c0.138,0.094,0.239,0.172,0.305,0.234c0.065,0.062,0.102,0.12,0.109,0.174c0.007,0.054-0.019,0.109-0.076,0.163C21.495,18.129,21.412,18.189,21.303,18.255zM23.611,20.977c-0.218,0.044-0.444,0.097-0.681,0.158c-0.235,0.062-0.47,0.125-0.702,0.19c-0.095,0.029-0.176,0.049-0.245,0.06s-0.14,0.011-0.212,0c-0.073-0.011-0.153-0.033-0.24-0.065s-0.192-0.078-0.315-0.136c-0.139-0.065-0.2-0.129-0.186-0.19s0.146-0.1,0.393-0.114c0.116-0.007,0.281-0.029,0.495-0.065c0.214-0.036,0.456-0.08,0.725-0.131s0.554-0.11,0.854-0.18c0.302-0.069,0.6-0.136,0.894-0.201c0.294-0.065,0.571-0.131,0.833-0.196c0.261-0.065,0.486-0.123,0.675-0.174c0.269-0.072,0.514-0.098,0.735-0.076c0.222,0.022,0.415,0.105,0.583,0.25c0.254,0.211,0.354,0.371,0.299,0.479s-0.311,0.156-0.768,0.141c-0.37-0.014-0.766-0.009-1.188,0.017c-0.421,0.025-0.838,0.067-1.252,0.125c0.159,0.073,0.283,0.136,0.37,0.191c0.087,0.054,0.148,0.104,0.186,0.147c0.036,0.043,0.054,0.087,0.054,0.131c0,0.043-0.011,0.094-0.032,0.152s-0.042,0.13-0.06,0.218c-0.019,0.087-0.029,0.203-0.033,0.349c-0.004,0.145,0,0.332,0.011,0.561c0.012,0.229,0.035,0.514,0.071,0.855c0.021,0.196,0.038,0.367,0.049,0.512c0.011,0.146,0.019,0.278,0.021,0.397c0.004,0.12,0.004,0.229,0,0.327c-0.003,0.098-0.009,0.198-0.016,0.299c-0.022,0.232-0.064,0.43-0.126,0.594c-0.062,0.163-0.183,0.357-0.364,0.583c-0.124,0.152-0.253,0.221-0.387,0.207c-0.135-0.015-0.23-0.095-0.289-0.24c-0.058-0.167-0.156-0.334-0.294-0.501s-0.334-0.356-0.588-0.566c-0.211-0.167-0.3-0.283-0.267-0.349c0.032-0.065,0.201-0.062,0.506,0.011c0.182,0.043,0.325,0.071,0.431,0.082s0.188,0.009,0.25-0.005s0.104-0.043,0.126-0.087c0.021-0.043,0.039-0.105,0.054-0.185c0.059-0.414,0.076-0.878,0.055-1.394c-0.021-0.515-0.072-1.045-0.152-1.59C23.862,21.384,23.771,21.188,23.611,20.977z M25.55,18.178c0.146,0.08,0.216,0.164,0.213,0.25c-0.004,0.087-0.089,0.156-0.256,0.207c-0.465,0.146-0.85,0.26-1.154,0.343c-0.306,0.083-0.562,0.142-0.769,0.174c-0.207,0.032-0.383,0.042-0.528,0.027c-0.145-0.014-0.29-0.043-0.436-0.087c-0.225-0.065-0.339-0.127-0.343-0.185s0.11-0.109,0.343-0.153c0.182-0.036,0.435-0.105,0.757-0.207c0.323-0.102,0.67-0.225,1.04-0.371c0.219-0.087,0.414-0.134,0.589-0.142C25.18,18.03,25.361,18.077,25.55,18.178z"/>
                </g>
                <g>
                	<path d="M9.35,17.965c-0.631,0.705-0.944,1.539-0.941,2.505c0.009,0.952,0.377,1.779,1.102,2.484c0.726,0.705,1.569,1.054,2.53,1.044l0.966,0.003l-0.997-1.204l0.013-1.38l2.598,3.165l-2.568,3.219v-1.396l1.032-1.297l-1.047-0.017c-1.295,0.012-2.408-0.44-3.343-1.359c-0.935-0.917-1.403-2.022-1.405-3.316c-0.008-1.157,0.389-2.212,1.19-3.163L9.35,17.965z"/>
                </g>
                <g>
                	<path d="M25.354,15.863c0.687-0.65,1.068-1.456,1.146-2.418c0.069-0.949-0.228-1.805-0.892-2.567c-0.665-0.763-1.478-1.18-2.436-1.251L22.21,9.544l0.895,1.283l-0.127,1.374l-2.326-3.371l2.825-2.995l-0.114,1.391l-1.137,1.208l1.043,0.104c1.29,0.095,2.362,0.639,3.218,1.631c0.855,0.992,1.231,2.132,1.125,3.421c-0.088,1.154-0.57,2.172-1.448,3.054L25.354,15.863z"/>
                </g>
            </svg>
