<svg class="icon-user" fill="#333333" viewBox="0 0 64 64" >
                <path d="M63.146,61.543c-0.021-0.168-0.051-0.33-0.051-0.482c-0.011-0.391-0.011-0.781-0.011-1.157
                    c0-0.381,0-0.751-0.03-1.127c-0.025-0.73-0.132-1.451-0.233-2.142l-0.091-0.6c-0.051-0.335-0.097-0.659-0.133-0.984
                    c-0.152-1.335-0.324-2.69-0.913-4.03c-0.538-1.213-1.411-2.416-2.416-3.305c-1.173-1.01-2.498-1.67-3.782-2.279
                    c-0.289-0.142-0.573-0.284-0.873-0.426c-1.04-0.543-2.096-1.062-3.152-1.574c-1.645-0.822-3.359-1.578-5.004-2.314l-0.975-0.446
                    c-1.777-0.808-3.584-1.63-4.579-3.208c-0.848-1.351-1.106-3.147-0.807-5.66c0.106-0.918,0.289-1.822,0.522-2.71l0.117-0.467
                    c0.076-0.3,0.137-0.595,0.248-0.889c0.021-0.071,0.041-0.122,0.062-0.208c0-0.025,0-0.041,0.02-0.066c0.021,0,0.057,0,0.076,0
                    c0.265,0,0.655,0,0.99-0.254s0.467-0.604,0.559-0.873c0.04-0.102,0.081-0.203,0.122-0.254c0.543-0.802,0.67-1.675,0.802-2.507
                    l0.051-0.305c0.03-0.193,0.071-0.396,0.116-0.609c0.117-0.573,0.27-1.238,0.173-1.919c-0.086-0.583-0.396-0.975-0.64-1.289
                    c-0.097-0.106-0.183-0.218-0.279-0.375c0.03-0.082,0.066-0.173,0.106-0.274c0.117-0.391,0.106-0.797,0.097-1.147
                    c0-0.132-0.01-0.269-0.01-0.386l0.02-0.635c0.021-0.324,0.041-0.64,0.041-0.949c0.016-0.375,0.081-0.726,0.143-1.106
                    c0.081-0.355,0.142-0.726,0.167-1.106c0.016-0.198,0.046-0.406,0.066-0.609c0.04-0.335,0.081-0.68,0.081-1.035
                    c0-0.319,0-0.66-0.111-1c-0.082-0.243-0.214-0.432-0.315-0.553c-0.081-0.112-0.122-0.163-0.132-0.203
                    c-0.01-0.112-0.025-0.233-0.025-0.346c-0.016-0.224-0.016-0.457-0.092-0.721c-0.183-0.629-0.481-1.188-0.807-1.792
                    c-0.721-1.33-1.787-2.096-2.964-2.938l-0.351-0.254c-1.173-0.863-2.401-1.746-4.005-1.939c-0.782-0.111-1.554-0.096-2.294-0.07
                    c-0.305,0-0.584,0.01-0.914,0.01l-0.65-0.01c-0.862-0.016-1.766-0.025-2.67,0.116c-1.938,0.3-3.847,1.346-5.842,3.192
                    c-0.482,0.437-0.939,0.97-1.33,1.513c-0.654,0.914-1.192,2.025-1.538,3.183c-0.381,1.265-0.335,2.508-0.264,3.771
                    c0.091,1.376,0.289,2.711,0.427,3.736c0.03,0.132,0.07,0.284,0.116,0.457c0.046,0.142,0.122,0.432,0.122,0.482
                    c-0.076,0.106-0.183,0.208-0.33,0.319c-0.219,0.203-0.492,0.437-0.675,0.802c-0.265,0.533-0.31,1.117-0.32,1.665
                    c0,0.69,0.183,1.198,0.396,1.736l0.051,0.167c0.107,0.265,0.163,0.533,0.239,0.817c0.106,0.386,0.188,0.771,0.36,1.178
                    c0.233,0.548,0.533,1.168,1.162,1.568c0.081,0.036,0.137,0.076,0.208,0.117c0.112,0.051,0.208,0.111,0.239,0.152
                    c0.127,0.183,0.146,0.513,0.178,0.862c0.015,0.244,0.04,0.482,0.081,0.706c0.111,0.472,0.273,0.913,0.431,1.33
                    c0.107,0.273,0.209,0.543,0.29,0.837c0.273,0.924,0.456,1.665,0.583,2.376c0.107,0.64,0.152,1.365,0.143,2.254
                    c-0.016,1.329-0.391,2.416-1.102,3.238c-0.863,0.975-2.097,1.604-3.299,2.223l-0.173,0.071c-0.965,0.487-1.97,0.919-2.894,1.289
                    c-1.898,0.782-3.578,1.523-5.178,2.265C10.082,44.64,9.666,44.822,9.25,45c-1.021,0.447-2.062,0.919-3.036,1.503
                    c-1.437,0.873-2.563,2.233-3.319,3.995c-0.771,1.822-1.238,3.872-1.462,6.431c-0.051,0.508-0.157,1.005-0.289,1.523
                    c-0.168,0.73-0.341,1.481-0.33,2.294C0.834,61.183,0.874,61.578,0.936,62h1.279h59.713h1.259
                    C63.187,61.853,63.167,61.69,63.146,61.543z"/>
            </svg>
