<svg xmlns="http://www.w3.org/2000/svg" class="icon-weekday" viewBox="0 0 64 64" version="1.1">
    <circle class="icon-weekday__circle" fill="#FFFFFF" stroke="#000000" stroke-width="2" cx="32" cy="32" r="31"/>
    <path
        class="icon-weekday__char"
        stroke="none"
        d="M31.989,17.244c2.478,0,4.482,1.178,6.011,3.533c1.53,2.357,2.294,6.479,2.294,12.364c0,5.873-0.764,9.986-2.294,12.343
                    c-1.528,2.357-3.526,3.534-5.989,3.534c-2.479,0-4.481-1.165-6.011-3.503c-1.529-2.335-2.294-6.479-2.294-12.438
                    c0-5.844,0.765-9.943,2.294-12.301C27.529,18.422,29.525,17.244,31.989,17.244z M32,22.192c-0.967,0-1.736,0.638-2.312,1.909
                    c-0.577,1.274-0.864,4.287-0.864,9.04s0.287,7.763,0.864,9.028c0.575,1.268,1.345,1.899,2.312,1.899
                    c0.98,0,1.754-0.635,2.322-1.909c0.568-1.272,0.854-4.28,0.854-9.019c0-4.753-0.285-7.766-0.854-9.04
                    C33.754,22.83,32.98,22.192,32,22.192z"/>
</svg>
