<svg class="icon-weekday" viewBox="0 0 64 64" >
                <circle class="icon-weekday__circle" fill="#FFFFFF" stroke="#000000" stroke-width="2" cx="32" cy="32" r="31"/>
                <path class="icon-weekday__char" stroke="none" d="M39.465,24.902l-4.736,0.638c-0.228-2.309-1.158-3.463-2.791-3.463c-1.065,0-1.95,0.581-2.653,1.742
                    s-1.147,3.504-1.332,7.03c0.61-0.878,1.291-1.536,2.043-1.976c0.752-0.438,1.582-0.658,2.489-0.658c2,0,3.745,0.931,5.234,2.79
                    c1.49,1.86,2.234,4.333,2.234,7.416c0,3.282-0.787,5.855-2.36,7.723c-1.574,1.868-3.523,2.802-5.849,2.802
                    c-2.552,0-4.668-1.213-6.348-3.64c-1.681-2.428-2.521-6.449-2.521-12.068c0-5.701,0.872-9.806,2.616-12.311
                    c1.743-2.505,3.983-3.757,6.721-3.757c1.886,0,3.477,0.64,4.774,1.917C38.284,20.366,39.11,22.305,39.465,24.902z M28.377,37.935
                    c0,1.965,0.366,3.466,1.098,4.505c0.731,1.038,1.566,1.558,2.504,1.558c0.909,0,1.665-0.431,2.269-1.292
                    c0.604-0.863,0.906-2.276,0.906-4.241c0-2.035-0.327-3.519-0.98-4.452c-0.653-0.933-1.463-1.399-2.429-1.399
                    c-0.938,0-1.733,0.445-2.387,1.336C28.704,34.838,28.377,36.168,28.377,37.935z"/>
            </svg>
