<svg class="icon-weekday" viewBox="0 0 64 64" >
                <circle class="icon-weekday__circle" fill="#FFFFFF" stroke="#000000" stroke-width="2" cx="32" cy="32" r="31"/>
                <path class="icon-weekday__char" stroke="none" d="M22.782,40.626l4.736-0.699c0.128,1.464,0.533,2.585,1.215,3.359c0.682,0.776,1.483,1.164,2.407,1.164
                    c1.008,0,1.86-0.461,2.556-1.381c0.696-0.922,1.045-2.195,1.045-3.823c0-1.516-0.335-2.705-1.003-3.57
                    c-0.668-0.862-1.478-1.295-2.431-1.295c-0.625,0-1.371,0.149-2.238,0.446l0.531-4.864c1.267,0.029,2.271-0.31,3.011-1.016
                    c0.726-0.707,1.089-1.702,1.089-2.987c0-1.073-0.264-1.913-0.789-2.52c-0.525-0.607-1.201-0.911-2.024-0.911
                    c-0.825,0-1.539,0.351-2.143,1.051c-0.604,0.701-0.963,1.739-1.076,3.112l-4.524-0.935c0.468-2.846,1.382-4.914,2.743-6.203
                    c1.362-1.288,3.078-1.933,5.147-1.933c2.325,0,4.173,0.828,5.541,2.481c1.368,1.654,2.053,3.485,2.053,5.493
                    c0,1.357-0.309,2.581-0.924,3.669c-0.616,1.089-1.54,2.043-2.772,2.863c1.431,0.383,2.595,1.225,3.494,2.528
                    c0.899,1.303,1.349,2.931,1.349,4.885c0,2.847-0.847,5.199-2.541,7.062c-1.694,1.863-3.711,2.793-6.051,2.793
                    c-2.24,0-4.136-0.784-5.688-2.351C23.941,45.478,23.037,43.339,22.782,40.626z"/>
            </svg>
