<svg class="icon-weekday" viewBox="0 0 64 64" >
                <circle class="icon-weekday__circle" fill="#FFFFFF" stroke="#000000" stroke-width="2" cx="32" cy="32" r="31"/>
                <path class="icon-weekday__char" stroke="none" d="M23.338,40.484l4.886-0.638c0.127,1.359,0.545,2.429,1.253,3.207c0.708,0.779,1.486,1.169,2.336,1.169
                    c1.006,0,1.869-0.499,2.592-1.495c0.722-0.996,1.083-2.526,1.083-4.59c0-1.951-0.358-3.393-1.074-4.325
                    c-0.717-0.934-1.628-1.4-2.734-1.4c-1.404,0-2.667,0.758-3.788,2.273l-3.979-0.702l2.507-16.206h12.936v5.587h-9.2l-0.797,5.289
                    c1.105-0.665,2.226-0.999,3.36-0.999c2.013,0,3.722,0.793,5.125,2.379c1.772,2.025,2.658,4.694,2.658,8.008
                    c0,2.733-0.754,5.246-2.262,7.541c-1.508,2.294-3.664,3.44-6.468,3.44c-2.266,0-4.16-0.739-5.682-2.22
                    C24.566,45.324,23.649,43.217,23.338,40.484z"/>
            </svg>
