<svg class="icon-weekday" viewBox="0 0 64 64">
                <circle class="icon-weekday__circle" fill="#FFFFFF" stroke="#000000" stroke-width="2" cx="32" cy="32" r="31"/>
                <path class="icon-weekday__char" stroke="none" d="M39.801,42.943v5.544H22.639c0.184-2.095,0.746-4.085,1.688-5.975c0.941-1.89,2.771-4.369,5.49-7.439
                    c2.152-2.447,3.477-4.102,3.972-4.965c0.736-1.259,1.104-2.526,1.104-3.799c0-1.358-0.305-2.384-0.913-3.077
                    c-0.609-0.694-1.409-1.04-2.4-1.04c-2.166,0-3.334,1.621-3.504,4.864l-4.864-0.595c0.297-3.172,1.179-5.501,2.645-6.988
                    c1.465-1.486,3.416-2.23,5.852-2.23c2.676,0,4.694,0.87,6.054,2.61s2.039,3.735,2.039,5.985c0,1.273-0.174,2.508-0.521,3.703
                    c-0.348,1.196-0.882,2.398-1.604,3.607c-0.722,1.211-1.926,2.756-3.61,4.638c-1.571,1.768-2.566,2.937-2.984,3.502
                    c-0.418,0.566-0.754,1.118-1.009,1.655H39.801z"/>
            </svg>
