<?xml version="1.0" encoding="utf-8"?>
<!-- Generator: Adobe Illustrator 16.0.0, SVG Export Plug-In . SVG Version: 6.00 Build 0)  -->
<!DOCTYPE svg PUBLIC "-//W3C//DTD SVG 1.1//EN" "http://www.w3.org/Graphics/SVG/1.1/DTD/svg11.dtd">
<svg version="1.1" id="Layer_1" xmlns="http://www.w3.org/2000/svg" xmlns:xlink="http://www.w3.org/1999/xlink" x="0px" y="0px"
	 width="234px" height="234px" viewBox="0 0 234 234" enable-background="new 0 0 234 234" xml:space="preserve">
<g>
	<rect fill="#70706F" width="233.778" height="233.058"/>
	<path fill="#FFFFFF" d="M233.76,226.806c0,2.279,0.416,5.13-0.342,7.194v-0.303H15.291h-0.016
		c-0.038-3.944-0.813-7.385-1.581-11.304c-0.696-3.553,0.171-8.058,1.221-11.472c0.714-2.314,0.839-5.009,0.976-7.449
		c0.139-2.453,0.78-4.363,1.192-6.782c0.421-2.477,1.23-5.036,1.97-7.442c0.597-1.952,0.998-4.113,1.77-5.993
		c1.512-3.675,4.302-6.685,6.625-9.796c1.142-1.528,2.063-2.233,3.845-2.874c0.956-0.345,1.981-0.58,2.804-1.165
		c0.417-0.295,0.773-0.902,1.205-1.103c1.08-0.496,2.565,0.241,3.641-0.469c0.676-0.445,1.073-1.376,1.767-1.891
		c1.342-0.995,3.021-1.587,4.465-2.43c3.405-1.989,6.148-2.014,9.6-3.879c1.186-0.641,5.239-2.005,6.46-2.585
		c2.711-1.286,5.737-2.795,8.526-3.879c4.872-1.891,7.668-3.843,12.172-6.328c1.997-1.099,4.12-2.053,5.944-3.392
		c1.97-1.448,2.891-3.074,4.093-5.171c1.291-2.255,1.965-4.098,2.108-6.724c0.131-2.469-0.114-4.947-0.231-7.368
		c-0.101-2.103,0.444-4.308-0.254-6.236c-0.903-2.487-2.383-4.886-3.004-7.566c-1.077-4.644-2.657-9.488-2.991-14.272
		c-3.049-0.528-4.688-3.149-5.766-5.821c-0.797-1.976-1.22-3.919-1.714-5.914c-0.544-2.188-1.8-3.604-1.8-5.951
		c0-2.883,0.205-6.705,2.573-8.732c0.46-0.393,1.573-0.65,1.867-1.131c0.423-0.697-0.037-2.286-0.149-3.053
		c-0.305-2.062-0.798-4.094-0.902-6.185c-0.085-1.77-0.691-3.412-0.778-5.237c-0.096-1.98-0.298-3.856-0.383-5.792
		c-0.163-3.687-0.273-7.337,0.969-10.689c0.648-1.749,1.046-3.328,1.913-4.945c0.689-1.285,0.958-2.842,1.767-4.069
		c0.456-0.695,2.605-3.125,3.303-2.946c-0.07-1.831,1.897-3.614,3.013-4.79c0.74-0.779,1.819-1.458,2.771-2.111
		c0.631-0.433,1.756-0.98,2.21-1.58c-0.029,0.002-0.05,0.017-0.063,0.042c2.029-1.664,4.705-3.317,7.25-4.153
		c1.455-0.478,3.028-1.392,4.066-2.471c-0.06-0.021,0.988,0.681,0.921,0.649c1.019,0.283,1.415-1.271,2.437-1.404
		c1.173-0.152,2.835,0.213,4.007,0.037c1.256-0.188,2.837,0.402,4.118,0.402c1.858,0,3.295,0.898,5.111,0.27
		c2.697-0.93,6.062-0.693,8.9-0.468c3.113,0.249,6.257,1.935,8.957,3.32c3.924,2.014,7.453,5.19,10.895,7.794
		c2.024,1.529,3.354,2.183,4.313,4.501c0.95,2.286,2.342,2.969,3.05,5.322c0.016,0.043,2.342,7.378,1.485,7.356
		c-0.946-0.025,0.947,0.024,1.037,1.254c0.079,1.094,0,0,0.062,1.087c0.123,2.075-0.009,7.044,0.129,10.213
		c0.053,1.166-1.165,3.55-1.061,4.725c0.252,2.773-0.535,5.482-0.287,8.239c0.084,0.934-0.271,4.015-0.299,4.968
		c-0.037,1.296-1.258-0.686-0.678,0.553c0.496,1.051,2.52,2.367,2.863,3.539c0.22,0.752,0.502,1.433,0.727,2.183
		c0.402,1.342-0.35,5.465-0.618,6.818c-0.902,4.542-0.319,7.479-3.042,11.408c-0.787,1.136-0.9,3.049-2.203,3.716
		c-0.932,0.476-3.639,0.562-4.662,0.606c-1.558,0.067-0.519,0.613-0.686,2.106c-0.317,2.808-0.506,5.192-1.169,7.926
		c-0.397,1.631-0.669,3.25-1.137,4.772c-0.438,1.423-0.455,2.939-0.604,4.438c-0.169,1.714,0.316,3.104,0.392,4.774
		c0.096,2.099-0.444,4.2-0.181,6.277c0.302,2.349,1.609,4.508,2.188,6.809c0.509,2.025,1.354,4.025,3.047,5.391
		c3.471,2.801,7.105,4.889,11.193,6.799c1.742,0.814,3.465,2.002,5.231,2.84c1.744,0.826,3.62,1.287,5.333,2.014
		c2.615,1.111,4.66,3.092,7.289,4.271c5.033,2.26,10.092,4.473,15.11,6.714c1.815,0.81,3.578,1.942,5.437,2.712
		c0.784,0.326,1.506,0.784,2.25,1.12c3.178,1.437,6.379,2.762,9.271,4.79c2.402,1.684,4.202,3.171,6.034,5.409
		c3.59,4.39,6.319,9.299,8.021,14.668c0.324,1.031,0.361,2.008,0.482,3.075c0.32,2.824,0.451,5.708,0.855,8.569
		c0.456,3.217,1.053,6.424,1.182,9.678c0.107,2.733-0.006,5.477,0.117,8.22c0.088,1.972,0.815,4.602,0.174,6.498"/>
</g>
</svg>
