<?xml version="1.0" encoding="utf-8"?>
<!-- Generator: Adobe Illustrator 16.0.4, SVG Export Plug-In . SVG Version: 6.00 Build 0)  -->
<!DOCTYPE svg PUBLIC "-//W3C//DTD SVG 1.1//EN" "http://www.w3.org/Graphics/SVG/1.1/DTD/svg11.dtd">
<svg version="1.1" id="图层_1" xmlns="http://www.w3.org/2000/svg" xmlns:xlink="http://www.w3.org/1999/xlink" x="0px" y="0px"
	 width="128px" height="128px" viewBox="0 0 128 128" enable-background="new 0 0 128 128" xml:space="preserve">
<g>
	<rect fill="#2E9FFF" width="128" height="128"/>
	<path fill="#FFFFFF" d="M64.19,73.255c2.546-0.01,4.93-1.018,6.708-2.84l33.321-34.15H23.703l33.763,34.19
		C59.256,72.268,61.654,73.232,64.19,73.255z"/>
	<polygon fill="#FFFFFF" points="45.866,63.553 21.332,38.577 21.332,88.62 	"/>
	<polygon fill="#FFFFFF" points="82.044,63.645 106.666,88.586 106.666,38.577 	"/>
	<path fill="#FFFFFF" d="M80,65.952l-7.01,7.022c-2.329,2.389-5.451,3.712-8.79,3.721c-0.013,0-0.026,0-0.036,0
		c-3.324,0-6.439-1.303-8.779-3.665l-7.119-7.078L23.732,90.665h80.533L80,65.952z"/>
</g>
</svg>
