<?xml version="1.0" encoding="utf-8"?>
<!-- Generator: Adobe Illustrator 16.0.4, SVG Export Plug-In . SVG Version: 6.00 Build 0)  -->
<!DOCTYPE svg PUBLIC "-//W3C//DTD SVG 1.1//EN" "http://www.w3.org/Graphics/SVG/1.1/DTD/svg11.dtd">
<svg version="1.1" id="图层_1" xmlns="http://www.w3.org/2000/svg" xmlns:xlink="http://www.w3.org/1999/xlink" x="0px" y="0px"
	 width="128px" height="128px" viewBox="0 0 128 128" enable-background="new 0 0 128 128" xml:space="preserve">
<g>
	<rect fill="#D34836" width="128" height="128"/>
	<polygon fill="#FFFFFF" points="112,56.152 96,56.152 96,72.129 88.008,72.129 88.008,56.152 72,56.152 72,48 88.008,48 88.008,32 
		96,32 96,48 112,48 	"/>
	<path fill="#FFFFFF" d="M62.305,72.111c-2.304-1.639-6.72-5.607-6.72-7.943c0-2.736,0.775-4.08,4.896-7.305
		c4.216-3.295,7.199-7.936,7.199-13.32c0-6.416-2.855-12.672-8.223-14.734h8.088l5.727-4.129h-25.52
		c-11.439,0-22.199,8.664-22.199,18.705c0,10.264,7.792,18.543,19.432,18.543l2.36-0.08c-0.753,1.449-1.296,3.072-1.296,4.768
		c0,2.857,1.535,5.168,3.472,7.049l-4.425,0.039c-14.168-0.008-25.071,9.025-25.071,18.377c0,9.215,11.952,14.984,26.12,14.984
		c16.151,0,25.07-9.16,25.072-18.377C71.217,81.305,69.049,76.879,62.305,72.111z M48.68,59.32
		c-6.575-0.193-12.823-7.352-13.959-15.984c-1.137-8.641,3.271-15.24,9.84-15.047c6.567,0.199,12.815,7.127,13.951,15.75
		C59.656,52.68,55.24,59.52,48.68,59.32z M46.104,103.008c-9.791,0-16.863-6.191-16.863-13.648c0-7.303,8.768-13.375,18.56-13.271
		c2.28,0.023,4.416,0.4,6.353,1.023c5.312,3.689,9.128,5.777,10.199,10.002c0.192,0.855,0.312,1.734,0.312,2.631
		C64.664,97.184,59.872,103.008,46.104,103.008z"/>
</g>
</svg>
