<?xml version="1.0" encoding="utf-8"?>
<!-- Generator: Adobe Illustrator 16.0.4, SVG Export Plug-In . SVG Version: 6.00 Build 0)  -->
<!DOCTYPE svg PUBLIC "-//W3C//DTD SVG 1.1//EN" "http://www.w3.org/Graphics/SVG/1.1/DTD/svg11.dtd">
<svg version="1.1" id="图层_1" xmlns="http://www.w3.org/2000/svg" xmlns:xlink="http://www.w3.org/1999/xlink" x="0px" y="0px"
	 width="128px" height="128px" viewBox="0 0 128 128" enable-background="new 0 0 128 128" xml:space="preserve">
<g>
	<rect fill="#40A3D5" width="128" height="128"/>
	<path fill="#FFFFFF" d="M31.394,21.121c6.612,0,10.687,4.344,10.812,10.049c0,5.584-4.2,10.046-10.939,10.046h-0.125
		c-6.488,0-10.682-4.462-10.682-10.046C20.46,25.465,24.779,21.121,31.394,21.121L31.394,21.121 M88.39,47.798
		c12.719,0,22.255,8.312,22.255,26.181v33.349H91.312V76.214c0-7.819-2.801-13.154-9.793-13.154c-5.341,0-8.524,3.596-9.921,7.069
		c-0.512,1.241-0.636,2.977-0.636,4.716v32.482H51.63c0,0,0.256-52.708,0-58.165h19.336V57.4
		C73.534,53.435,78.129,47.798,88.39,47.798L88.39,47.798 M21.599,49.166h19.332v58.164H21.599V49.166z"/>
</g>
</svg>
