<?xml version="1.0" encoding="utf-8"?>
<!-- Generator: Adobe Illustrator 16.0.4, SVG Export Plug-In . SVG Version: 6.00 Build 0)  -->
<!DOCTYPE svg PUBLIC "-//W3C//DTD SVG 1.1//EN" "http://www.w3.org/Graphics/SVG/1.1/DTD/svg11.dtd">
<svg version="1.1" id="图层_1" xmlns="http://www.w3.org/2000/svg" xmlns:xlink="http://www.w3.org/1999/xlink" x="0px" y="0px"
	 width="128px" height="128px" viewBox="0 0 128 128" enable-background="new 0 0 128 128" xml:space="preserve">
<g>
	<rect x="0" fill="#1DA1F2" width="128" height="128"/>
	<path fill="#FFFFFF" d="M110.629,35.485c-3.371,1.5-7,2.51-10.803,2.964c3.883-2.328,6.867-6.015,8.271-10.409
		c-3.637,2.156-7.66,3.723-11.947,4.565c-3.432-3.655-8.32-5.94-13.732-5.94c-10.389,0-18.81,8.423-18.81,18.812
		c0,1.473,0.166,2.909,0.487,4.286C48.459,48.98,34.598,41.49,25.318,30.11c-1.617,2.774-2.546,6.009-2.546,9.456
		c0,6.527,3.32,12.285,8.369,15.658c-3.084-0.097-5.985-0.943-8.519-2.353C22.62,52.95,22.62,53.03,22.62,53.11
		c0,9.114,6.484,16.717,15.088,18.447c-1.576,0.429-3.238,0.656-4.953,0.656c-1.211,0-2.393-0.116-3.544-0.336
		c2.397,7.474,9.346,12.913,17.575,13.064c-6.438,5.045-14.55,8.055-23.364,8.055c-1.519,0-3.015-0.092-4.487-0.265
		c8.326,5.339,18.215,8.452,28.838,8.452c34.603,0,53.523-28.667,53.523-53.524c0-0.815-0.014-1.629-0.053-2.434
		C104.918,42.574,108.107,39.26,110.629,35.485z"/>
</g>
</svg>
