<?xml version="1.0" encoding="utf-8"?>
<!-- Generator: Adobe Illustrator 16.0.4, SVG Export Plug-In . SVG Version: 6.00 Build 0)  -->
<!DOCTYPE svg PUBLIC "-//W3C//DTD SVG 1.1//EN" "http://www.w3.org/Graphics/SVG/1.1/DTD/svg11.dtd">
<svg version="1.1" id="图层_1" xmlns="http://www.w3.org/2000/svg" xmlns:xlink="http://www.w3.org/1999/xlink" x="0px" y="0px"
	 width="80px" height="80px" viewBox="0 0 80 80" enable-background="new 0 0 80 80" xml:space="preserve">
<path fill="#1E1E1C" d="M42.104,71.214l-0.615-0.042c0.06-0.879,0.438-1.648,0.802-2.395c0.144-0.293,0.287-0.584,0.409-0.881
	c0.38-0.929,0.507-2.069,0.355-3.209c-0.076-0.584-0.248-1.209-0.494-1.812c-0.191-0.472-0.426-0.94-0.653-1.396
	c-0.119-0.242-0.238-0.479-0.353-0.719L41.4,60.436c-0.223-0.461-0.45-0.94-0.646-1.43c-0.488-1.224-0.665-2.236-0.555-3.189
	c0.09-0.793,0.384-1.666,0.798-2.399l-0.031-0.019c0.524-0.92,1.092-1.744,1.741-2.512l0.04-0.05
	c0.502-0.596,1.021-1.211,1.155-1.959c0.125-0.698-0.098-1.504-0.625-2.269c-0.48-0.699-1.16-1.301-2.023-1.795
	c-0.355-0.203-0.744-0.39-1.223-0.59c-0.214-0.088-0.428-0.172-0.644-0.254c-0.078-0.029-0.156-0.07-0.235-0.111
	c-0.115-0.06-0.237-0.118-0.313-0.113l-0.045-0.614c0.252-0.021,0.467,0.093,0.64,0.181l0.173,0.084
	c0.221,0.084,0.44,0.17,0.659,0.26c0.505,0.21,0.916,0.41,1.292,0.623c0.943,0.539,1.692,1.205,2.227,1.979
	c0.439,0.638,0.92,1.628,0.722,2.728c-0.163,0.912-0.761,1.621-1.288,2.248l-0.041,0.048c-0.51,0.604-0.969,1.243-1.393,1.94
	l0.045,0.032l-0.016,0.022c-0.512,0.716-0.905,1.736-1.004,2.607c-0.097,0.85,0.066,1.768,0.516,2.893
	c0.188,0.471,0.412,0.938,0.629,1.392l0.156,0.328c0.111,0.237,0.229,0.472,0.346,0.707c0.232,0.466,0.473,0.946,0.673,1.438
	c0.267,0.649,0.451,1.33,0.535,1.963c0.164,1.246,0.022,2.498-0.397,3.523c-0.125,0.309-0.274,0.613-0.424,0.919
	C42.488,69.771,42.154,70.455,42.104,71.214"/>
<path fill="#1E1E1C" d="M37.705,45.07l-0.081-0.004c-0.333-0.028-0.43-0.213-0.458-0.318l0.595-0.157
	c-0.024-0.088-0.087-0.133-0.115-0.141c0.08,0.022,0.33-0.017,0.431-0.065l0.073-0.158l0.229,0.033
	c0.142-0.082,0.12-0.626,0.113-0.803c-0.005-0.122-0.009-0.23-0.005-0.311c0.005-0.11,0.004-0.23,0.001-0.354
	c-0.003-0.214-0.006-0.436,0.023-0.648c0.012-0.099,0.032-0.19,0.049-0.281c0.03-0.145,0.054-0.268,0.054-0.409h0.615
	c0,0.203-0.033,0.37-0.065,0.53c-0.015,0.078-0.031,0.156-0.044,0.244c-0.021,0.166-0.019,0.363-0.016,0.556
	c0.001,0.136,0.003,0.269-0.003,0.394c-0.002,0.065,0.001,0.153,0.006,0.254c0.019,0.446,0.042,1.002-0.279,1.289
	c-0.077,0.07-0.2,0.146-0.376,0.157C38.238,45.027,37.898,45.07,37.705,45.07"/>
<path fill="#1E1E1C" d="M34.089,45.889c-0.278,0-0.559-0.021-0.818-0.084c-0.782-0.195-1.262-0.468-1.468-0.832l0.536-0.304
	c0.065,0.117,0.293,0.343,1.081,0.537c0.363,0.091,0.83,0.067,1.24,0.046l0.108-0.005c0.24-0.011,0.553-0.194,0.67-0.392
	c0.153-0.26,0.139-0.508,0.119-0.851l-0.009-0.164c-0.012-0.262-0.004-0.545,0.021-0.819l0.614,0.06
	c-0.025,0.245-0.031,0.498-0.021,0.733l0.01,0.154c0.022,0.383,0.044,0.777-0.204,1.199c-0.221,0.373-0.723,0.671-1.17,0.693
	l-0.106,0.006C34.499,45.876,34.294,45.889,34.089,45.889"/>
<path fill="#1E1E1C" d="M36.38,45.562c-0.119,0-0.236-0.008-0.348-0.017c-0.144-0.009-0.289-0.021-0.428-0.009l-0.046-0.615
	c0.168-0.011,0.342-0.001,0.515,0.01c0.278,0.021,0.516,0.035,0.724-0.058c0.239-0.11,0.365-0.396,0.499-0.698
	c0.242-0.551,0.302-1.076,0.363-1.635c0.022-0.186,0.042-0.376,0.071-0.57l0.609,0.086c-0.027,0.188-0.048,0.373-0.068,0.553
	c-0.067,0.606-0.13,1.18-0.399,1.785c-0.171,0.388-0.367,0.832-0.821,1.039C36.826,45.536,36.599,45.562,36.38,45.562"/>
<path fill="#1E1E1C" d="M43.568,34.149c0.188-0.067,0.326-0.116,0.326-0.116c-0.133-0.223-0.289-0.493-0.479-0.821
	c-0.366-0.626-0.446-1.197-0.509-1.823c-0.039-0.409-0.031-0.865,0.023-1.396c0.129-1.201,0.868-2.631,1.719-3.324l0.389,0.476
	c-0.727,0.594-1.383,1.872-1.494,2.912c-0.053,0.489-0.059,0.904-0.023,1.272c0.066,0.672,0.15,1.099,0.426,1.574
	c0.356,0.611,0.586,0.988,0.728,1.219c0.069,0.074,0.127,0.156,0.172,0.228c0.283,0.418,0.47,0.993,0.481,1.031
	c0.275,0.856,0.168,1.73-0.322,2.6c-0.361,0.638-0.799,1.056-1.38,1.317c-0.38,0.171-0.771,0.288-1.149,0.402
	c-0.391,0.116-0.76,0.228-1.115,0.392l-0.207,0.094c-0.587,0.269-1.195,0.545-1.618,1.016c-0.626,0.697-1.529,1.279-2.844,1.833
	c-0.475,0.198-1.081,0.562-1.489,0.834c-0.353,0.233-0.611,0.36-0.91,0.506c-0.12,0.058-0.249,0.121-0.397,0.196
	c-0.425,0.221-1.04,0.431-1.583,0.615c-0.211,0.072-0.41,0.142-0.579,0.203c-0.121,0.045-0.154,0.067-0.205,0.103
	c-0.064,0.043-0.134,0.09-0.299,0.159c-0.079,0.033-0.159,0.074-0.24,0.115c-0.187,0.094-0.379,0.192-0.599,0.238
	c-0.102,0.021-0.205,0.04-0.307,0.059l-0.19,0.035c-0.104,0.021-0.208,0.043-0.311,0.067c-0.279,0.062-0.567,0.126-0.868,0.138
	l-0.107,0.002l-0.135,0.008l-0.575-0.096c0.083-0.521,0.519-0.525,0.705-0.527l0.085-0.002c0.247-0.01,0.497-0.064,0.761-0.125
	c0.11-0.022,0.219-0.047,0.328-0.067l0.196-0.037c0.098-0.019,0.195-0.036,0.291-0.056c0.141-0.029,0.289-0.105,0.448-0.186
	c0.092-0.047,0.185-0.093,0.278-0.133c0.108-0.046,0.153-0.076,0.196-0.105c0.082-0.055,0.159-0.102,0.335-0.168
	c0.173-0.062,0.377-0.133,0.593-0.207c0.523-0.178,1.115-0.381,1.5-0.58c0.152-0.078,0.285-0.144,0.41-0.203
	c0.291-0.143,0.52-0.254,0.838-0.465c0.21-0.141,0.943-0.617,1.591-0.89c1.211-0.509,2.069-1.057,2.625-1.676
	c0.508-0.567,1.175-0.87,1.821-1.164l0.204-0.093c0.395-0.184,0.803-0.305,1.196-0.424c0.376-0.111,0.731-0.219,1.073-0.373
	c0.463-0.209,0.8-0.534,1.095-1.059c0.409-0.723,0.499-1.414,0.274-2.109c-0.084-0.263-0.19-0.497-0.289-0.679
	c-0.067-0.074-0.147-0.188-0.254-0.358c0,0-0.303,0.002-0.655,0.005"/>
<path fill="#1E1E1C" d="M38.468,26.768l-0.192-0.585c0.686-0.226,1.264-0.648,1.877-1.095c0.495-0.363,1.007-0.738,1.587-1.004
	c0.402-0.183,0.811-0.3,1.216-0.345c0.778-0.087,1.662-0.041,2.709,0.14c0.712,0.123,1.677,0.291,2.278,0.844
	c0.318,0.295,0.281,0.561,0.229,0.693c-0.222,0.565-1.414,0.59-1.426,0.59v-0.615c0.244,0,0.664-0.088,0.816-0.18l-0.036-0.036
	c-0.468-0.429-1.329-0.578-1.959-0.688c-0.996-0.174-1.826-0.219-2.542-0.137c-0.34,0.039-0.688,0.137-1.028,0.293
	c-0.522,0.24-0.989,0.581-1.481,0.941C39.893,26.04,39.247,26.512,38.468,26.768"/>
<path fill="#1E1E1C" d="M44.871,27.223l-0.185-0.587c0.56-0.175,1.136-0.324,1.694-0.468c0.972-0.251,1.978-0.51,2.895-0.911
	c1.077-0.469,2.52-1.286,3.271-2.513c0.589-0.959,0.967-2.263,0.939-3.244c-0.009-0.346-0.123-0.677-0.244-1.028
	c-0.037-0.111-0.076-0.223-0.111-0.336c-0.305-0.973-0.875-1.853-1.377-2.631c-0.326-0.506-0.703-1.005-1.066-1.488
	c-0.232-0.312-0.467-0.623-0.691-0.94c-0.191-0.271-0.396-0.537-0.597-0.804c-0.427-0.563-0.87-1.145-1.224-1.781
	c-0.137-0.248-0.24-0.506-0.34-0.756c-0.101-0.254-0.195-0.495-0.322-0.717l-0.168-0.283c-0.258-0.431-0.502-0.838-0.605-1.412
	l0.605-0.11c0.084,0.464,0.29,0.808,0.527,1.205c0.058,0.096,0.115,0.192,0.174,0.293c0.148,0.26,0.258,0.532,0.361,0.797
	c0.096,0.242,0.188,0.471,0.305,0.684c0.334,0.597,0.763,1.162,1.177,1.709c0.207,0.271,0.413,0.543,0.608,0.82
	c0.221,0.311,0.451,0.618,0.683,0.926c0.37,0.492,0.752,1,1.09,1.523c0.524,0.81,1.117,1.728,1.448,2.781
	c0.033,0.108,0.07,0.213,0.105,0.319c0.131,0.379,0.268,0.771,0.277,1.214c0.029,1.105-0.375,2.511-1.029,3.581
	c-0.836,1.363-2.392,2.252-3.552,2.756c-0.961,0.42-1.991,0.685-2.985,0.942C45.983,26.907,45.414,27.054,44.871,27.223"/>
<path fill="#1E1E1C" d="M36.539,27.83c-1.677,0-3.243-1.126-3.988-2.914c-0.354-0.85-0.549-1.833-0.564-2.843
	c-0.008-0.455,0.023-0.922,0.091-1.428c0.024-0.183,0.071-0.366,0.121-0.548c0.07-0.266,0.138-0.518,0.115-0.756l0.613-0.059
	c0.033,0.349-0.051,0.666-0.133,0.973c-0.042,0.158-0.085,0.314-0.107,0.472c-0.064,0.475-0.091,0.913-0.086,1.336
	c0.015,0.934,0.193,1.838,0.518,2.616c0.584,1.404,1.973,2.727,3.784,2.513c0.887-0.102,1.608-0.634,2.27-1.172l0.387,0.479
	c-0.7,0.568-1.535,1.183-2.585,1.305C36.829,27.821,36.684,27.83,36.539,27.83"/>
</svg>
