<?xml version="1.0" encoding="utf-8"?>
<!-- Generator: Adobe Illustrator 16.0.4, SVG Export Plug-In . SVG Version: 6.00 Build 0)  -->
<!DOCTYPE svg PUBLIC "-//W3C//DTD SVG 1.1//EN" "http://www.w3.org/Graphics/SVG/1.1/DTD/svg11.dtd">
<svg version="1.1" id="图层_1" xmlns="http://www.w3.org/2000/svg" xmlns:xlink="http://www.w3.org/1999/xlink" x="0px" y="0px"
	 width="126px" height="42px" viewBox="0 0 126 42" enable-background="new 0 0 126 42" xml:space="preserve">
<path fill="#1E1E1C" fill-opacity="0.64" d="M98.641,15.748c-0.699,0-1.182,0.931-1.179,1.525c0.004,0.668,0.435,1.42,0.786,1.958
	C99.044,20.458,103.751,27,113,27c-0.916-2.197-1.094-3.977,0.826-5.644c2.219-2.218,8.681-4.19,9.775-4.552
	c-0.604-1.211-3.75-1.057-4.717-1.057C117.921,15.747,99.338,15.748,98.641,15.748z"/>
<path stroke="#C6C6C6" d="M0,27c7,0,12.5-6,12.5-13.5S18,0,25,0h63c7,0,12.5,6,12.5,13.5S106,27,113,27v13H0V27z"/>
</svg>
