<?xml version="1.0" encoding="utf-8"?>
<!-- Generator: Adobe Illustrator 16.0.4, SVG Export Plug-In . SVG Version: 6.00 Build 0)  -->
<!DOCTYPE svg PUBLIC "-//W3C//DTD SVG 1.1//EN" "http://www.w3.org/Graphics/SVG/1.1/DTD/svg11.dtd">
<svg version="1.1" id="Layer_1" xmlns="http://www.w3.org/2000/svg" xmlns:xlink="http://www.w3.org/1999/xlink" x="0px" y="0px"
	 width="20px" height="20px" viewBox="0 0 20 20" enable-background="new 0 0 20 20" xml:space="preserve">
<g>
	<path class="icon-awesome__skyblue" fill="#939598" d="M5.554,17.058c0.007-0.283-0.037-0.527-0.079-0.81c-0.037-0.252,0.029-0.568,0.105-0.812
		c0.053-0.164,0.068-0.354,0.08-0.526c0.015-0.173,0.062-0.31,0.094-0.482c0.036-0.174,0.093-0.357,0.146-0.523
		c0.043-0.133,0.076-0.289,0.131-0.421c0.107-0.258,0.299-0.468,0.458-0.683c0.078-0.104,0.139-0.153,0.257-0.195
		c0.066-0.02,0.134-0.036,0.19-0.077c0.028-0.018,0.053-0.06,0.082-0.073c0.072-0.032,0.17,0.021,0.241-0.027
		c0.047-0.028,0.074-0.093,0.12-0.128c0.091-0.072,0.204-0.107,0.302-0.164c0.228-0.133,0.409-0.129,0.641-0.254
		c0.08-0.04,0.351-0.131,0.432-0.166c0.181-0.087,0.384-0.188,0.569-0.259c0.327-0.125,0.515-0.254,0.818-0.42
		c0.131-0.08,0.276-0.14,0.4-0.228c0.133-0.1,0.195-0.213,0.28-0.36c0.092-0.159,0.138-0.286,0.153-0.472
		c0.015-0.175,0.004-0.354,0.002-0.525c-0.002-0.152,0.04-0.307-0.002-0.446c-0.056-0.179-0.148-0.352-0.183-0.545
		c-0.061-0.334-0.155-0.681-0.165-1.021c-0.203-0.043-0.303-0.235-0.369-0.428c-0.047-0.143-0.072-0.28-0.102-0.424
		c-0.029-0.156-0.109-0.261-0.104-0.428c0.007-0.205,0.029-0.477,0.19-0.612c0.031-0.028,0.106-0.044,0.125-0.079
		c0.029-0.049,0-0.161-0.005-0.218c-0.013-0.147-0.043-0.293-0.044-0.441c-0.002-0.126-0.039-0.243-0.041-0.375
		c-0.003-0.139-0.01-0.271-0.013-0.413c-0.001-0.263,0-0.521,0.087-0.759c0.047-0.119,0.077-0.231,0.14-0.344
		c0.048-0.093,0.068-0.2,0.124-0.284c0.032-0.05,0.176-0.22,0.225-0.204c-0.003-0.131,0.131-0.253,0.209-0.335
		c0.05-0.052,0.122-0.096,0.186-0.144c0.045-0.029,0.118-0.064,0.149-0.107c-0.001,0-0.001,0-0.002,0.002
		c0.136-0.112,0.316-0.224,0.488-0.278c0.095-0.031,0.2-0.09,0.271-0.165C12.136,1.4,12.208,1.453,12.2,1.452
		c0.068,0.022,0.096-0.087,0.165-0.096c0.076-0.007,0.187,0.022,0.264,0.01c0.084-0.008,0.187,0.035,0.271,0.038
		c0.12,0.005,0.218,0.072,0.338,0.034c0.176-0.062,0.4-0.036,0.584-0.015c0.206,0.027,0.41,0.154,0.586,0.257
		c0.256,0.153,0.481,0.387,0.701,0.58c0.132,0.114,0.216,0.162,0.275,0.33c0.057,0.165,0.147,0.218,0.188,0.384
		c0,0.004,0.138,0.532,0.082,0.528c-0.062-0.002,0.063,0.004,0.065,0.094c0.003,0.078,0,0,0.001,0.076
		c0.003,0.147-0.017,0.501-0.012,0.728c0,0.082-0.087,0.247-0.078,0.333c0.007,0.2-0.049,0.39-0.038,0.587
		c-0.001,0.064-0.027,0.285-0.03,0.352c-0.006,0.091-0.083-0.05-0.048,0.036c0.031,0.076,0.163,0.176,0.181,0.26
		c0.014,0.053,0.03,0.101,0.045,0.158c0.021,0.095-0.034,0.388-0.056,0.482c-0.07,0.322-0.039,0.532-0.227,0.805
		c-0.056,0.078-0.065,0.214-0.153,0.258c-0.064,0.033-0.239,0.034-0.309,0.034c-0.103,0.001-0.036,0.041-0.049,0.15
		c-0.027,0.195-0.046,0.366-0.096,0.559c-0.031,0.117-0.055,0.23-0.086,0.337c-0.032,0.101-0.035,0.207-0.047,0.313
		c-0.017,0.121,0.012,0.224,0.01,0.342c0.005,0.149-0.035,0.298-0.024,0.446c0.016,0.168,0.1,0.322,0.13,0.487
		c0.031,0.145,0.081,0.292,0.191,0.395c0.22,0.205,0.458,0.361,0.724,0.506c0.111,0.062,0.226,0.15,0.34,0.212
		c0.11,0.063,0.231,0.101,0.346,0.157c0.173,0.087,0.303,0.231,0.473,0.318c0.323,0.173,0.655,0.344,0.979,0.512
		c0.12,0.065,0.233,0.146,0.352,0.207c0.053,0.027,0.1,0.06,0.147,0.086c0.207,0.111,0.413,0.208,0.601,0.359
		c0.156,0.125,0.271,0.235,0.387,0.399c0.226,0.32,0.397,0.675,0.5,1.06c0.017,0.074,0.017,0.146,0.021,0.221
		c0.017,0.202,0.018,0.409,0.037,0.614c0.023,0.229,0.057,0.457,0.057,0.689c0.003,0.192-0.012,0.389-0.01,0.585
		c0.001,0.139,0.047,0.327-0.001,0.462"/>
	<path class="icon-awesome__blue" fill="#FFFFFF" stroke="#6D6E71" stroke-width="1.2217" stroke-linejoin="round" stroke-miterlimit="10" d="M0.802,18.431
		c-0.007-0.246-0.054-0.453-0.104-0.708c-0.042-0.217,0-0.497,0.06-0.713c0.041-0.139,0.046-0.31,0.05-0.469
		c0.006-0.152,0.042-0.272,0.063-0.423c0.025-0.153,0.067-0.316,0.108-0.462c0.033-0.124,0.056-0.257,0.098-0.381
		c0.084-0.229,0.244-0.423,0.376-0.62c0.066-0.096,0.119-0.14,0.222-0.18c0.056-0.02,0.117-0.034,0.164-0.075
		c0.024-0.015,0.043-0.053,0.068-0.067c0.062-0.03,0.152,0.011,0.212-0.034c0.04-0.033,0.063-0.085,0.101-0.117
		c0.077-0.07,0.176-0.106,0.259-0.16c0.197-0.127,0.358-0.129,0.558-0.252c0.068-0.039,0.304-0.127,0.375-0.169
		c0.157-0.078,0.333-0.184,0.495-0.248c0.283-0.121,0.444-0.251,0.706-0.403c0.114-0.075,0.237-0.138,0.343-0.221
		c0.113-0.088,0.166-0.192,0.234-0.326c0.074-0.138,0.11-0.258,0.116-0.42c0.005-0.157-0.011-0.309-0.019-0.457
		c-0.01-0.135,0.021-0.273-0.022-0.396c-0.057-0.157-0.145-0.3-0.184-0.464c-0.067-0.294-0.162-0.592-0.187-0.891
		C4.713,9.743,4.616,9.582,4.551,9.417C4.501,9.292,4.476,9.17,4.443,9.05C4.411,8.917,4.336,8.826,4.334,8.677
		C4.331,8.492,4.34,8.256,4.476,8.131c0.026-0.025,0.091-0.045,0.108-0.072c0.022-0.05-0.005-0.143-0.013-0.192
		C4.551,7.74,4.521,7.612,4.514,7.482C4.506,7.37,4.469,7.271,4.462,7.153c-0.009-0.12-0.021-0.237-0.028-0.358
		C4.421,6.566,4.411,6.337,4.479,6.123c0.037-0.106,0.06-0.205,0.109-0.305C4.626,5.731,4.64,5.638,4.686,5.56
		c0.026-0.046,0.148-0.2,0.191-0.188c-0.007-0.11,0.106-0.227,0.17-0.302c0.044-0.049,0.105-0.09,0.161-0.137
		C5.245,4.91,5.309,4.872,5.334,4.836c-0.002,0-0.004,0-0.004,0c0.118-0.102,0.272-0.206,0.421-0.268
		c0.085-0.026,0.174-0.085,0.234-0.155c-0.003-0.002,0.06,0.041,0.053,0.04C6.1,4.466,6.121,4.376,6.182,4.363
		C6.25,4.357,6.348,4.375,6.416,4.36c0.072-0.007,0.166,0.022,0.238,0.02c0.11-0.002,0.196,0.057,0.301,0.015
		c0.156-0.064,0.354-0.05,0.519-0.04c0.183,0.011,0.368,0.119,0.527,0.198c0.232,0.122,0.442,0.323,0.646,0.479
		c0.118,0.091,0.197,0.128,0.254,0.276c0.059,0.139,0.14,0.183,0.184,0.327c0,0,0.146,0.458,0.094,0.454
		C9.123,6.091,9.234,6.095,9.241,6.175c0.005,0.067,0,0,0.002,0.064c0.01,0.129,0.006,0.445,0.02,0.641
		c0.002,0.072-0.065,0.216-0.058,0.296c0.018,0.178-0.025,0.344-0.008,0.516C9.2,7.745,9.185,7.941,9.185,8.005
		c0,0.075-0.073-0.043-0.039,0.03c0.03,0.062,0.149,0.145,0.169,0.215C9.33,8.298,9.347,8.343,9.359,8.39
		C9.385,8.472,9.345,8.73,9.331,8.815c-0.047,0.286-0.012,0.468-0.165,0.72C9.119,9.604,9.115,9.724,9.04,9.767
		c-0.054,0.03-0.211,0.039-0.272,0.04C8.677,9.813,8.736,9.843,8.73,9.94c-0.016,0.173-0.024,0.325-0.061,0.494
		c-0.021,0.106-0.037,0.203-0.063,0.295c-0.025,0.097-0.023,0.186-0.03,0.276c-0.008,0.113,0.023,0.196,0.029,0.304
		c0.006,0.135-0.025,0.259-0.006,0.396c0.021,0.143,0.099,0.278,0.134,0.416c0.034,0.131,0.083,0.254,0.185,0.339
		c0.204,0.177,0.419,0.291,0.66,0.41c0.102,0.048,0.205,0.122,0.311,0.178c0.1,0.049,0.209,0.072,0.312,0.114
		c0.154,0.068,0.274,0.196,0.431,0.26c0.293,0.138,0.592,0.274,0.887,0.41c0.108,0.048,0.21,0.111,0.321,0.164
		c0.048,0.015,0.086,0.037,0.133,0.062c0.186,0.091,0.373,0.168,0.545,0.291c0.143,0.102,0.25,0.193,0.358,0.334
		c0.215,0.274,0.38,0.577,0.483,0.906c0.021,0.066,0.023,0.131,0.031,0.194c0.022,0.177,0.036,0.359,0.061,0.54
		c0.027,0.188,0.066,0.394,0.077,0.6c0.009,0.167,0.005,0.336,0.014,0.506c0.007,0.126,0.052,0.289,0.017,0.406"/>
</g>
</svg>
