<?xml version="1.0" encoding="utf-8"?>
<!-- Generator: Adobe Illustrator 16.0.4, SVG Export Plug-In . SVG Version: 6.00 Build 0)  -->
<!DOCTYPE svg PUBLIC "-//W3C//DTD SVG 1.1//EN" "http://www.w3.org/Graphics/SVG/1.1/DTD/svg11.dtd">
<svg version="1.1" id="Layer_1" xmlns="http://www.w3.org/2000/svg" xmlns:xlink="http://www.w3.org/1999/xlink" x="0px" y="0px"
	 width="18px" height="18px" viewBox="0 0 18 18" enable-background="new 0 0 18 18" xml:space="preserve">
<g>
	<path class="icon-book__green" fill="#808285" d="M15.017,2.364c-0.594-1.322-2.555-1.66-4.641-1.102c-1.46,0.391-2.574,1.328-3.05,2.41
		C6.37,2.973,4.937,2.721,3.478,3.112c-2.083,0.558-3.606,1.851-3.47,3.274l2.652,9.897c0.115,0.432,0.51,0.729,0.955,0.721
		l0.239-0.006c0.203-0.002,0.394-0.104,0.513-0.266c0.529-0.725,1.458-1.518,2.204-1.717c1.388-0.371,2.855-0.014,3.333,0.783
		c0.09,0.346,0.447,0.551,0.791,0.457c0.346-0.092,0.553-0.447,0.459-0.793c0.016-0.928,1.105-1.973,2.494-2.342
		c0.734-0.197,1.961,0.025,2.768,0.383c0.188,0.082,0.4,0.074,0.576-0.025l0.211-0.115c0.389-0.217,0.582-0.67,0.467-1.102
		L15.017,2.364z M6.237,13.764c-1.037,0.279-1.863,0.998-2.463,1.668L1.407,6.598C1.348,5.581,2.431,4.731,3.813,4.362
		c2.002-0.537,3.056,0.534,3.424,1.486l2.153,8.037C8.492,13.529,7.374,13.461,6.237,13.764z M13.313,11.869
		c-1.137,0.305-2.07,0.924-2.672,1.68l-2.15-8.028C8.336,4.51,8.749,3.04,10.71,2.514c1.383-0.371,2.744-0.178,3.205,0.733
		l2.365,8.833C15.425,11.801,14.351,11.59,13.313,11.869z"/>
	<path class="icon-book__subgreen" fill="#fff" d="M6.237,13.763c-1.037,0.279-1.863,0.998-2.463,1.668L1.407,6.598C1.349,5.58,2.432,4.73,3.813,4.361
		C5.815,3.824,6.87,4.895,7.237,5.848l2.153,8.036C8.493,13.528,7.374,13.46,6.237,13.763z M13.288,11.9
		c-1.163,0.308-2.118,0.932-2.734,1.693L8.353,5.5c-0.159-1.018,0.264-2.5,2.271-3.03c1.415-0.374,2.808-0.179,3.279,0.738
		l2.421,8.906C15.449,11.831,14.35,11.619,13.288,11.9z"/>
</g>
</svg>