<?xml version="1.0" encoding="utf-8"?>
<!-- Generator: Adobe Illustrator 16.0.4, SVG Export Plug-In . SVG Version: 6.00 Build 0)  -->
<!DOCTYPE svg PUBLIC "-//W3C//DTD SVG 1.1//EN" "http://www.w3.org/Graphics/SVG/1.1/DTD/svg11.dtd">
<svg version="1.1" id="Layer_1" xmlns="http://www.w3.org/2000/svg" xmlns:xlink="http://www.w3.org/1999/xlink" x="0px" y="0px"
	 width="18px" height="18px" viewBox="0 0 18 18" enable-background="new 0 0 18 18" xml:space="preserve">
<g>
	<path fill="#939598" d="M7.574,6.793C7.399,6.143,7.816,5.51,8.594,5.255L9.239,7.66C8.312,7.712,7.739,7.41,7.574,6.793z
		 M13.135,11.296c0.193,0.721-0.243,1.35-1.143,1.675l-0.678-2.527C12.362,10.358,12.958,10.637,13.135,11.296z M12.891,16.321
		L12.6,15.236c2.793-1,4.025-2.828,3.418-5.094c-0.52-1.937-1.994-2.825-4.386-2.649l-1.085,0.085L9.838,4.931
		c0.754-0.071,1.459,0.372,1.654,1.036l2.918-0.781c-0.575-2.042-2.585-3.048-5.203-2.607L8.891,1.397L7.649,1.73l0.314,1.172
		C5.23,3.849,4.001,5.685,4.599,7.917c0.507,1.893,2.008,2.802,4.326,2.703l1.091-0.06l0.734,2.743
		c-0.928,0.146-1.746-0.268-1.989-1.002l-3.013,0.807c0.598,2.195,2.658,3.113,5.614,2.479l0.286,1.068L12.891,16.321z"/>
	<path class="icon-dollar__gold" fill="#FFFFFF" d="M5.544,6.888C5.369,6.237,5.786,5.604,6.564,5.349l0.645,2.405C6.283,7.807,5.709,7.505,5.544,6.888z
		 M11.105,11.391c0.192,0.721-0.244,1.35-1.143,1.674l-0.677-2.526C10.332,10.453,10.928,10.73,11.105,11.391z M10.86,16.416
		l-0.291-1.086c2.794-0.999,4.025-2.828,3.418-5.094c-0.519-1.936-1.994-2.824-4.385-2.649L8.518,7.673l-0.71-2.648
		c0.753-0.072,1.458,0.372,1.655,1.036l2.918-0.782c-0.576-2.042-2.585-3.048-5.203-2.607L6.861,1.492L5.62,1.824l0.314,1.172
		C3.201,3.943,1.971,5.78,2.569,8.011c0.507,1.893,2.007,2.804,4.325,2.703l1.091-0.06l0.735,2.743
		c-0.928,0.146-1.747-0.267-1.99-1.003l-3.013,0.808c0.597,2.194,2.658,3.112,5.615,2.479l0.286,1.067L10.86,16.416z"/>
	<path fill="#58595B" d="M5.544,6.888L5.837,6.81c-0.02-0.074-0.029-0.146-0.029-0.216c0-0.194,0.069-0.379,0.211-0.548
		C6.16,5.878,6.375,5.73,6.659,5.638L6.564,5.349L6.271,5.428l0.644,2.405l0.293-0.078L7.191,7.451
		C7.128,7.455,7.067,7.457,7.008,7.457c-0.367,0-0.64-0.07-0.822-0.179C6.004,7.166,5.897,7.027,5.837,6.81L5.544,6.888L5.25,6.967
		c0.092,0.354,0.314,0.65,0.624,0.832c0.31,0.184,0.693,0.264,1.133,0.265c0.071,0,0.144-0.002,0.218-0.006l0.373-0.021L6.774,4.961
		l-0.305,0.1C6.093,5.184,5.779,5.389,5.555,5.654C5.331,5.919,5.2,6.248,5.201,6.594c0,0.124,0.016,0.249,0.049,0.373L5.544,6.888z
		 M11.105,11.391l-0.293,0.078c0.023,0.09,0.034,0.173,0.034,0.253c-0.001,0.214-0.074,0.402-0.233,0.585
		c-0.16,0.182-0.412,0.35-0.754,0.473l0.103,0.285l0.293-0.078l-0.677-2.527l-0.293,0.079l0.024,0.303
		c0.115-0.01,0.224-0.015,0.324-0.015c0.382,0,0.657,0.068,0.834,0.174c0.177,0.107,0.279,0.241,0.344,0.469L11.105,11.391
		l0.293-0.078c-0.092-0.355-0.31-0.654-0.621-0.836c-0.311-0.182-0.693-0.256-1.143-0.257c-0.119,0-0.244,0.005-0.374,0.017
		l-0.363,0.029l0.857,3.197l0.311-0.113c0.416-0.15,0.758-0.364,1.003-0.641c0.244-0.276,0.387-0.622,0.385-0.987
		c0-0.136-0.018-0.272-0.055-0.409L11.105,11.391z M10.86,16.416l0.293-0.078l-0.29-1.086l-0.294,0.078l0.103,0.286
		c1.197-0.429,2.135-1.011,2.781-1.735c0.646-0.723,0.991-1.596,0.989-2.546c0-0.382-0.054-0.774-0.161-1.177
		c-0.251-0.94-0.732-1.682-1.434-2.172c-0.701-0.491-1.604-0.725-2.674-0.724c-0.192,0-0.39,0.007-0.594,0.022h0L8.746,7.351
		L8.102,4.947L7.808,5.025l0.029,0.302c0.044-0.004,0.087-0.006,0.131-0.006c0.283,0,0.552,0.088,0.765,0.236
		s0.369,0.354,0.439,0.59l0.084,0.284l3.5-0.938l-0.084-0.295c-0.26-0.927-0.806-1.672-1.557-2.171
		c-0.75-0.501-1.697-0.76-2.762-0.76c-0.393,0-0.803,0.035-1.226,0.106l0.05,0.299l0.293-0.079L7.076,1.12L5.249,1.61l0.393,1.465
		l0.293-0.078L5.835,2.709c-1.176,0.408-2.101,0.98-2.739,1.698c-0.638,0.716-0.98,1.584-0.978,2.527
		c0,0.375,0.053,0.762,0.159,1.155c0.254,0.957,0.765,1.708,1.5,2.203c0.734,0.495,1.674,0.733,2.779,0.732
		c0.115,0,0.232-0.003,0.352-0.008h0.002l0.847-0.046l0.671,2.505l0.293-0.078l-0.047-0.3c-0.109,0.018-0.217,0.025-0.321,0.025
		c-0.333,0-0.63-0.086-0.859-0.23c-0.229-0.146-0.392-0.346-0.475-0.593l-0.09-0.272l-3.583,0.961l0.08,0.294
		c0.251,0.928,0.762,1.667,1.484,2.159c0.722,0.494,1.64,0.74,2.699,0.739c0.557,0,1.155-0.067,1.788-0.203l-0.063-0.297L9.04,15.76
		l0.365,1.36l1.828-0.489l-0.079-0.293L10.86,16.416l-0.079-0.293l-0.948,0.254l-0.282-1.054l-0.282,0.061
		c-0.597,0.128-1.153,0.19-1.661,0.19c-0.967,0-1.758-0.224-2.356-0.633c-0.598-0.411-1.019-1.01-1.241-1.818l-0.293,0.079
		l0.079,0.294l3.012-0.808l-0.078-0.294L6.443,12.49c0.128,0.389,0.391,0.705,0.727,0.916c0.337,0.212,0.746,0.324,1.183,0.324
		c0.136,0,0.275-0.012,0.416-0.033l0.333-0.053l-0.886-3.307L6.878,10.41l0.017,0.304L6.881,10.41
		c-0.111,0.005-0.22,0.008-0.326,0.008c-1.021,0-1.833-0.219-2.44-0.629C3.51,9.378,3.09,8.775,2.862,7.933
		C2.769,7.585,2.725,7.252,2.725,6.934C2.726,6.137,3.001,5.431,3.55,4.81c0.548-0.619,1.38-1.145,2.483-1.527L6.3,3.19L5.992,2.039
		l0.655-0.176l0.309,1.154l0.272-0.046C7.62,2.906,7.997,2.874,8.354,2.874c0.968,0,1.792,0.234,2.426,0.657
		c0.633,0.424,1.083,1.034,1.309,1.832l0.293-0.083l-0.079-0.293L9.384,5.769l0.079,0.293l0.291-0.086
		C9.641,5.595,9.395,5.278,9.079,5.059C8.763,4.84,8.376,4.714,7.968,4.714c-0.062,0-0.125,0.003-0.188,0.009L7.422,4.757
		L8.29,7.996L9.626,7.89H9.624c0.19-0.014,0.374-0.021,0.55-0.021c0.986,0,1.753,0.214,2.326,0.615
		c0.57,0.401,0.969,0.996,1.194,1.832c0.095,0.355,0.142,0.696,0.142,1.02c-0.002,0.806-0.279,1.515-0.836,2.142
		s-1.404,1.164-2.533,1.568l-0.263,0.094l0.363,1.355L10.86,16.416l-0.079-0.293L10.86,16.416z"/>
</g>
</svg>
