<?xml version="1.0" encoding="utf-8"?>
<!-- Generator: Adobe Illustrator 16.0.4, SVG Export Plug-In . SVG Version: 6.00 Build 0)  -->
<!DOCTYPE svg PUBLIC "-//W3C//DTD SVG 1.1//EN" "http://www.w3.org/Graphics/SVG/1.1/DTD/svg11.dtd">
<svg class="draft-icon" version="1.1" id="Layer_1" xmlns="http://www.w3.org/2000/svg" xmlns:xlink="http://www.w3.org/1999/xlink" x="0px" y="0px"
	 width="36px" height="36px" viewBox="0 0 36 36" enable-background="new 0 0 36 36" xml:space="preserve">
<g>
	<path fill="#241A16" d="M12.749,25.305l0.171-0.121c0.209-0.174,0.525-0.512,0.903-0.936c1.144-1.272,2.812-3.301,2.912-3.424
		L16.32,20.48c-0.068,0.086-0.935,1.138-1.837,2.188c-0.444,0.527-0.908,1.055-1.279,1.461c-0.185,0.201-0.348,0.373-0.473,0.496
		l-0.158,0.148l-0.046,0.037l-0.014,0.006l0.026,0.039l-0.021-0.039h-0.005l0.026,0.039l-0.021-0.039L12.749,25.305z"/>
	<polyline fill="#241A16" points="15.585,19.765 10.523,25.666 10.934,26.016 15.994,20.115 	"/>
	<path fill="#241A16" d="M34.396,5.288C34.47,5.4,34.498,5.512,34.499,5.64c0.003,0.242-0.119,0.545-0.301,0.837
		c-0.184,0.289-0.408,0.565-0.591,0.774c-0.495,0.579-1.101,1.119-1.694,1.634c-0.358,0.307-0.67,0.638-0.965,1.002l0.424,0.337
		c0.271-0.342,0.562-0.647,0.889-0.932c0.597-0.519,1.226-1.072,1.756-1.689c0.182-0.216,0.432-0.51,0.639-0.842
		c0.202-0.335,0.381-0.714,0.384-1.122c0.001-0.217-0.058-0.441-0.187-0.644L34.396,5.288z"/>
	<path fill="#241A16" d="M34.489,4.802c-0.107-0.018-0.227-0.023-0.336-0.023c-0.727,0-1.422,0.312-2.072,0.688
		c-0.644,0.375-1.246,0.822-1.735,1.122c-1.081,0.662-1.987,1.463-3.051,2.031c-2.775,1.481-5.222,3.347-7.368,5.659
		c-1.48,1.595-2.819,3.365-4.039,5.156v-0.002l-0.096,0.137l0.416,0.336l0.129-0.17l0,0c1.207-1.773,2.525-3.52,3.986-5.091
		c2.104-2.267,4.5-4.095,7.227-5.551c1.136-0.607,2.052-1.417,3.076-2.043c0.523-0.323,1.114-0.761,1.729-1.117
		c0.61-0.356,1.238-0.618,1.799-0.615c0.086,0,0.17,0.006,0.262,0.019L34.489,4.802z"/>
	<path fill="#241A16" d="M30.869,9.998c-0.337,0.727-0.921,1.426-1.488,2.046c-0.648,0.711-1.625,1.005-2.62,1.074l0,0
		c-0.026,0.003-0.162,0.01-0.31,0.033c-0.068,0.011-0.144,0.024-0.22,0.049l-0.125,0.068l-0.083,0.084l-0.046,0.163
		c0,0.081,0.033,0.149,0.064,0.188l0.094,0.087v0.001c0.198,0.129,0.396,0.135,0.548,0.158c0.157,0.018,0.265,0.043,0.319,0.083
		l0.058,0.063l0.013,0.057l-0.021,0.106c-0.088,0.309-0.422,0.663-0.711,0.983c-0.25,0.287-0.496,0.503-0.769,0.645
		c-0.267,0.142-0.558,0.219-0.923,0.219h-0.024l0.005,0.542h0.02c0.445,0,0.834-0.101,1.178-0.285
		c0.344-0.183,0.643-0.444,0.92-0.763c0.263-0.307,0.664-0.682,0.823-1.184c0.026-0.088,0.039-0.172,0.04-0.263
		c0-0.104-0.023-0.212-0.071-0.309c-0.056-0.096-0.128-0.176-0.217-0.243c-0.204-0.148-0.414-0.166-0.573-0.188
		c-0.166-0.018-0.278-0.04-0.314-0.071v0.001l-0.081,0.124l0.116-0.09l-0.035-0.033l-0.081,0.124l0.116-0.09l-0.182,0.139h0.224
		l-0.042-0.139l-0.182,0.139h0.224h-0.234l0.201,0.13l0.034-0.13h-0.235l0.201,0.13l-0.156-0.098l0.089,0.165l0.067-0.066
		l-0.156-0.098l0.089,0.165l-0.002-0.003l0.002,0.003l-0.002-0.003l0.002,0.003c0.016-0.011,0.119-0.029,0.201-0.042
		c0.087-0.008,0.168-0.016,0.182-0.016h0.002c1.065-0.074,2.193-0.387,2.981-1.248c0.576-0.63,1.198-1.362,1.579-2.178L30.869,9.998
		L30.869,9.998z"/>
	<path fill="#241A16" d="M23.231,16.322c0.236,0.128,0.549,0.22,0.804,0.333c0.124,0.058,0.226,0.12,0.284,0.169l0.062,0.093
		c0.003,0.017-0.019,0.097-0.145,0.235c-0.351,0.378-0.839,0.686-1.294,1.053c-0.448,0.365-0.854,0.751-1.305,1.011
		c-0.387,0.223-0.854,0.377-1.283,0.389h-0.031c-0.217,0-0.443-0.059-0.693-0.131c-0.25-0.07-0.522-0.158-0.829-0.18l-0.114-0.002
		c-0.473,0-0.879,0.174-1.248,0.338l0.223,0.492c0.356-0.164,0.693-0.291,1.025-0.291l0.08,0.004
		c0.223,0.012,0.459,0.082,0.715,0.156c0.25,0.072,0.529,0.15,0.842,0.152l0.039-0.002c0.553-0.012,1.088-0.197,1.547-0.459
		c0.525-0.307,0.947-0.717,1.371-1.061c0.418-0.34,0.935-0.656,1.355-1.104c0.173-0.19,0.281-0.381,0.283-0.6
		c0-0.21-0.115-0.383-0.239-0.491c-0.189-0.168-0.424-0.266-0.647-0.354c-0.222-0.089-0.436-0.163-0.538-0.221L23.231,16.322z"/>
	<path fill="#241A16" d="M16.289,20.798L16.28,20.9c0,0.074,0.014,0.168,0.086,0.256c0.073,0.09,0.191,0.123,0.268,0.121
		c0.091-0.002,0.153-0.027,0.209-0.051c0.168-0.078,0.293-0.188,0.384-0.279v-0.002c0.148-0.166,0.222-0.34,0.3-0.457
		c0.08-0.121,0.139-0.184,0.248-0.23l-0.197-0.502c-0.254,0.098-0.408,0.285-0.504,0.443c-0.102,0.161-0.168,0.299-0.25,0.385l0,0
		l-0.128,0.109l-0.073,0.041l-0.015,0.004l0.026,0.088v-0.09l-0.026,0.002l0.026,0.088v-0.09v0.195l0.146-0.123l-0.146-0.072v0.195
		l0.146-0.123l-0.145,0.115l0.181-0.05l-0.036-0.065l-0.145,0.115l0.181-0.05L16.732,20.9h0.088l-0.004-0.026L16.732,20.9h0.088
		l0.001-0.02L16.289,20.798z"/>
	<path fill="#241A16" d="M24.194,21.043l-0.152-0.029l-0.061-0.033l-0.033,0.019h0.037l-0.004-0.019l-0.033,0.019h0.037h-0.037
		l0.033,0.022l0.004-0.022h-0.037l0.033,0.022l-0.01-0.008l0.008,0.012l0.002-0.004l-0.01-0.008l0.008,0.012l0.002-0.002
		c0.031-0.025,0.123-0.041,0.244-0.041c0.062,0,0.129,0.007,0.2,0.007v-0.165l-0.007,0.162l0.007,0.003v-0.165l-0.007,0.162
		l0.003,0.003h0.012c0.084-0.003,0.171-0.003,0.258-0.003c0.135,0,0.277,0.003,0.415,0.003c0.097,0.001,0.192,0.001,0.287,0.001
		l0.004-0.541c-0.097,0-0.193,0-0.29,0c-0.136,0-0.279,0-0.416,0c-0.087,0-0.176,0-0.262,0l0.002,0.269l0.017-0.269h-0.022
		c-0.055,0-0.127-0.002-0.2-0.002c-0.149,0.002-0.333,0.004-0.521,0.113v-0.002c-0.152,0.09-0.257,0.254-0.257,0.44
		c0,0.101,0.031,0.2,0.09,0.284c0.087,0.125,0.205,0.197,0.316,0.236c0.106,0.041,0.214,0.055,0.305,0.061L24.194,21.043z"/>
	<path fill="#241A16" d="M23.942,22.29l-0.244-0.122v0.004c-0.015,0.027-0.062,0.107-0.107,0.184
		c-0.047,0.076-0.103,0.158-0.117,0.18c-0.034,0.049-0.176,0.18-0.3,0.285l-0.169,0.148l-0.066,0.062l-0.031,0.033l-0.05,0.069l0,0
		c-0.053,0.111-0.049,0.203-0.051,0.253v0.033c0,0.076-0.021,1.232-0.021,2.041c0,0.338,0.004,0.611,0.014,0.754
		c0.009,0.062,0.009,0.145,0.043,0.256c0.031,0.111,0.129,0.244,0.262,0.309l0.011,0.006l-0.011-0.006
		c0.226,0.109,0.424,0.079,0.538,0.092h0.002c0.03,0,0.087,0,0.188,0.002c0.702,0.004,3.267,0.01,4.554,0.01
		c0.219,0,0.403,0,0.531,0h0.154l0.042-0.002h0.04h0.003c0.104-0.01,0.202-0.043,0.3-0.096h-0.001l0.147-0.113
		c0.04-0.047,0.083-0.092,0.118-0.166l0.009-0.023l0.072-0.279l-0.26-0.068l0.25,0.104l0.022-0.086
		c0.009-0.057,0.009-0.125,0.009-0.227c0.012-0.305,0.018-0.852,0.018-1.371c0-0.313-0.002-0.615-0.006-0.843
		c-0.004-0.116-0.006-0.214-0.008-0.283l-0.004-0.092v-0.04l-0.019-0.07l-0.049-0.092c-0.042-0.052-0.092-0.105-0.164-0.18
		c-0.105-0.111-0.237-0.248-0.354-0.365l-0.142-0.157l-0.045-0.05l-0.007-0.012L28.96,22.43l0.088-0.047l-0.004-0.012L28.96,22.43
		l0.088-0.047c-0.058-0.105-0.109-0.213-0.131-0.279c-0.002-0.012-0.031-0.136-0.04-0.25c-0.017-0.121-0.025-0.251-0.024-0.318
		v-0.023h-0.005h0.005h-0.005h0.005l-0.148-0.022l0.146,0.04l0.003-0.018l-0.148-0.022l0.146,0.04l-0.172-0.049l0.093,0.151
		l0.079-0.104l-0.172-0.047l0.093,0.151l-0.068-0.106l0.048,0.114l0.021-0.008l-0.068-0.106l0.048,0.114l-0.018-0.039l0.012,0.041
		l0.006-0.002l-0.018-0.039l0.012,0.041l0.062-0.007c0.037-0.009,0.087-0.012,0.162-0.043h-0.001
		c0.187-0.093,0.293-0.254,0.337-0.415c0.019-0.069,0.033-0.146,0.033-0.229c0.002-0.118-0.033-0.262-0.138-0.377
		c-0.075-0.09-0.165-0.143-0.26-0.184c-0.097-0.037-0.196-0.062-0.303-0.062l-0.048,0.002l0.021,0.271l-0.018-0.271
		c-0.028,0.003-0.232,0.004-0.504,0.004c-0.824,0-2.407-0.01-3.418-0.012c-0.255,0.002-0.474,0.002-0.636,0.004
		c-0.083,0.002-0.15,0.002-0.199,0.002l-0.069,0.004l-0.032,0.006l-0.054,0.011h0.002c-0.197,0.065-0.334,0.202-0.42,0.382
		c-0.032,0.084-0.05,0.172-0.05,0.256c0,0.1,0.019,0.195,0.062,0.284c0.092,0.211,0.283,0.325,0.456,0.372l-0.002-0.002
		c0.076,0.023,0.125,0.031,0.125,0.031l0.044-0.106l-0.088,0.075l0.044,0.031l0.044-0.106l-0.088,0.075l0.109-0.092l-0.143,0.006
		l0.033,0.086l0.109-0.092l-0.143,0.006l0.15-0.006h-0.151l0.001,0.006l0.15-0.006h-0.151h0.019l-0.019-0.002v0.002h0.019
		l-0.019-0.002c-0.001,0.033-0.021,0.218-0.045,0.374c-0.012,0.081-0.026,0.157-0.033,0.213l-0.011,0.068l-0.004,0.011l0.198,0.052
		l-0.184-0.093l-0.015,0.041l0.198,0.052l-0.184-0.093L23.942,22.29l0.237,0.12l0.023-0.068l0.031-0.168
		c0.021-0.1,0.037-0.234,0.055-0.35l0.018-0.158l0.01-0.121v-0.016c-0.002-0.08-0.034-0.171-0.087-0.234
		c-0.085-0.096-0.174-0.127-0.231-0.143l-0.116-0.029H23.88c-0.077-0.025-0.096-0.049-0.116-0.08l-0.009-0.061l0.006-0.045
		l0.084-0.079h0.002l-0.064-0.2l0.028,0.211l0.036-0.011l-0.064-0.2l0.028,0.211h0.002c0.071-0.01,0.417-0.014,0.859-0.012
		c1.006-0.002,2.589,0.016,3.418,0.016c0.281,0,0.461,0,0.546-0.008v-0.001h0.002l0.095,0.022l0.062,0.036v0.001l0.003,0.023
		l-0.011,0.082l-0.051,0.074h-0.001l0.042,0.084l-0.02-0.091l-0.022,0.007l0.042,0.084l-0.02-0.091
		c-0.005,0.002-0.06,0.005-0.143,0.022l-0.154,0.069c-0.057,0.042-0.113,0.12-0.136,0.2l-0.015,0.146
		c0.002,0.113,0.013,0.251,0.029,0.385c0.018,0.139,0.037,0.248,0.06,0.337c0.049,0.153,0.121,0.277,0.174,0.38l0.08,0.111
		c0.097,0.11,0.264,0.283,0.416,0.438c0.07,0.077,0.143,0.152,0.191,0.202l0.06,0.062l0.003,0.012l0.173-0.13l-0.201,0.071
		l0.028,0.059l0.173-0.13l-0.201,0.071l0.197-0.066l-0.205,0.021l0.008,0.045l0.197-0.066l-0.205,0.021l0.005,0.128
		c0.003,0.214,0.007,0.631,0.007,1.067c0,0.365-0.003,0.75-0.005,1.045c-0.002,0.146-0.004,0.271-0.007,0.363l-0.006,0.102
		l-0.003,0.018l0.204,0.027l-0.188-0.082l-0.016,0.055l0.204,0.027l-0.188-0.082l-0.005,0.02l-0.076,0.277l0.264,0.068l-0.247-0.109
		l0.065,0.029l-0.062-0.035l-0.003,0.006l0.065,0.029l-0.062-0.035l-0.003,0.004L29.2,26.309l-0.007,0.006l-0.004,0.002
		l-0.085,0.025l0.026,0.27l-0.023-0.27v0.006v-0.006l0,0v0.006v-0.006c-0.065,0-0.343,0.002-0.722,0.002
		c-0.737,0-1.89-0.002-2.873-0.004c-0.491,0-0.939,0-1.274-0.004c-0.165-0.002-0.302-0.002-0.401-0.002l-0.117-0.002h-0.034h-0.015
		h0.001c-0.169-0.006-0.286-0.008-0.319-0.033l0,0l-0.004-0.002l-0.025,0.027l0.033-0.016l-0.008-0.012l-0.025,0.027l0.033-0.016
		l-0.014,0.006l0.014-0.006l0,0l-0.014,0.006l0.014-0.006c-0.002,0-0.01-0.055-0.019-0.148c-0.013-0.088-0.015-0.367-0.015-0.699
		c0-0.805,0.025-1.947,0.025-2.041v-0.033l0.002-0.031l-0.07-0.011l0.06,0.03l0.011-0.02l-0.07-0.011l0.06,0.03l0.001-0.002
		l-0.185-0.091l0.156,0.136l0.028-0.045l-0.185-0.091l0.156,0.136l-0.019-0.016l0.019,0.016l0,0l-0.019-0.016l0.019,0.016
		l0.089-0.079c0.072-0.062,0.166-0.143,0.256-0.226c0.091-0.083,0.175-0.164,0.243-0.249c0.048-0.066,0.106-0.155,0.162-0.243
		l0.073-0.125l0.045-0.087L23.942,22.29z"/>
	<path fill="#241A16" d="M23.976,23.218c-0.144,0-0.277,0.004-0.411,0.004c-0.082,0-0.155-0.002-0.23-0.005l-0.013,0.268
		l0.263,0.045l-0.029-0.004l0.026,0.012l0.003-0.008l-0.029-0.004l0.026,0.012l0.117-0.11c0.064-0.059,0.158-0.124,0.246-0.234
		c0.109-0.153,0.283-0.351,0.35-0.631l0.051-0.241l-0.267-0.081l-0.076,0.257l0.25,0.102l0.042-0.107l-0.499-0.202l-0.043,0.107
		l-0.114,0.272l0.311,0.094l0.08-0.256l-0.266-0.057c-0.013,0.096-0.129,0.266-0.252,0.421c-0.013,0.021-0.096,0.09-0.191,0.17
		l-0.152,0.151c-0.049,0.062-0.094,0.147-0.116,0.252l-0.044,0.294l0.296,0.018c0.088,0.006,0.177,0.007,0.262,0.007
		c0.139,0,0.278-0.005,0.411-0.005V23.218z"/>
	<path fill="#241A16" d="M23.511,24.696v-0.094c0-0.101,0-0.198-0.003-0.252l-0.54,0.024c0.002,0.029,0.004,0.137,0.004,0.228v0.083
		L23.511,24.696z"/>
	<path fill="#241A16" d="M23.511,24.174v-0.096c0-0.098,0-0.197,0-0.248l-0.54,0.025c0.001,0.031,0.004,0.133,0.004,0.223
		l-0.001,0.09l0.537,0.008V24.174z"/>
	<path fill="#241A16" d="M23.511,25.379v-0.086c0-0.172-0.002-0.385-0.004-0.47l-0.539,0.017c0.002,0.07,0.004,0.285,0.004,0.453
		v0.08L23.511,25.379z"/>
	<path fill="#241A16" d="M22.948,25.459c0,0.018,0.005,0.332,0.005,0.477v0.045v0.016l0,0l0.058,0.002l-0.058-0.002l0.058,0.002
		l-0.058-0.002l-0.005,0.094c0.002,0.066,0.007,0.146,0.037,0.234c0.03,0.084,0.091,0.174,0.18,0.238l0.015,0.012l0.125,0.07
		l0.052,0.027l0.208,0.016l0.04-0.537l-0.094-0.008l-0.056-0.029l-0.13,0.236l0.167-0.213l-0.003,0.002l0.003-0.002l0,0
		l-0.003,0.002l0.003-0.002l0,0l-0.004-0.047l0.004-0.062v-0.092c0-0.152-0.004-0.473-0.004-0.477H22.948z"/>
	<path fill="#241A16" d="M25.508,20.99c0.065-0.005,0.407-0.008,0.758-0.008c0.447,0,0.931,0.003,1.019,0.003v-0.009l-0.001,0.009
		h0.001v-0.009l-0.001,0.009l0.025-0.536h-0.024c-0.086,0-0.57-0.002-1.019-0.002c-0.357,0-0.688,0-0.786,0.004L25.508,20.99z"/>
	<path fill="#2472B1" d="M3.521,8.385C5.386,8.303,7.06,7.612,8.726,7.257c1.682-0.367,3.438-0.495,5.193-0.703
		c1.688-0.201,3.411-0.435,5.064-0.98c0.873-0.285,1.652-0.722,2.42-1.104c0.767-0.381,1.517-0.708,2.324-0.814l-0.108-0.792
		c-0.95,0.127-1.784,0.5-2.574,0.892c-0.784,0.394-1.534,0.806-2.311,1.059c-1.561,0.514-3.232,0.746-4.911,0.946
		c-1.732,0.206-3.512,0.333-5.269,0.714C6.797,6.857,5.169,7.519,3.487,7.585L3.521,8.385z"/>
	<path fill="#2472B1" d="M2.888,8.479c0.623,4.549,2.496,8.845,3.156,13.294C6.738,26.4,8.907,30.22,9.703,34.537l0.787-0.147
		c-0.844-4.485-3.002-8.294-3.659-12.735c-0.689-4.587-2.554-8.88-3.148-13.283L2.888,8.479z"/>
	<path fill="#2472B1" d="M10.54,34.863c2.202,0.002,3.918-0.361,5.939-0.98c1.589-0.495,3.267-0.451,5.031-1.043
		c1.375-0.463,2.895-1.088,4.413-1.594c1.524-0.508,3.046-0.891,4.396-0.891l0.201,0.002l0.023-0.799
		c-0.074,0-0.152-0.002-0.225-0.002c-1.499,0.002-3.089,0.411-4.649,0.93c-1.554,0.518-3.076,1.146-4.41,1.598
		c-1.596,0.542-3.265,0.504-5.018,1.034c-1.982,0.608-3.587,0.944-5.703,0.944V34.863z"/>
	<path fill="#2472B1" d="M23.478,3.879c0.432,0.853,0.771,2.279,0.768,3.413c0,0.227-0.014,0.441-0.042,0.639l0.795,0.108
		c0.033-0.24,0.047-0.49,0.047-0.748c-0.003-1.284-0.352-2.763-0.853-3.771L23.478,3.879z"/>
	<path fill="#2472B1" d="M26.619,16.543l-0.001,0.078c0.001,0.522,0.139,0.984,0.268,1.406c0.125,0.422,0.25,0.811,0.283,1.197
		l0.798-0.065c-0.045-0.509-0.194-0.957-0.319-1.367c-0.129-0.415-0.229-0.792-0.229-1.171l0.001-0.058L26.619,16.543z"/>
</g>
</svg>
