
<svg
    x="0"
    y="0"
    viewBox="0 0 100 24"
    className="icon dragFileIcon"
>
    <path
    fill="none"
    stroke="#666"
    stroke-width="0.25"
    stroke-miterlimit="10"
    d="M0,24C25.893,10.304,60.45,1.947,98.431,1.947"
    />
    <g>
    <path
        fill="#666"
        d="M8.17,16.073l-1.512,1.709l-0.752-0.854l-1.213,1.381v-3.906h3.342V13.87H4.92c-0.417,0-0.759,0.342-0.759,0.76v3.646c0,0.419,0.342,0.76,0.759,0.76h3.646c0.418,0,0.759-0.341,0.759-0.76v-0.929L8.17,16.073z"
    />
    <circle fill="#666" cx="5.598" cy="15.288" r="0.456" />
    <polygon
        fill="#666"
        points="10.161,14.782 9.401,14.782 9.401,13.946 8.87,13.946 8.87,14.782 8.035,14.782 8.035,15.313 8.87,15.313 8.87,16.073 9.401,16.073 9.401,15.313 10.161,15.313"
    />
    </g>
    <g>
    <path
        fill="#666"
        d="M32.623,7.687l-1.26,1.424l-0.626-0.712l-1.012,1.15V6.294h2.785V5.851h-2.595c-0.348,0-0.633,0.285-0.633,0.633v3.038c0,0.348,0.285,0.633,0.633,0.633h3.038c0.348,0,0.633-0.285,0.633-0.633V8.747L32.623,7.687z"
    />
    <circle fill="#666" cx="30.479" cy="7.032" r="0.38" />
    <polygon
        fill="#666"
        points="34.282,6.61 33.649,6.61 33.649,5.915 33.206,5.915 33.206,6.61 32.51,6.61 32.51,7.054 33.206,7.054 33.206,7.687 33.649,7.687 33.649,7.054 34.282,7.054"
    />
    </g>
    <g>
    <path
        fill="#666"
        d="M56.231,3.025l-1.008,1.139l-0.502-0.569l-0.809,0.921V1.911h2.228V1.557h-2.075c-0.279,0-0.507,0.228-0.507,0.506v2.431C53.559,4.772,53.786,5,54.065,5h2.43c0.278,0,0.507-0.228,0.507-0.506v-0.62L56.231,3.025z"
    />
    <circle fill="#666" cx="54.517" cy="2.502" r="0.304" />
    <polygon
        fill="#666"
        points="57.559,2.165 57.053,2.165 57.053,1.607 56.698,1.607 56.698,2.165 56.141,2.165 56.141,2.519 56.698,2.519 56.698,3.025 57.053,3.025 57.053,2.519 57.559,2.519"
    />
    </g>
    <g>
    <path
        fill="#666"
        d="M76.198,1.101l-0.756,0.854l-0.376-0.427l-0.606,0.69V0.266h1.67V0h-1.557c-0.209,0-0.379,0.171-0.379,0.379v1.823c0,0.209,0.17,0.38,0.379,0.38h1.822c0.209,0,0.381-0.171,0.381-0.38V1.737L76.198,1.101z"
    />
    <circle fill="#666" cx="74.912" cy="0.709" r="0.228" />
    <polygon
        fill="#666"
        points="77.194,0.456 76.813,0.456 76.813,0.038 76.548,0.038 76.548,0.456 76.13,0.456 76.13,0.721 76.548,0.721 76.548,1.101 76.813,1.101 76.813,0.721 77.194,0.721"
    />
    </g>
    <g>
    <path
        fill="#666"
        d="M99.171,0.734l-0.504,0.568l-0.25-0.283l-0.404,0.459V0.177h1.113V0h-1.039c-0.137,0-0.252,0.113-0.252,0.253v1.215c0,0.14,0.115,0.253,0.252,0.253h1.217c0.139,0,0.252-0.113,0.252-0.253v-0.31L99.171,0.734z"
    />
    <circle fill="#666" cx="98.313" cy="0.472" r="0.152" />
    <polygon
        fill="#666"
        points="99.835,0.303 99.583,0.303 99.583,0.025 99.403,0.025 99.403,0.303 99.126,0.303 99.126,0.48 99.403,0.48 99.403,0.734 99.583,0.734 99.583,0.48 99.835,0.48"
    />
    </g>
</svg>