<?xml version="1.0" encoding="utf-8"?>
<!-- Generator: Adobe Illustrator 16.0.4, SVG Export Plug-In . SVG Version: 6.00 Build 0)  -->
<!DOCTYPE svg PUBLIC "-//W3C//DTD SVG 1.1//EN" "http://www.w3.org/Graphics/SVG/1.1/DTD/svg11.dtd">
<svg version="1.1" id="Layer_1" xmlns="http://www.w3.org/2000/svg" xmlns:xlink="http://www.w3.org/1999/xlink" x="0px" y="0px"
	 width="48px" height="48px" viewBox="0 0 48 48" enable-background="new 0 0 48 48" xml:space="preserve">
<g>
  <g>
    <path d="M18.61,10.189c-0.646,0-1.247-0.41-1.463-1.055c-1.209-3.628,0.76-7.566,4.388-8.774
      c1.757-0.587,3.638-0.453,5.294,0.377c1.659,0.828,2.894,2.253,3.481,4.011c0.269,0.807-0.169,1.68-0.975,1.949
      c-0.81,0.27-1.682-0.167-1.95-0.975c-0.325-0.977-1.013-1.767-1.935-2.229c-0.919-0.461-1.963-0.534-2.94-0.209
      c-2.016,0.673-3.109,2.859-2.438,4.875c0.269,0.808-0.166,1.681-0.976,1.95C18.936,10.162,18.772,10.189,18.61,10.189z"/>
  </g>
  <g>
    <path d="M23.727,30.94c-2.991,0-5.635-1.908-6.579-4.745c-1.209-3.628,0.76-7.564,4.388-8.773
      c0.713-0.238,1.45-0.359,2.194-0.359c2.99,0,5.634,1.908,6.581,4.747c0.584,1.756,0.45,3.637-0.378,5.295
      c-0.828,1.656-2.253,2.893-4.01,3.479C25.211,30.82,24.473,30.94,23.727,30.94z M23.729,20.146c-0.413,0-0.822,0.067-1.219,0.2
      c-2.02,0.67-3.113,2.858-2.438,4.873c0.524,1.578,1.993,2.637,3.653,2.637c0.412,0,0.821-0.067,1.219-0.199
      c0.978-0.324,1.771-1.01,2.23-1.932c0.46-0.921,0.535-1.966,0.21-2.941C26.857,21.206,25.389,20.146,23.729,20.146z"/>
  </g>
  <g>
    <path d="M23.732,48c-2.903,0-5.619-1.841-6.585-4.743c-0.271-0.809,0.166-1.682,0.976-1.951
      c0.806-0.268,1.678,0.166,1.95,0.976c0.324,0.977,1.009,1.769,1.931,2.229c0.919,0.461,1.966,0.534,2.941,0.209
      c2.016-0.672,3.109-2.858,2.438-4.875c-0.27-0.806,0.168-1.68,0.975-1.948c0.81-0.27,1.682,0.167,1.95,0.973
      c1.209,3.631-0.76,7.566-4.385,8.775C25.195,47.886,24.457,48,23.732,48z"/>
  </g>
  <g>
    <path d="M22.02,20.425c-0.644,0-1.243-0.406-1.459-1.055L17.147,9.134c-0.269-0.808,0.166-1.681,0.976-1.95
      c0.81-0.27,1.681,0.167,1.95,0.975l3.412,10.236c0.269,0.81-0.169,1.683-0.975,1.952C22.348,20.4,22.183,20.425,22.02,20.425z"/>
  </g>
  <g>
    <path d="M20.316,15.308c-0.646,0-1.247-0.409-1.462-1.056c-0.27-0.808,0.168-1.68,0.975-1.949l5.119-1.706
      c0.806-0.269,1.681,0.167,1.95,0.974c0.269,0.809-0.169,1.683-0.976,1.951l-5.119,1.707
      C20.642,15.281,20.476,15.308,20.316,15.308z"/>
  </g>
  <g>
    <path d="M28.845,40.899c-0.644,0-1.247-0.407-1.462-1.056l-3.41-10.235c-0.269-0.809,0.166-1.682,0.973-1.951
      c0.809-0.27,1.684,0.168,1.953,0.977l3.409,10.234c0.269,0.811-0.166,1.684-0.976,1.952
      C29.173,40.875,29.008,40.899,28.845,40.899z"/>
  </g>
</g>
</svg>
