<svg class="icon-im" viewBox="0 0 42 42">
    <circle fill="#FFFFFF" cx="21.201" cy="20.8" r="20"/>
    <path fill="#1D1D1B" d="M26.832,16.129c-0.204-0.186-0.362-0.444-0.555-0.664c-0.226-0.254-0.495-0.507-0.661-0.789c-0.321-0.548-0.393-0.944-0.434-1.616c-0.04-0.628-0.364-1.138-0.747-1.645c-0.421-0.563-0.928-0.955-1.231-1.549c-0.307-0.595-0.985-0.418-1.341,0.114c-0.013-0.561-0.629-0.928-0.938-1.318c-0.185-0.232-0.473-0.507-0.8-0.42C19.91,8.3,19.712,8.544,19.759,8.791l-0.001-0.068c-0.076-0.215-0.041-0.483-0.044-0.713l0.035,0.103c0.125-0.729,0.975-1.355,1.712-1.248c0.885,0.13,1.603,0.895,2.076,1.598c0.532,0.795,0.895,1.695,1.37,2.525c0.44,0.766,1.004,1.473,1.368,2.275c0.439,0.96,0.437,2.036,0.459,3.069"/>
    <path fill="#1D1D1B" d="M26.875,16.082c-0.196-0.177-0.354-0.433-0.552-0.659c-0.227-0.257-0.492-0.508-0.653-0.778c-0.319-0.541-0.384-0.917-0.427-1.588c-0.042-0.649-0.372-1.169-0.758-1.677c-0.429-0.573-0.929-0.962-1.226-1.54c-0.143-0.282-0.381-0.412-0.621-0.407c-0.311,0.006-0.618,0.206-0.824,0.515l0.053,0.035l0.061-0.001c-0.021-0.609-0.658-0.977-0.95-1.356c-0.167-0.208-0.417-0.461-0.736-0.459l-0.133,0.018c-0.224,0.062-0.421,0.284-0.419,0.543l0.007,0.079l0.125-0.013l-0.001-0.068v-0.01l-0.004-0.009c-0.033-0.094-0.044-0.203-0.046-0.317c-0.002-0.124,0.008-0.252,0.006-0.375l-0.061,0.001l-0.06,0.021l0.033,0.103l0.08,0.229l0.042-0.24c0.105-0.631,0.811-1.201,1.465-1.208l0.176,0.011c0.857,0.123,1.566,0.874,2.033,1.572c0.534,0.788,0.892,1.688,1.372,2.522c0.443,0.771,1.004,1.478,1.363,2.271c0.432,0.944,0.433,2.01,0.453,3.045l0.125-0.003c-0.022-1.033-0.021-2.117-0.463-3.094c-0.372-0.811-0.937-1.521-1.37-2.281c-0.475-0.825-0.838-1.726-1.374-2.528c-0.479-0.71-1.203-1.49-2.12-1.626l-0.197-0.013c-0.72,0.015-1.461,0.608-1.586,1.312l0.062,0.011l0.059-0.021l-0.035-0.103l-0.123-0.371l0.006,0.392c0.002,0.115-0.012,0.245-0.01,0.375c0.002,0.121,0.016,0.244,0.055,0.357l0.062-0.021L19.7,8.725l0.001,0.068l0.062-0.001l0.061-0.012l-0.005-0.057c-0.005-0.188,0.158-0.378,0.327-0.42l0.102-0.014c0.238-0.007,0.476,0.211,0.633,0.412c0.325,0.403,0.918,0.769,0.925,1.281l0.005,0.2l0.108-0.165c0.186-0.284,0.47-0.458,0.722-0.459c0.199-0.002,0.382,0.093,0.511,0.339c0.314,0.609,0.823,1.002,1.238,1.558c0.381,0.505,0.693,1.002,0.732,1.609c0.04,0.675,0.114,1.089,0.441,1.645c0.175,0.292,0.446,0.545,0.669,0.798c0.189,0.214,0.348,0.474,0.562,0.668L26.875,16.082z"/>
    <path fill="#1D1D1B" d="M26.765,18.272c-0.065,0.704,0.694,0.953,1.003,1.42c0.148,0.225,0.53,1.816,0.206,1.932c-0.26-0.516-0.85-0.76-1.151-1.202c-0.418-0.613,0.07-1.216,0.013-1.88"/>
    <path fill="#1D1D1B" d="M26.702,18.265l-0.005,0.103c0.019,0.685,0.75,0.934,1.018,1.357c0.093,0.129,0.318,0.975,0.322,1.478c0.01,0.218-0.045,0.358-0.086,0.361l0.022,0.06l0.055-0.027c-0.274-0.541-0.87-0.787-1.154-1.21c-0.116-0.17-0.155-0.335-0.158-0.506c-0.01-0.384,0.192-0.795,0.188-1.25l-0.006-0.093l-0.125,0.01l0.006,0.084c0.008,0.416-0.192,0.823-0.188,1.25c0.001,0.19,0.049,0.384,0.181,0.575c0.32,0.462,0.904,0.707,1.146,1.196l0.023,0.049l0.053-0.019c0.153-0.068,0.17-0.256,0.17-0.481c-0.012-0.54-0.225-1.357-0.345-1.545c-0.319-0.469-0.995-0.711-0.995-1.29l0.003-0.09L26.702,18.265z"/>
    <path fill="#1D1D1B" d="M21.341,4.452c0.131-0.024,0.264-0.041,0.394-0.049l0.201-0.008c2.188-0.036,3.799,1.679,4.815,3.497c0.382,0.682,0.683,1.4,1.028,2.109c0.522,1.085,1.466,2.082,1.608,3.273l0.124-0.015c-0.154-1.247-1.111-2.252-1.618-3.313c-0.342-0.704-0.644-1.425-1.03-2.116c-1.024-1.831-2.664-3.594-4.928-3.561l-0.207,0.009c-0.14,0.008-0.272,0.026-0.407,0.051L21.341,4.452z"/>
    <path fill="#1D1D1B" d="M19.746,8.659c0.009,0.553,0.035,1,0.22,1.469c0.173,0.431,0.396,0.906,0.519,1.302c0.216,0.696,0.25,1.472,0.262,2.257c0.003,0.206,0.007,0.411,0.01,0.617l0.125-0.002c-0.003-0.205-0.006-0.411-0.01-0.617c-0.012-0.788-0.046-1.575-0.267-2.292c-0.127-0.409-0.354-0.886-0.522-1.312c-0.175-0.446-0.202-0.875-0.21-1.425L19.746,8.659z"/>
    <path fill="#1D1D1B" d="M21.864,10.004c0.013,0.18,0.021,0.361,0.024,0.543c0.026,1.698-0.334,3.512-0.428,5.227c-0.04,0.691-0.247,1.675-0.232,2.585c0.013,0.834,0.217,1.624,0.931,2.046l0.064-0.107c-0.66-0.389-0.857-1.12-0.87-1.941c-0.014-0.891,0.19-1.87,0.23-2.576c0.093-1.704,0.454-3.52,0.428-5.236c-0.003-0.185-0.01-0.369-0.022-0.55L21.864,10.004z"/>
    <path fill="#1D1D1B" d="M25.245,13.346c-0.082,0.262-0.147,0.682-0.288,1.035c-0.143,0.355-0.346,0.623-0.699,0.627l-0.096-0.004l-0.014,0.124l0.109,0.005c0.428-0.007,0.667-0.339,0.813-0.706c0.146-0.37,0.214-0.796,0.29-1.044L25.245,13.346L25.245,13.346z"/>
    <path fill="#1D1D1B" d="M26.83,18.435c-0.057-0.459-0.189-0.945-0.197-1.441c-0.001-0.108,0.003-0.217,0.015-0.328c0.055-0.517,0.499-1.074,0.929-1.454l-0.084-0.093c-0.441,0.394-0.905,0.959-0.97,1.534c-0.012,0.115-0.017,0.229-0.015,0.342c0.009,0.518,0.144,1.008,0.197,1.454L26.83,18.435z"/>
    <path fill="#1D1D1B" d="M26.745,20.487c-0.277-0.366-0.755-0.512-1.208-0.505c-0.289,0.004-0.571,0.071-0.796,0.189c-0.709,0.376-0.96,1.042-1.099,1.881l0.123,0.02c0.141-0.829,0.372-1.439,1.034-1.789c0.201-0.108,0.468-0.171,0.737-0.176c0.428-0.007,0.864,0.133,1.109,0.456L26.745,20.487z"/>
    <path fill="#1D1D1B" d="M29.549,27.515c-0.149-0.696-0.277-1.401-0.383-2.106c-0.074-0.505-0.111-1.01-0.119-1.515c-0.035-2.226,0.471-4.45,0.438-6.7c-0.039-2.441-1.131-4.672-2.844-6.389l-0.088,0.087c1.69,1.699,2.769,3.898,2.807,6.304c0.035,2.229-0.473,4.454-0.438,6.7c0.008,0.51,0.043,1.02,0.122,1.532c0.104,0.708,0.233,1.413,0.383,2.113L29.549,27.515z"/>
    <polyline fill="#8795CB" points="13.769,4.357 13.382,3.612 13.271,3.67 13.658,4.416 "/>
    <path fill="#666666" d="M11.387,37.188c0.067-0.825,0.633-1.496,0.804-2.292c0.193-0.897-0.079-1.792-0.479-2.595c-0.71-1.419-1.703-3.082-0.582-4.575l-0.186,0.247c0.026-0.204,0.147-0.458,0.393-0.711c0.248-0.254,0.617-0.508,0.861-0.889c1.222-1.895-1.174-3.106-2.68-3.584c-0.715-1.036,0.698-1.706,1.481-1.941c0.362-0.109,0.75-0.173,1.084-0.355c0.55-0.301,0.94-1.086,0.909-1.708c-0.019-0.333-0.242-0.569-0.475-0.781l0.147,0.155c-0.209-0.35-0.547-0.635-0.692-1.022c-0.102-0.274-0.112-0.653-0.13-0.943c-0.018-0.258-0.016-0.524,0.05-0.775c0.109-0.417,0.399-0.713,0.755-0.941c0.758-0.487,1.632-0.659,2.48-0.921c0.464-0.145,0.963-0.342,1.363-0.627c0.246-0.256,0.367-0.507,0.615-0.636c1.1-1.643,0.195-3.503-0.95-4.736c-0.891-0.987-1.783-1.973-2.24-3.222l-0.228-0.534c-0.066-0.141-0.152-0.274-0.268-0.385c2.251-1.186,5.089-1.594,7.603-1.589c0.053,0.774,0.188,1.398,0.407,2.059C21.355,3.97,21.232,4,21.1,3.978l-0.185,0.024C21.053,4.001,21.186,4,21.322,4l-0.056,0.059c-0.15,0.007-0.3,0.025-0.45,0.054l0.283-0.051c-0.379,0.02-0.649,0.192-0.998,0.265l0.132-0.046c-1.346,0.53-2.088,1.976-2.268,3.343c-0.241,1.831,0.732,3.446,1.125,5.177c0.312,1.368,0.282,2.781,0.439,4.171c0.131,1.158,0.398,2.306,0.836,3.386c0.643,1.578,1.652,2.873,2.939,3.967c0.557,0.474,5.261,4.475,5.785,3.153c0.033,0.168,0.246,1,0.024,1.075c-0.359,0.124-0.073-0.951-0.024-1.075c0.063,0.327,0.152,0.658,0.176,0.991c-0.101-0.295-0.198-0.682-0.176-0.991c0.678,3.118,2.096,5.721,2.774,8.964c0.002,0.125-0.123,0.252-0.123,0.252l-0.378-0.018l0.334-0.007c-2.93,1.964-6.43,3.129-10.198,3.188c-3.628,0.057-7.037-0.919-9.953-2.658l0.244-0.008"/>
    <path fill="#0B0404" d="M11.452,37.193c0.058-0.798,0.621-1.467,0.802-2.284c0.047-0.224,0.067-0.446,0.063-0.669c-0.011-0.688-0.246-1.355-0.55-1.968c-0.472-0.946-1.065-1.993-1.079-3.007c-0.008-0.51,0.126-1.012,0.494-1.501l-0.101-0.076l-0.186,0.247l0.051,0.038l0.061,0.007c0.022-0.186,0.14-0.429,0.378-0.674c0.241-0.248,0.615-0.504,0.869-0.897c0.246-0.38,0.35-0.739,0.344-1.071c-0.035-1.368-1.846-2.217-3.061-2.606l-0.019,0.06l0.05-0.036c-0.128-0.186-0.181-0.354-0.184-0.509c-0.028-0.662,1-1.151,1.629-1.336c0.357-0.11,0.75-0.171,1.098-0.36c0.562-0.311,0.952-1.075,0.944-1.713l-0.003-0.053c-0.02-0.362-0.262-0.611-0.496-0.823l-0.086,0.088l0.147,0.154l0.396,0.42l-0.297-0.496c-0.217-0.361-0.551-0.645-0.684-1.011c-0.098-0.259-0.108-0.634-0.128-0.926l-0.009-0.205c-0.003-0.188,0.014-0.373,0.058-0.55c0.104-0.396,0.38-0.68,0.727-0.904c0.744-0.479,1.613-0.65,2.464-0.914c0.468-0.147,0.975-0.345,1.38-0.637l0.006-0.003l0.004-0.004c0.256-0.265,0.377-0.509,0.598-0.625l0.018-0.007l0.008-0.014c0.368-0.549,0.517-1.126,0.508-1.694c-0.019-1.163-0.688-2.283-1.463-3.119l-0.046,0.042l0.046-0.042c-0.893-0.987-1.775-1.968-2.227-3.201V4.313l-0.229-0.535V3.777V3.775c-0.071-0.145-0.161-0.286-0.28-0.402l-0.044,0.045l0.028,0.055c2.117-1.117,4.765-1.542,7.167-1.579c0.137-0.002,0.27-0.003,0.404-0.002l0.001-0.062l-0.062,0.004c0.053,0.779,0.189,1.41,0.412,2.075l0.06-0.02l-0.046-0.042L21.19,3.924l-0.078-0.006l-0.01-0.002L20.91,3.942l0.008,0.125c0.141,0,0.273-0.001,0.41-0.002l-0.001-0.062L21.28,3.959l-0.056,0.059l0.046,0.043L21.268,4c-0.154,0.008-0.308,0.027-0.46,0.055l0.021,0.123l0.285-0.052l-0.016-0.124c-0.396,0.022-0.671,0.198-1.006,0.266l0.013,0.062l0.022,0.059l0.13-0.046l-0.021-0.059l-0.022-0.059c-1.375,0.543-2.125,2.013-2.306,3.393c-0.032,0.228-0.044,0.451-0.041,0.672c0.027,1.586,0.821,3.019,1.166,4.527c0.311,1.358,0.28,2.768,0.438,4.164c0.13,1.163,0.398,2.317,0.841,3.403c0.645,1.589,1.661,2.892,2.958,3.992c0.239,0.203,1.251,1.064,2.367,1.872c1.123,0.808,2.332,1.566,3.025,1.561c0.227,0,0.409-0.098,0.489-0.306l-0.059-0.023l-0.062,0.013c0.023,0.112,0.121,0.499,0.123,0.769l-0.017,0.176l-0.042,0.062l-0.031,0.006l-0.037-0.032l-0.026-0.152c-0.006-0.277,0.123-0.748,0.149-0.816l-0.057-0.022l-0.062,0.012c0.067,0.329,0.157,0.66,0.176,0.984l0.062-0.005l0.06-0.021c-0.088-0.255-0.173-0.583-0.177-0.858l0.002-0.107l-0.061-0.006l-0.062,0.013c0.685,3.132,2.101,5.733,2.776,8.966l0.061-0.013l-0.062,0.001l-0.053,0.138l-0.054,0.068l0.046,0.043l0.003-0.062l-0.377-0.018l-0.003,0.062l0.001,0.062l0.333-0.008l-0.001-0.062l-0.033-0.053c-2.921,1.957-6.407,3.12-10.166,3.18c-3.617,0.057-7.013-0.916-9.922-2.65l-0.03,0.054l0.001,0.062l0.244-0.008l-0.004-0.125l-0.244,0.008l-0.213,0.006l0.184,0.109c2.926,1.746,6.348,2.725,9.986,2.668c3.782-0.061,7.294-1.229,10.231-3.201l0.178-0.12l-0.547,0.015l-0.001,0.125l0.377,0.017l0.027,0.002l0.02-0.021c0.003-0.006,0.14-0.131,0.142-0.296v-0.006V36.43c-0.683-3.255-2.099-5.857-2.776-8.964l-0.093-0.427l-0.03,0.434l-0.004,0.119c0.004,0.298,0.094,0.633,0.184,0.896l0.158,0.458l-0.035-0.482c-0.025-0.341-0.114-0.676-0.178-0.999l-0.041-0.212l-0.079,0.2c-0.033,0.093-0.161,0.552-0.158,0.864l0.035,0.203l0.153,0.104l0.07-0.013c0.132-0.057,0.144-0.203,0.143-0.357c-0.004-0.291-0.104-0.685-0.125-0.79l-0.043-0.206l-0.077,0.194c-0.063,0.156-0.182,0.22-0.375,0.228c-0.613,0.015-1.84-0.731-2.95-1.537c-1.11-0.805-2.12-1.664-2.36-1.867c-1.28-1.091-2.285-2.377-2.923-3.944c-0.435-1.074-0.701-2.216-0.831-3.371c-0.159-1.383-0.126-2.799-0.441-4.178c-0.351-1.531-1.139-2.956-1.161-4.501c-0.003-0.215,0.009-0.433,0.039-0.653c0.176-1.352,0.916-2.776,2.226-3.293l-0.042-0.117l-0.13,0.045l0.033,0.121c0.362-0.077,0.627-0.246,0.986-0.264l-0.003-0.062l-0.013-0.062l-0.283,0.051l0.023,0.123c0.146-0.027,0.294-0.046,0.442-0.053l0.021-0.001l0.075-0.078l0.102-0.105l-0.145,0.001c-0.139,0-0.273,0.001-0.41,0.001l0.001,0.062l0.009,0.062l0.183-0.024L21.1,3.975l-0.009,0.062l0.099,0.008c0.109-0.001,0.214-0.04,0.288-0.117L21.502,3.9l-0.014-0.036c-0.218-0.658-0.353-1.274-0.405-2.043l-0.002-0.058h-0.059c-0.135,0-0.27,0-0.407,0.002c-2.416,0.038-5.081,0.464-7.224,1.593l-0.078,0.04l0.063,0.06c0.105,0.104,0.189,0.23,0.256,0.367l0.056-0.027l-0.058,0.024l0.227,0.534l0.059-0.025l-0.059,0.022c0.459,1.264,1.358,2.255,2.249,3.242l0,0.001c0.765,0.82,1.415,1.921,1.431,3.036c0.008,0.544-0.131,1.093-0.486,1.623l0.051,0.035l-0.026-0.056c-0.269,0.146-0.39,0.402-0.632,0.648l0.044,0.043l-0.036-0.05c-0.39,0.279-0.885,0.474-1.344,0.618c-0.846,0.262-1.724,0.435-2.498,0.93c-0.36,0.231-0.666,0.54-0.78,0.976c-0.05,0.192-0.064,0.389-0.061,0.584l0.011,0.212c0.02,0.288,0.026,0.669,0.132,0.96c0.153,0.406,0.496,0.694,0.696,1.032l0.056-0.032l0.044-0.043l-0.145-0.154L12.519,18l-0.042,0.047c0.232,0.209,0.44,0.433,0.453,0.737l0.002,0.049c0.011,0.588-0.368,1.327-0.877,1.601c-0.32,0.176-0.706,0.239-1.071,0.35c-0.642,0.197-1.72,0.663-1.722,1.458c0.003,0.184,0.067,0.376,0.205,0.578l0.014,0.018l0.02,0.006c1.209,0.378,2.965,1.244,2.975,2.488c0.005,0.305-0.091,0.639-0.326,1.003c-0.234,0.367-0.598,0.617-0.852,0.878c-0.255,0.26-0.386,0.525-0.412,0.746l-0.027,0.231l0.327-0.434l-0.103-0.074c-0.383,0.509-0.527,1.045-0.517,1.578c0.017,1.062,0.624,2.119,1.091,3.062c0.299,0.604,0.528,1.254,0.538,1.913c0.003,0.213-0.017,0.427-0.062,0.641c-0.164,0.776-0.735,1.449-0.806,2.299L11.452,37.193z"/>
    <path fill="#1D1D1B" d="M6.048,10.374l0.002,0.058c0.005,0.199-0.087,0.41-0.117,0.637c-0.026,0.216-0.04,0.434-0.037,0.654L5.9,11.789c0.014,0.483,0.111,0.973,0.31,1.419c0.354,0.803,1.12,1.42,2.019,1.407l0.219-0.017h0.002c0.512-0.07,0.916-0.363,1.292-0.67l-0.04-0.048l0.022,0.059c0.635-0.223,1.066-0.751,1.63-1.018c0.161-0.077,0.33-0.129,0.505-0.151c0.117-0.015,0.234-0.023,0.354-0.025c0.287-0.004,0.579,0.025,0.86,0.069c0.319,0.05,0.736,0.118,0.968,0.328l0.06,0.085l-0.039,0.051c-0.098,0.073-0.357,0.114-0.436,0.113l0.002,0.125c0.066-0.001,0.205-0.018,0.331-0.056c0.123-0.041,0.258-0.091,0.266-0.235l-0.101-0.177c-0.277-0.245-0.712-0.305-1.033-0.357c-0.288-0.045-0.585-0.075-0.882-0.07c-0.123,0.002-0.246,0.01-0.369,0.026c-0.187,0.023-0.37,0.08-0.541,0.161c-0.599,0.288-1.028,0.81-1.621,1.013l-0.01,0.003L9.66,13.83c-0.374,0.306-0.756,0.58-1.228,0.645H8.426h0.006L8.227,14.49c-0.836,0.013-1.566-0.567-1.902-1.333c-0.192-0.429-0.286-0.902-0.299-1.372L6.022,11.72c-0.003-0.213,0.011-0.425,0.037-0.637c0.022-0.202,0.12-0.417,0.116-0.653l-0.003-0.07L6.048,10.374z"/>
    <path fill="#4C411F" d="M20.893,1.882c-0.062,0.155-0.086,0.325-0.084,0.499c0.011,0.59,0.297,1.267,0.304,1.805L21.1,4.378l0.062,0.008l-0.011-0.062c-0.396,0.071-0.776,0.22-1.106,0.453c-0.582,0.418-0.932,1.091-1.265,1.683c-0.143,0.255-0.246,0.544-0.321,0.823c-0.1,0.365-0.135,0.75-0.129,1.128c0.003,0.175,0.016,0.349,0.032,0.521c0.125,1.125,0.533,2.196,0.911,3.243c0.586,1.623,0.396,3.41,0.61,5.125c0.216,1.72,0.787,3.444,1.729,4.916c0.829,1.294,2.022,2.177,3.161,3.159c0.614,0.527,1.257,1.044,1.982,1.435c0.301,0.162,1.322,0.753,1.9,0.748c0.102-0.002,0.193-0.023,0.269-0.075l-0.036-0.05l-0.001,0.062l0.43,0.012l0.001-0.062l-0.062,0.013c0.307,1.452,0.698,2.887,1.143,4.307c0.216,0.687,1.392,3.16,1.408,4.34c0.004,0.221-0.034,0.389-0.111,0.486l0.052,0.038l0.047,0.038l0.149-0.199l-0.051-0.038l0.033,0.052c5.099-3.487,8.404-9.372,8.3-15.995c-0.114-7.253-4.287-13.496-10.329-16.609c-2.611-1.346-5.569-2.107-8.702-2.116v0.125c3.109,0.009,6.05,0.765,8.644,2.102c6.002,3.094,10.149,9.293,10.263,16.5c0.104,6.579-3.18,12.424-8.242,15.889l-0.012,0.006l-0.153,0.208l0.101,0.076c0.105-0.137,0.14-0.332,0.136-0.564c-0.021-1.236-1.203-3.704-1.412-4.375c-0.442-1.417-0.835-2.849-1.141-4.296l-0.011-0.049l-0.479-0.013l-0.021-0.002L28.85,27.38c-0.042,0.032-0.108,0.051-0.194,0.053c-0.506,0.012-1.544-0.57-1.84-0.733c-0.709-0.385-1.345-0.895-1.96-1.42c-1.143-0.986-2.323-1.862-3.138-3.133c-0.931-1.454-1.499-3.16-1.713-4.863c-0.214-1.694-0.016-3.492-0.616-5.152c-0.38-1.049-0.784-2.11-0.904-3.214c-0.019-0.168-0.029-0.338-0.032-0.508c-0.006-0.371,0.029-0.743,0.125-1.095c0.074-0.272,0.175-0.552,0.31-0.796c0.333-0.594,0.68-1.249,1.229-1.641c0.309-0.221,0.678-0.363,1.055-0.432l0.045-0.008l0.005-0.045l0.013-0.211c-0.011-0.576-0.295-1.25-0.302-1.805c-0.002-0.163,0.019-0.313,0.073-0.449L20.893,1.882z"/>
    <path fill="#4C411F" d="M20.999,1.815c0.012,0.766,0.128,1.462,0.297,2.162l0.054,0.054c0.096,0.039,0.39,0.074,0.691,0.109c0.298,0.034,0.597,0.064,0.643,0.073c0.495,0.094,0.991,0.224,1.423,0.469c0.729,0.413,1.506,1.074,1.989,1.738c1.346,1.847,2.311,3.962,3.182,6.055c0.399,0.96,0.511,1.83,0.691,2.859c0.077,0.444,0.143,0.898,0.15,1.349c0.006,0.371-0.029,0.737-0.126,1.096l-0.068,0.243l0.173-0.183c1.088-1.155,1.742-2.611,2.259-4.061c0.521-1.469,1.193-2.977,1.458-4.527c0.097-0.581,0.309-1.154,0.354-1.763l0.003-0.143c-0.01-0.664-0.462-0.952-0.914-1.378c-0.281-0.265-0.584-0.507-0.904-0.725c-0.713-0.49-1.474-0.926-2.229-1.347c-1.736-0.97-3.625-1.478-5.568-1.858c-1.162-0.228-2.351-0.266-3.526-0.248l0.002,0.125c1.173-0.019,2.35,0.02,3.5,0.245c1.941,0.381,3.816,0.885,5.533,1.845c0.753,0.422,1.51,0.855,2.217,1.341c0.313,0.215,0.61,0.453,0.891,0.713c0.468,0.441,0.864,0.694,0.874,1.29l-0.004,0.132c-0.042,0.586-0.252,1.156-0.352,1.752c-0.261,1.529-0.929,3.032-1.453,4.506c-0.512,1.443-1.163,2.882-2.231,4.018l0.046,0.042l0.061,0.016c0.102-0.373,0.137-0.752,0.131-1.13c-0.008-0.46-0.075-0.92-0.152-1.369c-0.179-1.023-0.292-1.907-0.696-2.886c-0.875-2.094-1.842-4.219-3.198-6.079C25.7,5.666,24.914,4.998,24.17,4.575c-0.452-0.253-0.962-0.387-1.463-0.482c-0.065-0.013-0.392-0.044-0.711-0.082c-0.156-0.019-0.312-0.038-0.429-0.057l-0.137-0.026l-0.031-0.009l-0.004,0.006l0.004-0.005V3.919l-0.004,0.006l0.004-0.005L21.37,3.962l0.051-0.012L21.399,3.92l-0.027,0.042l0.051-0.012c-0.171-0.693-0.283-1.38-0.295-2.135l-0.126,0.002V1.815H20.999z"/>
    <path fill="#0B0404" d="M6.024,23.206c-0.165,0.066-0.134,0.085-0.271,0.145c-0.138,0.062-0.267,0.146-0.392,0.175H5.359l0,0c-0.082,0.021-0.167,0.033-0.259,0.052l0.016,0.062l-0.014-0.062c-0.199,0.041-0.393,0.101-0.584,0.11H4.52H4.516l-0.18,0.018C4.268,23.723,4.21,23.79,4.2,23.884l0.125,0.018l0.047-0.078l0.15-0.011L4.519,23.75l0.003,0.062c0.211-0.012,0.411-0.073,0.604-0.113l0,0c0.084-0.019,0.17-0.03,0.261-0.053L5.37,23.584l0.015,0.062c0.158-0.038,0.293-0.129,0.417-0.183c0.167-0.075,0.127-0.089,0.268-0.143L6.024,23.206z"/>
    <path fill="#0B0404" d="M9.779,21.26c-0.341,0.297-0.775,0.522-1.183,0.699c-0.262,0.113-0.581,0.306-0.811,0.46c-0.242,0.164-0.391,0.221-0.657,0.358c-0.287,0.152-0.79,0.308-1.101,0.428l0.045,0.115c0.307-0.117,0.81-0.272,1.116-0.434c0.258-0.133,0.417-0.193,0.668-0.363c0.226-0.15,0.542-0.343,0.792-0.45c0.413-0.181,0.857-0.41,1.215-0.719L9.779,21.26z"/>
    <path fill="#1D1D1B" d="M28.936,27.391c-0.044,0.032-0.11,0.051-0.196,0.052c-0.506,0.012-1.542-0.569-1.838-0.733c-0.709-0.388-1.347-0.898-1.96-1.428c-1.143-0.987-2.325-1.868-3.138-3.141c-0.931-1.46-1.497-3.171-1.714-4.882c-0.214-1.701-0.018-3.501-0.616-5.167c-0.38-1.053-0.782-2.117-0.905-3.226c-0.018-0.168-0.029-0.338-0.031-0.51c-0.006-0.372,0.029-0.744,0.125-1.098c0.072-0.274,0.173-0.555,0.31-0.799c0.33-0.597,0.677-1.253,1.228-1.646c0.417-0.298,0.934-0.451,1.447-0.483l0.201-0.007c2.189-0.037,3.801,1.68,4.815,3.497c0.382,0.682,0.685,1.4,1.027,2.109c0.525,1.084,1.467,2.082,1.608,3.273l0.125-0.015c-0.154-1.247-1.111-2.251-1.62-3.313c-0.34-0.704-0.643-1.425-1.028-2.116c-1.022-1.832-2.662-3.595-4.928-3.561l-0.205,0.008c-0.532,0.035-1.073,0.19-1.515,0.507c-0.579,0.417-0.932,1.093-1.262,1.687c-0.145,0.256-0.248,0.547-0.323,0.827c-0.098,0.368-0.133,0.752-0.126,1.132c0.002,0.175,0.013,0.35,0.03,0.521c0.123,1.13,0.531,2.204,0.911,3.255c0.588,1.629,0.396,3.419,0.61,5.14c0.217,1.727,0.789,3.455,1.73,4.934c0.831,1.298,2.024,2.185,3.161,3.169c0.616,0.53,1.259,1.047,1.982,1.442c0.303,0.161,1.322,0.754,1.9,0.748c0.102-0.001,0.195-0.021,0.269-0.075L28.936,27.391z"/>
    <path fill="#1D1D1B" d="M26.673,15.661c-0.389-0.384-0.782-0.771-1.055-1.234c-0.306-0.522-0.393-1.117-0.508-1.718c-0.112-0.557-0.307-1.014-0.67-1.453c-0.4-0.49-0.77-1.02-1.195-1.494c-0.177-0.192-0.407-0.421-0.718-0.419l-0.029,0.001l0.005,0.062l-0.005-0.062c-0.31,0.021-0.555,0.252-0.757,0.419l0.04,0.048l0.06-0.019c-0.168-0.543-0.54-0.843-0.888-1.231c-0.171-0.188-0.374-0.439-0.676-0.489l-0.092-0.006c-0.262,0.005-0.425,0.206-0.557,0.384l0.051,0.037l0.061,0.017c0.179-0.656,0.406-1.352,1.095-1.542c0.126-0.036,0.255-0.053,0.382-0.055c0.641-0.011,1.287,0.376,1.728,0.835c0.644,0.665,1,1.553,1.437,2.376c0.455,0.866,1.044,1.645,1.5,2.495c0.516,0.949,0.685,2.038,0.702,3.113v0.01l0.125-0.003v-0.009c-0.018-1.087-0.189-2.198-0.716-3.171c-0.465-0.86-1.05-1.639-1.505-2.493c-0.433-0.814-0.791-1.716-1.456-2.404c-0.457-0.474-1.123-0.883-1.82-0.874c-0.138,0.002-0.275,0.021-0.413,0.059c-0.766,0.218-1.004,0.979-1.181,1.631L19.531,8.79l0.197-0.265C19.86,8.349,20,8.194,20.188,8.192l0.07,0.005c0.235,0.036,0.432,0.256,0.601,0.449c0.36,0.399,0.708,0.682,0.864,1.186l0.027,0.09l0.071-0.061c0.206-0.172,0.438-0.378,0.683-0.39h0.002l0.02,0c0.242-0.005,0.45,0.187,0.622,0.378c0.421,0.464,0.789,0.994,1.193,1.487c0.351,0.425,0.535,0.857,0.639,1.398c0.119,0.596,0.209,1.207,0.526,1.757c0.283,0.482,0.686,0.877,1.074,1.261L26.673,15.661z"/>
    <path fill="#1D1D1B" d="M26.696,18.653c0.21,0.431,0.716,0.659,0.936,0.998c0.09,0.13,0.318,0.975,0.322,1.478c0.008,0.218-0.047,0.359-0.086,0.359l0.021,0.059l0.056-0.028c-0.275-0.539-0.869-0.785-1.155-1.208c-0.116-0.171-0.156-0.336-0.158-0.508c-0.008-0.371,0.179-0.769,0.188-1.205l-0.125-0.002c-0.003,0.401-0.188,0.797-0.188,1.209c0.003,0.189,0.053,0.385,0.183,0.576c0.317,0.462,0.905,0.706,1.147,1.194l0.022,0.05l0.051-0.02c0.153-0.067,0.172-0.255,0.172-0.479c-0.011-0.54-0.223-1.356-0.343-1.545c-0.256-0.378-0.752-0.605-0.926-0.984L26.696,18.653z"/>
    <path fill="#1D1D1B" d="M21.688,9.899c0.011,0.18,0.02,0.362,0.022,0.545c0.026,1.704-0.333,3.524-0.429,5.243c-0.04,0.693-0.245,1.679-0.23,2.591c0.013,0.837,0.217,1.628,0.931,2.052l0.062-0.107c-0.658-0.39-0.855-1.123-0.868-1.946c-0.014-0.893,0.188-1.875,0.23-2.582c0.09-1.708,0.454-3.53,0.427-5.252c-0.003-0.185-0.01-0.37-0.024-0.552L21.688,9.899z"/>
    <path fill="#1D1D1B" d="M25.108,13.468c-0.078,0.233-0.141,0.604-0.276,0.914c-0.136,0.312-0.327,0.546-0.665,0.553l-0.092-0.003l-0.01,0.124l0.104,0.004c0.406-0.006,0.638-0.3,0.777-0.627c0.141-0.328,0.205-0.707,0.278-0.924L25.108,13.468z"/>
    <path fill="#1D1D1B" d="M26.832,18.583c-0.057-0.49-0.189-1.009-0.198-1.541c-0.002-0.117,0.002-0.233,0.014-0.352c0.056-0.559,0.498-1.15,0.927-1.557l-0.085-0.09c-0.438,0.419-0.902,1.022-0.967,1.635c-0.012,0.124-0.016,0.246-0.014,0.365c0.009,0.552,0.144,1.076,0.198,1.553L26.832,18.583z"/>
    <path fill="#1D1D1B" d="M26.853,20.405c-0.297-0.364-0.799-0.508-1.279-0.501c-0.307,0.005-0.606,0.071-0.845,0.19c-0.756,0.375-1.021,1.044-1.172,1.881l0.124,0.022c0.15-0.828,0.398-1.439,1.104-1.791c0.217-0.108,0.499-0.173,0.79-0.177c0.455-0.007,0.92,0.134,1.182,0.457L26.853,20.405z"/>
    <path fill="#1D1D1B" d="M31.666,36.27l0.076,0.371l0.023,0.118l0.082-0.087c0.127-0.137,0.171-0.347,0.167-0.599c-0.021-1.237-1.203-3.71-1.413-4.379c-0.654-2.098-1.193-4.229-1.521-6.4c-0.079-0.504-0.112-1.006-0.12-1.51c-0.037-2.22,0.472-4.439,0.436-6.683c-0.038-2.435-1.134-4.659-2.843-6.374l-0.088,0.088c1.692,1.696,2.769,3.891,2.806,6.289c0.035,2.225-0.471,4.444-0.438,6.682c0.008,0.508,0.044,1.018,0.122,1.526c0.329,2.182,0.871,4.317,1.527,6.42c0.216,0.685,1.39,3.163,1.406,4.343c0.004,0.239-0.042,0.417-0.133,0.513l0.046,0.042l0.062-0.013l-0.076-0.372L31.666,36.27z"/>
    <path fill="#FFFFFF" d="M6.13,23.237c0.654-0.232,1.236-0.62,1.853-0.93c0.075,0.509,0.044,1.06-0.515,1.266c-0.542,0.2-1.022-0.029-1.445-0.36"/>
    <path fill="#0B0404" d="M6.152,23.295c0.664-0.236,1.248-0.624,1.86-0.933l-0.03-0.056l-0.06,0.009c0.015,0.109,0.025,0.22,0.026,0.328c0.004,0.39-0.098,0.72-0.504,0.871c-0.128,0.047-0.249,0.067-0.37,0.069c-0.363,0.006-0.702-0.174-1.019-0.42l-0.074,0.098c0.32,0.253,0.687,0.454,1.095,0.447c0.135-0.002,0.271-0.025,0.411-0.078c0.47-0.172,0.594-0.583,0.586-0.99c-0.002-0.115-0.013-0.23-0.029-0.344l-0.013-0.085L7.954,22.25c-0.62,0.315-1.2,0.699-1.843,0.928L6.152,23.295z"/>
    <path fill="#FFFFFF" d="M9.115,21.758c-0.279,0.169-0.732,0.505-1.068,0.523c-0.05,0.179,0.01,0.375,0.017,0.553c0.007,0.212-0.039,0.376-0.144,0.554c0.305,0.017,0.708,0.059,0.911-0.222c0.291-0.41,0.288-0.946,0.347-1.423"/>
    <path fill="#0B0404" d="M9.084,21.705c-0.284,0.171-0.742,0.501-1.043,0.515l-0.046,0.002l-0.011,0.043l-0.022,0.193c0.004,0.136,0.032,0.266,0.035,0.38l0,0.025c0.003,0.188-0.04,0.33-0.133,0.493l-0.055,0.087l0.104,0.006c0.102,0.006,0.217,0.016,0.334,0.014c0.229-0.003,0.478-0.049,0.63-0.26c0.306-0.433,0.299-0.981,0.358-1.451l-0.124-0.016c-0.057,0.483-0.06,1.008-0.335,1.394c-0.115,0.162-0.311,0.205-0.53,0.208c-0.109,0.002-0.223-0.006-0.325-0.012l-0.005,0.062l0.055,0.031c0.105-0.174,0.157-0.349,0.153-0.558l-0.002-0.029C8.12,22.703,8.09,22.575,8.09,22.456l0.017-0.158L8.048,22.28l0.003,0.062c0.367-0.023,0.819-0.366,1.098-0.532L9.084,21.705z"/>
    <path fill="#FFFFFF" d="M9.152,21.78c0.182-0.106,0.352-0.228,0.508-0.362l0.022,0.023c0.002,0.139-0.035,0.244-0.053,0.378c-0.019,0.157,0.003,0.345-0.004,0.499c-0.007,0.195,0.104,0.77-0.229,0.727c-0.04,0.085-0.429,0.157-0.456,0.06l0.003-0.067L9.004,22.9c0.166-0.384,0.164-0.755,0.214-1.163"/>
    <path fill="#0B0404" d="M9.184,21.832c0.182-0.107,0.358-0.229,0.514-0.368l-0.04-0.047L9.612,21.46l0.024,0.023l0.044-0.043l-0.062,0.001c0.002,0.126-0.032,0.228-0.053,0.369l-0.008,0.213l0.005,0.191l0,0.101l0,0.032c0.001,0.076,0.011,0.178,0.012,0.279c0.001,0.1-0.005,0.198-0.029,0.262l-0.114,0.095l-0.027-0.002l-0.045-0.006l-0.021,0.042H9.336c-0.023,0.027-0.169,0.071-0.263,0.07l-0.07-0.007l-0.012-0.005L8.981,23.09l0.016-0.005l-0.006-0.009L8.981,23.09l0.016-0.005l-0.059,0.019l0.061,0.001l0.003-0.055l0.058-0.126c0.172-0.399,0.167-0.778,0.218-1.18l-0.125-0.017c-0.052,0.414-0.048,0.777-0.208,1.146l-0.062,0.137l-0.003,0.012l-0.005,0.078v0.012l0.004,0.01c0.041,0.093,0.123,0.088,0.197,0.092l0.214-0.035l0.16-0.107l-0.057-0.026l-0.009,0.062l0.047,0.003c0.119,0,0.198-0.083,0.229-0.176c0.032-0.092,0.038-0.201,0.036-0.307c-0.001-0.109-0.011-0.213-0.012-0.279l0-0.026l0-0.106L9.68,22.024l0.008-0.195c0.016-0.126,0.053-0.235,0.053-0.387l0-0.024l-0.042-0.042l-0.042-0.043l-0.042,0.04c-0.15,0.131-0.32,0.25-0.499,0.354L9.184,21.832L9.184,21.832z"/>
    <path fill="#FFFFFF" d="M21.516,40.797C10.49,40.971,1.377,32.142,1.203,21.116C1.029,10.087,9.859,0.977,20.886,0.803c11.023-0.174,20.138,8.653,20.312,19.683C41.371,31.512,32.541,40.625,21.516,40.797z M20.898,1.619C10.322,1.785,1.851,10.525,2.018,21.103c0.167,10.575,8.909,19.045,19.485,18.879c10.576-0.167,19.045-8.908,18.879-19.484C40.215,9.92,31.475,1.452,20.898,1.619z"/>
    <path fill="#0B0404" d="M13.608,13.398l-0.233-0.021h-0.004h-0.006l-0.183,0.006c-0.434,0.007-0.927-0.033-1.358-0.041c-0.139-0.004-0.37-0.013-0.612-0.01c-0.349,0.008-0.71,0.031-0.892,0.174l0.08,0.096c0.112-0.099,0.477-0.142,0.812-0.145c0.236-0.003,0.469,0.006,0.605,0.011c0.43,0.007,0.921,0.047,1.364,0.041l0.188-0.006l-0.005-0.062l-0.005,0.062l0.234,0.021L13.608,13.398z"/>
    <g>
        <path class="icon-im__faceSay" fill="#FFFFFF" d="M8.041,22.396c0.305,0.16,0.771,0.184,1.054,0.341l-0.006-0.053c0.125-0.013,0.239,0.08,0.352,0.121c0.112,0.039,0.226,0.082,0.336,0.126c0.222,0.09,0.44,0.186,0.649,0.302c0.425,0.234,0.817,0.548,1.103,0.952c0.26,0.364,0.44,0.819,0.366,1.279c-0.069,0.437-0.361,0.781-0.629,1.113c-0.328,0.402-0.604,0.824-0.855,1.28l0.172-0.247c-0.273,0.396-0.479,0.951-0.526,1.434c-0.052,0.538,0.093,1.066,0.298,1.558c0.125,0.302,0.275,0.593,0.418,0.889c0.18,0.359,0.377,0.715,0.537,1.085c0.129,0.306,0.229,0.636,0.277,0.965c0.085,0.574,0.046,1.19-0.164,1.731c-0.208,0.535-0.55,1.05-0.582,1.642l0.332,0.329c-5.401-3.255-9.064-9.229-9.173-16.114C1.873,13.19,6.516,6.311,13.216,3.354l-0.21,0.697c0.066,0.325,0.228,0.538,0.392,0.813c0.142,0.238,0.213,0.512,0.354,0.752c0.265,0.466,0.625,0.868,0.942,1.299c0.304,0.413,0.64,0.812,0.922,1.237c0.291,0.439,0.577,0.875,0.745,1.378c0.082,0.245,0.191,0.478,0.199,0.741c0.026,0.571-0.189,1.274-0.476,1.759c-0.371,0.631-1.079,1.087-1.725,1.381c-0.745,0.341-1.575,0.493-2.348,0.751l0.029-0.012c-0.42,0.355-0.745,1.063-0.793,1.612c-0.022,0.229-0.03,0.458-0.005,0.687c0.039,0.336,0.085,0.589,0.252,0.868c0.861,1.431,0.421,0.555,0.312,0.595c0.1-0.002,0.294,0.324,0.401,0.637c0.147,0.434,0.072,0.836-0.131,1.212c-0.152,0.276-0.34,0.486-0.625,0.619c-0.372,0.178-0.781,0.247-1.155,0.428c-0.343,0.167-0.714,0.323-0.975,0.623c-0.356,0.416-0.891,0.706-1.38,0.922c-0.25,0.107-0.562,0.303-0.782,0.454c-0.239,0.168-0.393,0.226-0.646,0.363c-0.289,0.156-0.778,0.312-1.085,0.431c-0.147,0.058-0.112,0.076-0.261,0.142c-0.128,0.059-0.257,0.147-0.396,0.179l-0.251,0.053c-0.19,0.042-0.383,0.101-0.58,0.111c-0.117,0.009-0.229-0.017-0.252,0.144"/>
    </g>
    <g>
        <path class="icon-im__faceListen" fill="#FFFFFF" d="M20.952,1.907c-0.288,0.698,0.308,1.735,0.211,2.48c-0.386,0.07-0.76,0.215-1.081,0.442c-0.564,0.405-0.913,1.069-1.245,1.662c-0.141,0.249-0.242,0.534-0.313,0.81c-0.14,0.524-0.157,1.087-0.094,1.625c0.121,1.115,0.525,2.181,0.905,3.229c0.594,1.642,0.397,3.433,0.614,5.138c0.215,1.712,0.785,3.426,1.721,4.89c0.823,1.28,2.012,2.161,3.152,3.146c0.611,0.525,1.254,1.039,1.97,1.428c0.353,0.19,1.703,0.964,2.103,0.677l0.43,0.013c0.307,1.449,0.7,2.884,1.141,4.301c0.253,0.807,1.868,4.139,1.286,4.885l0.147-0.2c5.082-3.477,8.375-9.341,8.271-15.942c-0.113-7.23-4.272-13.452-10.299-16.554c-2.602-1.341-5.552-2.101-8.673-2.11"/>
    </g>
    <g>
        <path class="icon-im__hair" fill="#000000" d="M21.063,1.814c0.012,0.76,0.124,1.452,0.293,2.147c0.014,0.059,1.223,0.168,1.337,0.191c0.499,0.095,1.001,0.226,1.442,0.476c0.737,0.417,1.52,1.081,2.011,1.755c1.348,1.854,2.314,3.973,3.188,6.067c0.402,0.969,0.516,1.846,0.694,2.872c0.142,0.814,0.243,1.662,0.021,2.472c1.075-1.145,1.73-2.593,2.245-4.039c0.523-1.471,1.193-2.977,1.456-4.518c0.099-0.587,0.308-1.16,0.352-1.757c0.053-0.73-0.397-1.006-0.889-1.471c-0.279-0.263-0.58-0.502-0.898-0.718c-0.711-0.489-1.468-0.923-2.223-1.344c-1.727-0.965-3.609-1.471-5.551-1.853c-1.156-0.225-2.339-0.264-3.514-0.245"/>
    </g>
    <g>
        <path fill="#754C24" d="M26.628,15.706c-0.389-0.385-0.787-0.776-1.064-1.249c-0.312-0.536-0.4-1.139-0.518-1.737c-0.108-0.549-0.301-0.994-0.655-1.426c-0.402-0.492-0.769-1.022-1.193-1.491c-0.179-0.197-0.407-0.416-0.694-0.397c-0.278,0.016-0.518,0.235-0.722,0.405c-0.161-0.523-0.523-0.814-0.875-1.208c-0.173-0.19-0.37-0.427-0.638-0.469c-0.27-0.043-0.443,0.155-0.59,0.353c0.177-0.653,0.41-1.382,1.139-1.587c0.793-0.223,1.633,0.239,2.167,0.798c0.655,0.677,1.011,1.571,1.446,2.391c0.454,0.86,1.043,1.639,1.502,2.495c0.525,0.964,0.69,2.068,0.708,3.152"/>
        <path fill="#754C24" d="M26.753,18.625c0.191,0.404,0.691,0.632,0.93,0.992c0.149,0.227,0.53,1.816,0.206,1.93c-0.258-0.513-0.85-0.757-1.152-1.201c-0.388-0.573,0.008-1.136,0.018-1.75"/>
    </g>
</svg>
