<?xml version="1.0" encoding="utf-8"?>
<!-- Generator: Adobe Illustrator 16.0.4, SVG Export Plug-In . SVG Version: 6.00 Build 0)  -->
<!DOCTYPE svg PUBLIC "-//W3C//DTD SVG 1.1//EN" "http://www.w3.org/Graphics/SVG/1.1/DTD/svg11.dtd">
<svg version="1.1" id="图层_1" xmlns="http://www.w3.org/2000/svg" xmlns:xlink="http://www.w3.org/1999/xlink" x="0px" y="0px"
	 width="1920px" height="900px" viewBox="0 0 1920 900" enable-background="new 0 0 1920 900" xml:space="preserve">
<g>
	<polygon points="1720,350.926 1720,307.9 1530.434,307.9 1530.434,350.926 1601.865,350.926 1601.865,611.145 1648.764,611.145 
		1648.764,350.926 	"/>
	<polygon points="355.158,307.9 200,307.9 200,611.145 246.885,611.145 246.885,466.787 351.327,466.787 351.327,423.781 
		246.885,423.781 246.885,350.926 355.158,350.926 	"/>
	<polygon points="812.517,307.9 641.074,307.9 641.074,611.145 812.517,611.145 812.517,568.131 687.938,568.131 687.938,466.787 
		808.89,466.787 808.89,423.781 687.938,423.781 687.938,350.926 812.517,350.926 	"/>
	<path d="M1129.605,494.48l48.308-103.111l46.079,103.111H1129.605z M1275.717,611.145h51.31l-148.304-322.291l-153.744,322.291
		h50.5l34.615-73.648h133.016L1275.717,611.145z"/>
</g>
</svg>
