<?xml version="1.0" encoding="utf-8"?>
<!-- Generator: Adobe Illustrator 15.1.0, SVG Export Plug-In . SVG Version: 6.00 Build 0)  -->
<!DOCTYPE svg PUBLIC "-//W3C//DTD SVG 1.1//EN" "http://www.w3.org/Graphics/SVG/1.1/DTD/svg11.dtd">
<svg version="1.1" id="Layer_1" xmlns="http://www.w3.org/2000/svg" xmlns:xlink="http://www.w3.org/1999/xlink" x="0px" y="0px"
	 width="26px" height="42px" viewBox="359.047 1010.363 26 42" enable-background="new 359.047 1010.363 26 42"
	 xml:space="preserve">
<rect x="365.826" y="1015.583" fill="#FFFFFF" width="12.625" height="14.5"/>
<linearGradient id="SVGID_1_" gradientUnits="userSpaceOnUse" x1="406.8936" y1="8.0679" x2="406.8936" y2="45.6339" gradientTransform="matrix(1 0 0 -1 -34.8462 1057.0752)">
	<stop  offset="0" style="stop-color:#126FC6"/>
	<stop  offset="1" style="stop-color:#4C9CD1"/>
</linearGradient>
<linearGradient id="SVGID_2_" gradientUnits="userSpaceOnUse" x1="424.2949" y1="403.9072" x2="424.2949" y2="422.9602">
	<stop  offset="0" style="stop-color:#2E6C97"/>
	<stop  offset="1" style="stop-color:#3883B7"/>
</linearGradient>
<path fill="url(#SVGID_1_)" stroke="url(#SVGID_2_)" stroke-width="1.1" stroke-linecap="round" d="M372.091,1011.621
	c-6.573,0-12.044,5.691-12.044,11.867c0,2.777,1.564,6.307,2.694,8.744l9.306,17.872l9.262-17.872
	c1.13-2.438,2.738-5.791,2.738-8.744C384.047,1017.312,378.664,1011.621,372.091,1011.621L372.091,1011.621z M372.091,1018.775
	c2.584,0.018,4.679,2.123,4.679,4.711s-2.095,4.662-4.679,4.68c-2.584-0.018-4.679-2.09-4.679-4.68
	C367.412,1020.898,369.507,1018.792,372.091,1018.775z"/>
<path fill="none" stroke="#FFFFFF" stroke-width="1.1" stroke-linecap="round" stroke-opacity="0.122" d="M372.078,1012.728
	c-5.944,0-10.938,5.219-10.938,10.75c0,2.359,1.443,5.832,2.563,8.25l0.031,0.031l8.312,15.968l8.25-15.968l0.031-0.031
	c1.135-2.447,2.625-5.707,2.625-8.25C382.953,1017.939,378.021,1012.728,372.078,1012.728z M372.078,1017.697
	c3.168,0.021,5.781,2.602,5.781,5.781s-2.613,5.762-5.781,5.781c-3.168-0.02-5.75-2.611-5.75-5.781
	C366.328,1020.306,368.91,1017.716,372.078,1017.697z"/>
</svg>
