<?xml version="1.0" encoding="utf-8"?>
<!DOCTYPE svg PUBLIC "-//W3C//DTD SVG 1.1//EN" "http://www.w3.org/Graphics/SVG/1.1/DTD/svg11.dtd">
<svg 
    class="icon" 
    style="width: 28px; height: 28px;vertical-align: middle;fill: currentColor;overflow: hidden;padding: 2px;" 
    viewBox="0 0 1024 1024" 
    version="1.1" 
    xmlns="http://www.w3.org/2000/svg" 
    p-id="3640">
        <path class="icon-search__blue" d="M945.387539 1023.998679a45.088974 45.088974 0 0 1-33.032216-14.038692l-247.741615-259.13773a47.236068 47.236068 0 0 1 0-66.064431 44.923813 44.923813 0 0 1 64.577981 0l247.741616 259.13773a47.236068 47.236068 0 0 1 0 66.064431 44.923813 44.923813 0 0 1-31.545766 14.038692z" fill="#6D6E71" p-id="3641"></path>
        <path class="icon-search__blue" d="M450.069468 847.276326A420.830425 420.830425 0 0 1 33.037748 423.638163 420.830425 420.830425 0 0 1 450.069468 0 420.830425 420.830425 0 0 1 867.101188 423.638163 420.830425 420.830425 0 0 1 450.069468 847.276326z m0-754.29064a330.322154 330.322154 0 0 0 0 660.644309 330.322154 330.322154 0 0 0 0-660.479147z" fill="#6D6E71" p-id="3642"></path>
        <path class="icon-search__subblue" d="M125.032468 423.638163a329.991832 325.037 90 1 0 650.074 0 329.991832 325.037 90 1 0-650.074 0Z" fill="#fff" p-id="3643"></path>
</svg>