<?xml version="1.0" encoding="utf-8"?>
<!-- Generator: Adobe Illustrator 23.1.1, SVG Export Plug-In . SVG Version: 6.00 Build 0)  -->
<svg version="1.1" id="图层_1" xmlns="http://www.w3.org/2000/svg" xmlns:xlink="http://www.w3.org/1999/xlink" x="0px" y="0px"
	 viewBox="0 0 512 512" style="enable-background:new 0 0 512 512;" xml:space="preserve">
<style type="text/css">
	.st0{fill:#FFD600;}
	.st1{fill:#F1CA00;}
</style>
<g>
	<path class="st0" d="M215.9,110.7L51.1,396.2c-17.8,30.9,4.5,69.4,40.1,69.4h329.7c35.6,0,57.9-38.6,40.1-69.4L296.1,110.7
		C278.3,79.8,233.7,79.8,215.9,110.7z"/>
	<path class="st1" d="M420.8,469.6H91.2c-18.2,0-34.5-9.4-43.5-25.1c-9.1-15.7-9.1-34.5,0-50.3l164.8-285.5l3.5,2l-3.5-2
		c9.1-15.7,25.4-25.1,43.5-25.1c0,0,0,0,0,0c18.2,0,34.5,9.4,43.5,25.1l164.8,285.5c9.1,15.7,9.1,34.5,0,50.3
		C455.3,460.2,439,469.6,420.8,469.6z M256,91.5c-15.3,0-29,7.9-36.6,21.1L54.5,398.2c-7.6,13.2-7.6,29,0,42.3
		c7.6,13.2,21.3,21.1,36.6,21.1h329.7c15.3,0,29-7.9,36.6-21.1s7.6-29,0-42.3L292.6,112.7C285,99.4,271.3,91.5,256,91.5z"/>
</g>
<g>
	<path d="M256,376.2c5.7,0,10.5,2,14.6,5.9c4.1,3.9,6.1,8.9,6.1,14.8c0,5.7-2,10.5-6.1,14.6c-4.1,4.1-8.9,6.1-14.6,6.1
		c-5.9,0-10.8-2-14.8-6.1c-3.9-4.1-5.9-8.9-5.9-14.6c0-5.9,2-10.8,5.9-14.8C245.2,378.2,250.1,376.2,256,376.2z M251.6,356.3
		l-15.9-161.2c-0.5-5.9,1.3-10.8,5.4-14.6c4.1-3.8,8.9-5.7,14.6-5.7c5.7,0,10.5,1.9,14.4,5.7c3.9,3.8,5.9,8.7,5.9,14.6
		c-0.2,3.2-0.7,7.6-1.5,13.3c-0.7,5.7-1.7,14.4-3,26.1c-1.2,11.7-2.8,27.3-4.6,46.8c-1.8,19.5-4.1,44.5-6.8,75H251.6z"/>
</g>
</svg>
