<?xml version="1.0" encoding="utf-8"?>
<!-- Generator: Adobe Illustrator 16.0.4, SVG Export Plug-In . SVG Version: 6.00 Build 0)  -->
<!DOCTYPE svg PUBLIC "-//W3C//DTD SVG 1.1//EN" "http://www.w3.org/Graphics/SVG/1.1/DTD/svg11.dtd">
<svg version="1.1" id="图层_1" xmlns="http://www.w3.org/2000/svg" xmlns:xlink="http://www.w3.org/1999/xlink" x="0px" y="0px"
	 width="32px" height="32px" viewBox="0 0 32 32" enable-background="new 0 0 32 32" xml:space="preserve">
<g class="symbol">
	<path fill="currentColor" d="M16.774,21.756h-5.167v-11.39h4.889c2.407,0.075,3.686,0.982,3.833,2.722
		c-0.036,1.445-0.815,2.334-2.333,2.667v0.056c1.74,0.297,2.685,1.204,2.834,2.722C20.83,20.682,19.478,21.756,16.774,21.756z
		 M16.163,11.7h-2.834v3.5h2.834c1.519-0.037,2.296-0.647,2.333-1.833C18.459,12.255,17.682,11.7,16.163,11.7z M16.385,16.588
		h-3.056v3.89h3.167c1.629,0,2.444-0.686,2.444-2.057C18.865,17.237,18.014,16.626,16.385,16.588z"/>
</g>
</svg>
