<?xml version="1.0" encoding="utf-8"?>
<!-- Generator: Adobe Illustrator 16.0.4, SVG Export Plug-In . SVG Version: 6.00 Build 0)  -->
<!DOCTYPE svg PUBLIC "-//W3C//DTD SVG 1.1//EN" "http://www.w3.org/Graphics/SVG/1.1/DTD/svg11.dtd">
<svg version="1.1" id="图层_1" xmlns="http://www.w3.org/2000/svg" xmlns:xlink="http://www.w3.org/1999/xlink" x="0px" y="0px"
	 width="32px" height="32px" viewBox="0 0 32 32" enable-background="new 0 0 32 32" xml:space="preserve">
<g class="symbol">
	<path fill="currentColor" d="M19.648,21.41c-0.4,0.214-0.812,0.373-1.234,0.48s-0.87,0.16-1.344,0.16c-1.494,0-2.654-0.529-3.48-1.586
		c-0.825-1.058-1.238-2.545-1.238-4.461c0-1.906,0.416-3.392,1.246-4.457c0.831-1.065,1.988-1.598,3.473-1.598
		c0.474,0,0.922,0.053,1.344,0.16s0.834,0.267,1.234,0.48v1.617c-0.385-0.317-0.799-0.56-1.241-0.727s-0.889-0.25-1.337-0.25
		c-1.026,0-1.793,0.396-2.304,1.188c-0.511,0.792-0.766,1.987-0.766,3.586c0,1.594,0.255,2.787,0.766,3.578
		c0.511,0.792,1.277,1.188,2.304,1.188c0.458,0,0.907-0.084,1.349-0.25c0.439-0.166,0.85-0.408,1.229-0.727V21.41z"/>
</g>
</svg>
