<?xml version="1.0" encoding="utf-8"?>
<!-- Generator: Adobe Illustrator 16.0.4, SVG Export Plug-In . SVG Version: 6.00 Build 0)  -->
<!DOCTYPE svg PUBLIC "-//W3C//DTD SVG 1.1//EN" "http://www.w3.org/Graphics/SVG/1.1/DTD/svg11.dtd">
<svg version="1.1" id="图层_1" xmlns="http://www.w3.org/2000/svg" xmlns:xlink="http://www.w3.org/1999/xlink" x="0px" y="0px"
	 width="32px" height="32px" viewBox="0 0 32 32" enable-background="new 0 0 32 32" xml:space="preserve">
<g class="symbol">
<path fill="currentColor" d="M12.443,13.138c0,1.178-0.955,2.133-2.135,2.133c-1.177,0-2.133-0.956-2.133-2.133s0.956-2.133,2.133-2.133
	C11.488,11.005,12.443,11.96,12.443,13.138z M23.821,17.404v4.979H8.176V20.25l3.556-3.556l1.777,1.778l5.689-5.689L23.821,17.404z
	 M25.42,9.045H6.577C6.376,9.045,6.2,9.223,6.2,9.427v14.534c0,0.203,0.176,0.383,0.377,0.383H25.42c0.2,0,0.376-0.18,0.376-0.383
	V9.427C25.796,9.223,25.62,9.045,25.42,9.045z M26.664,9.938v13.511c0,0.978-0.8,1.777-1.776,1.777H7.108
	c-0.977,0-1.776-0.8-1.776-1.777V9.938c0-0.978,0.8-1.778,1.776-1.778h17.779C25.864,8.161,26.664,8.96,26.664,9.938z"/>
</g>
</svg>
