<?xml version="1.0" encoding="utf-8"?>
<!-- Generator: Adobe Illustrator 16.0.4, SVG Export Plug-In . SVG Version: 6.00 Build 0)  -->
<!DOCTYPE svg PUBLIC "-//W3C//DTD SVG 1.1//EN" "http://www.w3.org/Graphics/SVG/1.1/DTD/svg11.dtd">
<svg version="1.1" id="图层_1" xmlns="http://www.w3.org/2000/svg" xmlns:xlink="http://www.w3.org/1999/xlink" x="0px" y="0px"
	 width="32px" height="32px" viewBox="0 0 32 32" enable-background="new 0 0 32 32" xml:space="preserve">
<g class="symbol">
	<rect fill="currentColor" x="11.595" y="9.938" width="15.111" height="0.888"/>
	<rect fill="currentColor" x="11.595" y="17.049" width="15.111" height="0.889"/>
	<rect fill="currentColor" x="11.595" y="24.16" width="15.111" height="0.889"/>
	<g>
		<path fill="currentColor" d="M7.473,12.487V9.153C7.152,9.459,6.715,9.729,6.16,9.966c0-0.195,0-0.382,0-0.562
			C6.881,9.07,7.368,8.661,7.617,8.174h0.48v4.313H7.473z"/>
	</g>
	<g>
		<path fill="currentColor" d="M6.776,19.139h2.208v0.479H6.006v-0.354c0.291-0.542,0.737-1.041,1.332-1.5
			c0.709-0.5,1.037-0.902,0.98-1.208c-0.013-0.472-0.277-0.716-0.792-0.73c-0.458,0-0.75,0.271-0.876,0.812l-0.583-0.187
			c0.209-0.764,0.729-1.146,1.562-1.146c0.849,0.028,1.301,0.424,1.354,1.188c0.071,0.5-0.271,0.994-1.021,1.48
			C7.437,18.334,7.041,18.722,6.776,19.139z"/>
	</g>
	<g>
		<path fill="currentColor" d="M6.037,25.627l0.646-0.146c0.096,0.529,0.396,0.792,0.896,0.792c0.554-0.013,0.839-0.284,0.854-0.812
			c0-0.486-0.342-0.73-1.021-0.73c-0.166,0-0.3,0-0.396,0v-0.5c0.096,0,0.2,0,0.312,0c0.638,0,0.964-0.242,0.979-0.729
			c-0.016-0.443-0.26-0.674-0.729-0.688c-0.474,0-0.75,0.258-0.833,0.771l-0.625-0.146c0.179-0.736,0.679-1.104,1.5-1.104
			c0.845,0.027,1.297,0.396,1.354,1.104c-0.015,0.515-0.3,0.848-0.854,1c0.609,0.125,0.938,0.479,0.979,1.062
			c-0.041,0.791-0.551,1.201-1.521,1.23C6.73,26.746,6.217,26.377,6.037,25.627z"/>
	</g>
</g>
</svg>
