<?xml version="1.0" encoding="utf-8"?>
<!-- Generator: Adobe Illustrator 16.0.4, SVG Export Plug-In . SVG Version: 6.00 Build 0)  -->
<!DOCTYPE svg PUBLIC "-//W3C//DTD SVG 1.1//EN" "http://www.w3.org/Graphics/SVG/1.1/DTD/svg11.dtd">
<svg version="1.1" id="图层_1" xmlns="http://www.w3.org/2000/svg" xmlns:xlink="http://www.w3.org/1999/xlink" x="0px" y="0px"
	 width="32px" height="32px" viewBox="0 0 32 32" enable-background="new 0 0 32 32" xml:space="preserve">
<g class="symbol">
	<path fill="currentColor" d="M9.444,16.393H22.5v0.779h-2.556c-0.556,2.777-1.667,4.943-3.333,6.5c1.444,1.111,3.426,1.963,5.944,2.556
		c-0.075,0.11-0.186,0.313-0.333,0.61c-0.038,0.073-0.075,0.147-0.111,0.223c-2.889-0.927-4.926-1.87-6.111-2.833
		c-1.037,0.889-3.056,1.868-6.055,2.944c-0.149-0.298-0.316-0.557-0.501-0.779c2.593-0.74,4.573-1.629,5.944-2.666
		c-1.741-1.777-2.852-3.963-3.333-6.555H9.444V16.393z M16,23.172c1.703-1.556,2.74-3.557,3.111-6h-6.277
		C13.277,19.541,14.333,21.541,16,23.172z M15.111,14.338l0.722-0.333c0.147,0.26,0.39,0.647,0.723,1.167
		c0.222,0.37,0.39,0.648,0.499,0.834l-0.777,0.388C15.907,15.653,15.518,14.969,15.111,14.338z"/>
</g>
</svg>
