<?xml version="1.0" encoding="utf-8"?>
<!-- Generator: Adobe Illustrator 23.1.1, SVG Export Plug-In . SVG Version: 6.00 Build 0)  -->
<svg version="1.1" class="icon-Driving" xmlns="http://www.w3.org/2000/svg" xmlns:xlink="http://www.w3.org/1999/xlink" x="0px" y="0px"
	 viewBox="0 0 144 144" style="enable-background:new 0 0 144 144;" xml:space="preserve">

<g class="icon-Driving__symbol">
	<path fill="currentColor" d="M6,108.1c0,5,4,8.9,9,8.9h9c3.9,0,7.2-2.4,8.5-5.9C27.2,111,13.9,110,6,104.2V108.1z"/>
	<path fill="currentColor" d="M120,117h9c5,0,9-3.9,9-8.9v-3.9c-7.9,5.7-21.2,6.7-26.5,6.8C112.8,114.6,116.1,117,120,117z"/>
	<path fill="currentColor" d="M124.3,56.8c-0.6-0.3-1.1-0.7-1.5-1.2c-1.1-1.2-1.7-2.8-2.4-4.2c-1.9-4-3.9-8-5.8-12c-1.9-3.9-3.6-7.4-7.9-9.2
		c-4.5-1.8-9.8-1.8-14.6-2.2c-14-1.2-28.2-1.3-42.2,0c-9.8,0.9-16.6,1.8-20.9,11.7c-1.2,2.6-2.4,5.1-3.6,7.7
		c-0.8,1.7-1.6,3.4-2.4,5.1c-2,4.2-3.9,4.2-7.8,5.9c-1.8,0.7-3.4,1.8-4.7,3.2C7.6,64.3,6,71.1,6,75.1v18c0,8.3,24.7,11.9,33,11.9h66
		c8.3,0,33-3.6,33-11.9v-18c0-4.1-1.7-11.1-4.7-13.9C130.9,58.9,127.1,58.5,124.3,56.8z M35.2,40.3c4-8.2,14-7.1,22.5-7.3
		c11.1-0.3,22.2-0.5,33.3,0c7.7,0.4,13.4,0,17.7,7.3l6.8,14.6c0.5,1-0.3,2.1-1.4,2.1H29.8c-1.1,0-1.8-1.1-1.4-2.1
		C28.4,55,35.2,40.4,35.2,40.3z M27,87c-5.8,0-10.5-4.7-10.5-10.5S21.2,66,27,66c5.8,0,10.5,4.7,10.5,10.5S32.8,87,27,87z M87.2,87
		H56.8c-5.1,0-9.1-3.8-9.1-8.9c0-5,4.1-9.1,9.1-9.1h30.5c5.1,0,9.2,4.1,9.2,9.1C96.4,83.2,92.3,87,87.2,87z M117,87
		c-5.8,0-10.5-4.7-10.5-10.5S111.2,66,117,66c5.8,0,10.5,4.7,10.5,10.5S122.8,87,117,87z"/>
</g>
</svg>
