<?xml version="1.0" encoding="utf-8"?>
<!-- Generator: Adobe Illustrator 23.1.1, SVG Export Plug-In . SVG Version: 6.00 Build 0)  -->
<svg version="1.1" class="icon-transit" xmlns="http://www.w3.org/2000/svg" xmlns:xlink="http://www.w3.org/1999/xlink" x="0px" y="0px"
	 viewBox="0 0 144 144" style="enable-background:new 0 0 144 144;" xml:space="preserve">
<path class="icon-transit__symbol" fill="currentColor" d="M125,56.9L119.5,30c-2.5-12-12.6-20.8-24.8-21.6l-11-0.7c-7.8-0.5-15.5-0.5-23.3,0l-11,0.7
	C37.2,9.2,27,18.1,24.5,30L19,56.9c-0.8,3.8-1.2,7.6-1.2,11.4v42.3c0,4.1,3.3,7.4,7.4,7.4H26v11.5c0,4.1,3.3,7.4,7.4,7.4h1.4
	c4.1,0,7.4-3.3,7.4-7.4V118h59.6v11.5c0,4.1,3.3,7.4,7.4,7.4h1.4c4.1,0,7.4-3.3,7.4-7.4V118h0.7c4.1,0,7.4-3.3,7.4-7.4V68.3
	C126.2,64.5,125.8,60.7,125,56.9z M47.6,20.6c0-1.5,1.2-2.7,2.7-2.7h43.3c1.5,0,2.7,1.2,2.7,2.7v2.7c0,1.5-1.2,2.7-2.7,2.7H50.3
	c-1.5,0-2.7-1.2-2.7-2.7V20.6z M34.1,102.5c-4.1,0-7.4-3.3-7.4-7.4c0-4.1,3.3-7.4,7.4-7.4c4.1,0,7.4,3.3,7.4,7.4
	C41.5,99.1,38.2,102.5,34.1,102.5z M32.4,72c-3.3,0-5.9-3-5.3-6.3l3.8-26.9c0.3-2.7,2.6-4.7,5.4-4.7h71.7c2.7,0,5,2,5.4,4.7
	l3.8,26.9c0.6,3.3-2,6.3-5.4,6.3H32.4z M109.9,102.5c-4.1,0-7.4-3.3-7.4-7.4c0-4.1,3.3-7.4,7.4-7.4c4.1,0,7.4,3.3,7.4,7.4
	C117.4,99.1,114,102.5,109.9,102.5z"/>
</svg>
