<?xml version="1.0" encoding="utf-8"?>
<!-- Generator: Adobe Illustrator 23.1.1, SVG Export Plug-In . SVG Version: 6.00 Build 0)  -->
<svg version="1.1" class="icon-walking" xmlns="http://www.w3.org/2000/svg" xmlns:xlink="http://www.w3.org/1999/xlink" x="0px" y="0px"
	 viewBox="0 0 144 144" style="enable-background:new 0 0 144 144;" xml:space="preserve">
	<g id="icon-walking__symbol">
		<path fill="currentColor" d="M74.5,27c5,0.3,9.2-3.5,9.5-8.5c0.3-5-3.5-9.2-8.5-9.5c-5-0.3-9.2,3.5-9.5,8.5C65.7,22.5,69.6,26.7,74.5,27z"
			/>
		<path fill="currentColor" d="M97.1,99.2c-0.4-1.7-1.2-3.3-2.3-4.7L79.7,76.4l1.1-38.5c0-0.9-0.7-1.8-1.7-2l-14.4-2.3c-1.6-0.4-4,0.3-5.4,1
			l-23,13.9c-3.2,1.9-5.5,5-5.5,10.1v13.2c0,2.9,1.8,5.2,5,5.2c3.2,0,5.4-2.2,5.4-5V59.4c0-2.7,2.4-4,5.4-5.6l11.5-6.5l-0.6,21.6
			c-0.1,2.1,0.6,4.1,2.1,5.7l23.2,25.2c0.7,0.8,1,2,1.3,2.9l5.7,27.1c0.7,2.8,3.3,4.8,6.4,4.8h0c4.1,0,7.2-3.5,6.4-7.3L97.1,99.2z"
			/>
		<path fill="currentColor" d="M109.3,64.4c0,0-24.8-22.4-24.8-22.4L84,56.3l17.5,15.4C107.1,76.5,113.4,68.6,109.3,64.4z"/>
		<path fill="currentColor" d="M55.3,96.5c0,0.6-0.1,2.6-0.6,3L33.6,117c-3.1,2.7-2.7,6.1-0.8,9.1c2.2,3.5,6.6,3.6,9.6,0.9l22.8-18
			c1.6-1.4,3.4-4.5,3.6-6.8L70.5,92L55.7,76.5L55.3,96.5z"/>
	</g>
</svg>
