<?xml version="1.0" encoding="utf-8"?>
<!-- Generator: Adobe Illustrator 16.0.4, SVG Export Plug-In . SVG Version: 6.00 Build 0)  -->
<!DOCTYPE svg PUBLIC "-//W3C//DTD SVG 1.1//EN" "http://www.w3.org/Graphics/SVG/1.1/DTD/svg11.dtd">
<svg version="1.1" id="图层_1" xmlns:ev="http://www.w3.org/2001/xml-events"
	 xmlns="http://www.w3.org/2000/svg" xmlns:xlink="http://www.w3.org/1999/xlink" x="0px" y="0px" width="1920px" height="1080px"
	 viewBox="0 0 1920 1080" enable-background="new 0 0 1920 1080" xml:space="preserve">
<title>blue pink gradient linear light pink light steel blue 1920x1080 #ffb6c1 #b0c4de 225°</title>
<desc>blue pink gradient linear light pink light steel blue 1920x1080 #ffb6c1 #b0c4de 225°</desc>
<linearGradient id="SVGID_1_" gradientUnits="userSpaceOnUse" x1="1440.8369" y1="820.1504" x2="1441.3994" y2="821.1504" gradientTransform="matrix(1920 0 0 -1080 -2765987.5 886843.5)">
	<stop  offset="0" style="stop-color:#FFB6C1"/>
	<stop  offset="1" style="stop-color:#B0C4DE"/>
</linearGradient>
<rect fill="url(#SVGID_1_)" width="1920" height="1080"/>
<path opacity="0.01" fill="#FFFFFF" enable-background="new    " d="M5,5h2v1H6v1h1v1H5V5z M4,3h4v1h1v5H8v1H4V9H3V4h1v5h4V4H4V3z
	 M11,4h1v2h1V4h1v2h-1v1h1v2h-1V7h-1v2h-1V7h1V6h-1V4z M15,4h5v5h-1V5h-1v4h-1V5h-1v4h-1V4z M21,4h3l-1,1h-1v3h1V5l1-1v5h-2v2h-1V4z
	 M25,2h1v6h1v1h-2V2z M28,4h3l-1,1h-1v1h1V5l1-1v3h-2v1h2v1h-3V4z M32,8h1v1h-1V8z M34,4h3v1h-2v3h2v1h-3V4z M38,4h3v5h-3l1-1h1V5
	h-1v3l-1,1V4z M42,4h5v5h-1V5h-1v4h-1V5h-1v4h-1V4z"/>
<a xlink:href="https://www.xmple.com" >
	
		<text transform="matrix(1 0 0 1 1799.5605 22)" opacity="0.01" fill="#FFFFFF" enable-background="new    " font-family="'Verdana'" font-size="20">xmple.com</text>
</a>
</svg>
